<?xml version="1.0" standalone="no"?>
<!DOCTYPE svg PUBLIC "-//W3C//DTD SVG 1.1//EN" "http://www.w3.org/Graphics/SVG/1.1/DTD/svg11.dtd" >
<svg>
<metadata>
Created by FontForge 20090622 at Mon Apr  8 18:07:42 2019
 By deploy user
Copyright (C) 2002, 2007 Hoefler &#38; Co. http://www.typography.com
</metadata>
<defs>
<font id="ChronicleDisplay-Black" horiz-adv-x="783" >
  <font-face 
    font-family="Chronicle Display Black"
    font-weight="450"
    font-stretch="normal"
    units-per-em="1000"
    panose-1="0 0 0 0 0 0 0 0 0 0"
    ascent="800"
    descent="-200"
    x-height="464"
    cap-height="697"
    bbox="-121 -342 1293 1176"
    underline-thickness="50"
    underline-position="-50"
    unicode-range="U+0020-U+FB04"
  />
<missing-glyph horiz-adv-x="500" 
d="M0 -200v1000h500v-1000h-500zM71 750l179 -390l179 390h-358zM50 -76l172 376l-172 376v-752zM450 676l-172 -376l172 -376v752zM250 240l-179 -390h358z" />
    <glyph glyph-name="f_f" unicode="ff" horiz-adv-x="710" 
d="M332 719q109 0 151 -48q52 52 169 52q80 0 120.5 -25.5t40.5 -68.5q0 -35 -19 -55.5t-55 -20.5q-35 0 -56.5 19.5t-21.5 56.5q0 16 8.5 36.5t17.5 30.5q-16 7 -35 7q-26 0 -41 -15q-27 -27 -27 -132v-99h124v-33h-124v-377q0 -18 18 -25.5t75 -9.5v-12h-310v12
q34 1 48.5 9t14.5 26v377h-179v-377q0 -33 58 -35v-12h-279v12q41 1 54 8.5t13 26.5v375h-87v19l87 18v35q0 113 55 170q54 55 180 55zM430 499q0 29 2 43h-4q-34 0 -56 21t-22 57q0 40 29 67q-15 12 -48 12q-31 0 -48 -17q-32 -32 -32 -124v-101h179v42z" />
    <glyph glyph-name="fi" unicode="fi" horiz-adv-x="657" 
d="M30 0v12q41 1 54 8.5t13 26.5v375h-87v19l87 18v27q0 122 51 174q63 63 194 63q215 0 215 -115q0 -36 -22 -59t-58 -23t-60 20t-24 55q0 46 40 70q-28 32 -77 32q-52 0 -74 -22q-17 -17 -24 -45t-7 -84v-95h140l185 9v-419q0 -19 13 -26.5t54 -8.5v-12h-281v12
q60 2 60 35v377h-171v-377q0 -33 58 -35v-12h-279z" />
    <glyph glyph-name="fl" unicode="fl" horiz-adv-x="661" 
d="M430 424h-179v-377q0 -33 58 -35v-12h-279v12q41 1 54 8.5t13 26.5v375h-87v19l87 18v33q0 121 51 173q58 58 182 58q92 0 138 -27l116 27v-676q0 -19 13 -26.5t54 -8.5v-12h-281v12q60 2 60 35v377zM430 541q-33 2 -54 21t-21 54q0 44 32 68q-21 19 -50 19
q-38 0 -57 -19q-29 -29 -29 -130v-97h179v84z" />
    <glyph glyph-name="f_f_i" unicode="ffi" horiz-adv-x="990" 
d="M367 0v12q34 1 48.5 9t14.5 26v377h-179v-377q0 -33 58 -35v-12h-279v12q41 1 54 8.5t13 26.5v375h-87v19l87 18v35q0 113 55 170q54 55 180 55q116 0 155 -53q64 57 188 57q215 0 215 -115q0 -36 -22 -59t-58 -23t-60 20t-24 55q0 46 40 70q-28 32 -77 32q-52 0 -74 -22
q-17 -17 -24 -45t-7 -84v-95h140l185 9v-419q0 -19 13 -26.5t54 -8.5v-12h-281v12q60 2 60 35v377h-171v-377q0 -33 58 -35v-12h-275zM430 486q0 30 3 56h-5q-34 0 -56 21t-22 57q0 40 29 67q-15 12 -48 12q-31 0 -48 -17q-32 -32 -32 -124v-101h179v29z" />
    <glyph glyph-name="f_f_l" unicode="ffl" horiz-adv-x="994" 
d="M367 0v12q34 1 48.5 9t14.5 26v377h-179v-377q0 -33 58 -35v-12h-279v12q41 1 54 8.5t13 26.5v375h-87v19l87 18v35q0 113 55 170q54 55 180 55q113 0 153 -50q59 54 178 54q92 0 138 -27l116 27v-676q0 -19 13 -26.5t54 -8.5v-12h-281v12q60 2 60 35v377h-179v-377
q0 -33 58 -35v-12h-275zM763 457v84q-33 2 -54 21t-21 54q0 44 32 68q-21 19 -50 19q-38 0 -57 -19q-29 -29 -29 -130v-97h179zM430 492q0 18 2 50h-4q-34 0 -56 21t-22 57q0 40 29 67q-15 12 -48 12q-31 0 -48 -17q-32 -32 -32 -124v-101h179v35z" />
    <glyph glyph-name="f_b" unicode="fb" horiz-adv-x="944" 
d="M430 541q-33 2 -54 21t-21 54q0 44 32 68q-21 19 -50 19q-38 0 -57 -19q-29 -29 -29 -130v-97h179v84zM664 12q88 0 88 231q0 82 -25 132.5t-72 50.5q-30 0 -71 -28v-324q32 -62 80 -62zM344 0h-314v12q41 1 54 8.5t13 26.5v375h-87v19l87 18v33q0 121 51 173
q58 58 182 58q92 0 138 -27l116 27v-309q67 58 149 58q87 0 134.5 -64t47.5 -160q0 -114 -61 -185t-164 -71q-101 0 -166 42l-75 -56h-21l2 98v348h-179v-377q0 -18 18 -25.5t75 -9.5v-12z" />
    <glyph glyph-name="f_h" unicode="fh" horiz-adv-x="956" 
d="M430 541q-33 2 -54 21t-21 54q0 44 32 68q-21 19 -50 19q-38 0 -57 -19q-29 -29 -29 -130v-97h179v84zM651 0h-281v12q60 2 60 35v377h-179v-377q0 -33 58 -35v-12h-279v12q41 1 54 8.5t13 26.5v375h-87v19l87 18v33q0 121 51 173q58 58 182 58q92 0 138 -27l116 27v-352
q32 45 78.5 71.5t94.5 26.5q128 0 128 -149v-273q0 -19 13 -26.5t55 -8.5v-12h-272v12q50 1 50 35v272q0 83 -67 83q-39 0 -80 -51v-304q0 -19 13 -26.5t54 -8.5v-12z" />
    <glyph glyph-name="f_j" unicode="fj" horiz-adv-x="653" 
d="M344 0h-314v12q41 1 54 8.5t13 26.5v375h-87v19l87 18v27q0 122 51 174q63 63 194 63q215 0 215 -115q0 -36 -22 -59t-58 -23t-60 20t-24 55q0 46 40 70q-28 32 -77 32q-52 0 -74 -22q-17 -17 -24 -45t-7 -84v-95h138l185 9v-441q0 -70 -13 -107t-45 -69
q-21 -21 -65.5 -35t-91.5 -14q-74 0 -113.5 26t-39.5 65q0 34 20.5 54.5t53.5 20.5t54.5 -20.5t21.5 -51.5q0 -26 -6 -39.5t-24 -27.5q21 -7 26 -7q70 0 70 117v487h-171v-377q0 -18 18 -25.5t75 -9.5v-12z" />
    <glyph glyph-name="f_k" unicode="fk" horiz-adv-x="929" 
d="M430 541q-33 2 -54 21t-21 54q0 44 32 68q-21 19 -50 19q-38 0 -57 -19q-29 -29 -29 -130v-97h179v84zM651 0h-281v12q60 2 60 35v377h-179v-377q0 -33 58 -35v-12h-279v12q41 1 54 8.5t13 26.5v375h-87v19l87 18v33q0 121 51 173q58 58 182 58q92 0 138 -27l116 27v-512
l127 139q34 41 25.5 63.5t-56.5 38.5v12h231v-12q-93 -24 -186 -117l-17 -17l162 -245q25 -38 39.5 -47.5t50.5 -13.5v-12h-279v12q32 2 37.5 11.5t-11.5 38.5l-95 155l-28 -30v-140q0 -19 13 -26.5t54 -8.5v-12z" />
    <glyph glyph-name="f_f_b" unicode="ffb" horiz-adv-x="1277" 
d="M677 0h-310v12q34 1 48.5 9t14.5 26v377h-179v-377q0 -33 58 -35v-12h-279v12q41 1 54 8.5t13 26.5v375h-87v19l87 18v35q0 113 55 170q54 55 180 55q113 0 153 -50q59 54 178 54q92 0 138 -27l116 27v-309q67 58 149 58q87 0 134.5 -64t47.5 -160q0 -114 -61 -185
t-164 -71q-101 0 -166 42l-75 -56h-21l2 98v348h-179v-377q0 -18 18 -25.5t75 -9.5v-12zM997 12q88 0 88 231q0 82 -25 132.5t-72 50.5q-30 0 -71 -28v-324q32 -62 80 -62zM763 457v84q-33 2 -54 21t-21 54q0 44 32 68q-21 19 -50 19q-38 0 -57 -19q-29 -29 -29 -130v-97
h179zM430 492q0 18 2 50h-4q-34 0 -56 21t-22 57q0 40 29 67q-15 12 -48 12q-31 0 -48 -17q-32 -32 -32 -124v-101h179v35z" />
    <glyph glyph-name="f_f_h" unicode="ffh" horiz-adv-x="1289" 
d="M367 0v12q34 1 48.5 9t14.5 26v377h-179v-377q0 -33 58 -35v-12h-279v12q41 1 54 8.5t13 26.5v375h-87v19l87 18v35q0 113 55 170q54 55 180 55q113 0 153 -50q59 54 178 54q92 0 138 -27l116 27v-352q32 45 78.5 71.5t94.5 26.5q128 0 128 -149v-273q0 -19 13 -26.5
t55 -8.5v-12h-272v12q50 1 50 35v272q0 83 -67 83q-39 0 -80 -51v-304q0 -19 13 -26.5t54 -8.5v-12h-281v12q60 2 60 35v377h-179v-377q0 -33 58 -35v-12h-275zM763 457v84q-33 2 -54 21t-21 54q0 44 32 68q-21 19 -50 19q-38 0 -57 -19q-29 -29 -29 -130v-97h179zM430 492
q0 18 2 50h-4q-34 0 -56 21t-22 57q0 40 29 67q-15 12 -48 12q-31 0 -48 -17q-32 -32 -32 -124v-101h179v35z" />
    <glyph glyph-name="f_f_j" unicode="ffj" horiz-adv-x="986" 
d="M677 0h-310v12q34 1 48.5 9t14.5 26v377h-179v-377q0 -33 58 -35v-12h-279v12q41 1 54 8.5t13 26.5v375h-87v19l87 18v35q0 113 55 170q54 55 180 55q116 0 155 -53q64 57 188 57q215 0 215 -115q0 -36 -22 -59t-58 -23t-60 20t-24 55q0 46 40 70q-28 32 -77 32
q-52 0 -74 -22q-17 -17 -24 -45t-7 -84v-95h138l185 9v-441q0 -70 -13 -107t-45 -69q-21 -21 -65.5 -35t-91.5 -14q-74 0 -113.5 26t-39.5 65q0 34 20.5 54.5t53.5 20.5t54.5 -20.5t21.5 -51.5q0 -26 -6 -39.5t-24 -27.5q21 -7 26 -7q70 0 70 117v487h-171v-377
q0 -18 18 -25.5t75 -9.5v-12zM430 486q0 30 3 56h-5q-34 0 -56 21t-22 57q0 40 29 67q-15 12 -48 12q-31 0 -48 -17q-32 -32 -32 -124v-101h179v29z" />
    <glyph glyph-name="f_f_k" unicode="ffk" horiz-adv-x="1262" 
d="M367 0v12q34 1 48.5 9t14.5 26v377h-179v-377q0 -33 58 -35v-12h-279v12q41 1 54 8.5t13 26.5v375h-87v19l87 18v35q0 113 55 170q54 55 180 55q113 0 153 -50q59 54 178 54q92 0 138 -27l116 27v-512l127 139q34 41 25.5 63.5t-56.5 38.5v12h231v-12q-93 -24 -186 -117
l-17 -17l162 -245q25 -38 39.5 -47.5t50.5 -13.5v-12h-279v12q32 2 37.5 11.5t-11.5 38.5l-95 155l-28 -30v-140q0 -19 13 -26.5t54 -8.5v-12h-281v12q60 2 60 35v377h-179v-377q0 -33 58 -35v-12h-275zM763 457v84q-33 2 -54 21t-21 54q0 44 32 68q-21 19 -50 19
q-38 0 -57 -19q-29 -29 -29 -130v-97h179zM430 492q0 18 2 50h-4q-34 0 -56 21t-22 57q0 40 29 67q-15 12 -48 12q-31 0 -48 -17q-32 -32 -32 -124v-101h179v35z" />
    <glyph glyph-name=".notdef" horiz-adv-x="500" 
d="M0 -200v1000h500v-1000h-500zM71 750l179 -390l179 390h-358zM50 -76l172 376l-172 376v-752zM450 676l-172 -376l172 -376v752zM250 240l-179 -390h358z" />
    <glyph glyph-name=".null" horiz-adv-x="0" 
 />
    <glyph glyph-name="nonmarkingreturn" horiz-adv-x="333" 
 />
    <glyph glyph-name="space" unicode=" " horiz-adv-x="194" 
 />
    <glyph glyph-name="exclam" unicode="!" horiz-adv-x="290" 
d="M138 211q-9 68 -42.5 221t-33.5 190q0 48 21.5 75.5t62.5 27.5q40 0 62 -27.5t22 -75.5q0 -37 -33.5 -190t-42.5 -221h-16zM144 -17q-38 0 -63.5 25t-25.5 61t26.5 62t64.5 26t63.5 -25t25.5 -61t-26.5 -62t-64.5 -26z" />
    <glyph glyph-name="quotedbl" unicode="&#x22;" horiz-adv-x="474" 
d="M284 403l-15 6l21 164q10 76 18 96q16 40 59 40q29 0 51.5 -20t22.5 -48q0 -11 -5 -24q-8 -21 -53 -81zM84 403l-15 6l21 164q10 76 18 96q16 40 59 40q29 0 51.5 -20t22.5 -48q0 -11 -5 -24q-8 -21 -53 -81z" />
    <glyph glyph-name="numbersign" unicode="#" horiz-adv-x="708" 
d="M321 710l-44 -225h213l45 225h26l-44 -225h157v-21h-161l-50 -253h168v-21h-172l-46 -232h-26l45 232h-213l-46 -232h-26l45 232h-154v21h158l50 253h-164v21h168l45 225h26zM273 464l-50 -253h213l50 253h-213z" />
    <glyph glyph-name="dollar" unicode="$" horiz-adv-x="566" 
d="M268 -65v84q-110 2 -174.5 42t-64.5 103q0 32 23 58.5t63 26.5q36 0 58 -23t22 -56q0 -55 -57 -81q30 -44 130 -50v225q-8 4 -25 10t-21 7q-41 15 -68.5 28.5t-56.5 35t-43.5 52t-14.5 69.5q0 82 67.5 130.5t171.5 50.5v73h26v-74q95 -3 155.5 -39t60.5 -91
q0 -31 -20.5 -54t-54.5 -23q-39 0 -60 21.5t-21 54.5q0 20 12 40t30 30q-34 37 -102 41v-207q16 -7 41 -15q42 -15 71 -29.5t59.5 -37.5t46 -55.5t15.5 -74.5q0 -82 -59.5 -133.5t-183.5 -54.5v-84h-26zM408 135q0 44 -25 69t-89 50v-215q54 2 84 27t30 69zM175 534
q0 -35 24 -58.5t79 -46.5v198q-44 -2 -73.5 -26t-29.5 -67z" />
    <glyph glyph-name="percent" unicode="%" horiz-adv-x="816" 
d="M605 15q59 0 100.5 74t41.5 150q0 49 -18 75t-46 26q-57 0 -98.5 -80.5t-41.5 -163.5q0 -81 62 -81zM579 -14q-67 0 -105.5 40t-38.5 112q0 92 65 165t152 73q57 0 89 -35.5t32 -100.5q0 -35 -11.5 -76.5t-33.5 -82.5t-61.5 -68t-87.5 -27zM359 544q0 20 -3 35
q-60 16 -108 49q-40 -29 -66.5 -96.5t-26.5 -130.5q0 -81 62 -81q59 0 100.5 74t41.5 150zM264 681q73 0 103 -56q46 -22 106 -22q46 0 86 22t86 71h32l-492 -722h-49l473 657l-3 3q-74 -64 -179 -64q-24 0 -44 4q2 -18 2 -29q0 -35 -11.5 -76.5t-33.5 -82.5t-61.5 -68
t-87.5 -27q-67 0 -105.5 40t-38.5 112q0 92 65 165t152 73z" />
    <glyph glyph-name="ampersand" unicode="&#x26;" horiz-adv-x="773" 
d="M344 395q56 57 56 153q0 51 -21 79.5t-58 28.5q-31 0 -51 -25t-20 -70q0 -41 18 -75t76 -91zM220 327q-48 -56 -48 -132q0 -65 38 -102t99 -37q63 0 106 55q-28 45 -84.5 107t-110.5 109zM509 228q52 142 151 142q41 0 66.5 -24.5t25.5 -62.5q0 -32 -23 -55.5t-55 -23.5
t-54 23t-22 56q0 5 1 9l-4 3q-42 -26 -72 -83q53 -86 90.5 -114.5t75.5 -28.5q25 0 63 24l8 -9q-85 -101 -176 -101q-51 0 -86 23t-73 89q-72 -112 -210 -112q-82 0 -134.5 45.5t-52.5 121.5q0 135 175 192q-80 75 -80 156q0 75 54.5 124.5t148.5 49.5q91 0 140 -42.5
t49 -100.5q0 -50 -37 -90.5t-110 -64.5q103 -85 141 -146z" />
    <glyph glyph-name="quotesingle" unicode="'" horiz-adv-x="274" 
d="M84 403l-15 6l21 164q10 76 18 96q16 40 59 40q29 0 51.5 -20t22.5 -48q0 -11 -5 -24q-8 -21 -53 -81z" />
    <glyph glyph-name="parenleft" unicode="(" horiz-adv-x="383" 
d="M411 -166q-61 21 -120.5 61t-111.5 97.5t-84 137.5t-32 169t32 169t84 137.5t111.5 97.5t120.5 61l6 -12q-103 -70 -154.5 -176.5t-51.5 -276.5t51.5 -276.5t154.5 -176.5z" />
    <glyph glyph-name="parenright" unicode=")" horiz-adv-x="383" 
d="M-28 -166l-6 12q103 70 154.5 176.5t51.5 276.5t-51.5 276.5t-154.5 176.5l6 12q61 -21 120.5 -61t111.5 -97.5t84 -137.5t32 -169t-32 -169t-84 -137.5t-111.5 -97.5t-120.5 -61z" />
    <glyph glyph-name="asterisk" unicode="*" horiz-adv-x="423" 
d="M268 373q-44 -14 -59 29q-5 14 4 133l-10 3q-62 -98 -74 -107q-19 -13 -35.5 -9.5t-28.5 19.5q-28 38 9 66q12 9 126 36v10q-114 27 -126 36q-37 28 -9 66q12 16 28.5 19.5t35.5 -9.5q19 -15 74 -108l10 3q-9 118 -4 132q15 43 59 29q20 -6 29 -22t2 -37q-7 -20 -82 -104
l6 -8q108 45 124 45q22 0 34 -13.5t12 -33.5t-12 -33.5t-34 -13.5t-123 44l-6 -9q74 -83 81 -104t-2 -37t-29 -22z" />
    <glyph glyph-name="plus" unicode="+" horiz-adv-x="556" 
d="M54 317v22h212v211h26v-211h210v-22h-210v-214h-26v214h-212z" />
    <glyph glyph-name="comma" unicode="," horiz-adv-x="270" 
d="M37 -164l-6 12q56 29 87.5 71t35.5 74l-4 2q-15 -6 -31 -6q-29 0 -52 22t-23 59q0 36 23.5 61.5t60.5 25.5q45 0 71.5 -31t26.5 -80q0 -70 -51.5 -128.5t-137.5 -81.5z" />
    <glyph glyph-name="hyphen" unicode="-" horiz-adv-x="366" 
d="M55 240v41h256v-41h-256z" />
    <glyph glyph-name="period" unicode="." horiz-adv-x="270" 
d="M134 -17q-38 0 -63.5 25t-25.5 61t26.5 62t64.5 26t63.5 -25t25.5 -61t-26.5 -62t-64.5 -26z" />
    <glyph glyph-name="slash" unicode="/" horiz-adv-x="457" 
d="M8 -215l212 480l208 481h30l-212 -481l-208 -480h-30z" />
    <glyph glyph-name="zero" unicode="0" horiz-adv-x="651" 
d="M324 -14q-134 0 -210 95.5t-76 248.5t78.5 252t210.5 99q133 0 209.5 -97t76.5 -250q0 -152 -78.5 -250t-210.5 -98zM330 4q64 0 84.5 76t20.5 252q0 172 -24 251t-90 79q-64 0 -85 -77t-21 -253q0 -171 24.5 -249.5t90.5 -78.5z" />
    <glyph glyph-name="one" unicode="1" horiz-adv-x="442" 
d="M34 0v13q65 1 89 14t24 42v489q0 48 -20 65t-95 21v11l277 22v-608q0 -29 23 -42t89 -14v-13h-387z" />
    <glyph glyph-name="two" unicode="2" horiz-adv-x="584" 
d="M39 0v97l130 92q117 83 159.5 146.5t42.5 163.5q0 90 -29.5 126.5t-82.5 36.5q-35 0 -66.5 -13t-46.5 -40q76 -29 76 -94q0 -38 -24.5 -65.5t-66.5 -27.5t-67.5 27.5t-25.5 68.5q0 76 69.5 119.5t175.5 43.5q127 0 190.5 -50t63.5 -131q0 -73 -64 -136t-229 -162
l-107 -64v-4h277q43 0 62 18t47 85l13 -1l-3 -236h-494z" />
    <glyph glyph-name="three" unicode="3" horiz-adv-x="574" 
d="M259 -14q-107 0 -170 39t-63 106q0 42 26.5 69.5t66.5 27.5t63.5 -25t23.5 -60q0 -61 -63 -93q12 -19 45.5 -32.5t71.5 -13.5q58 0 90.5 43.5t32.5 129.5q0 76 -37 114t-128 38h-34v22h34q83 0 115.5 41t32.5 126q0 74 -28 109t-91 35q-25 0 -52.5 -12.5t-40.5 -29.5
q66 -25 66 -90q0 -35 -23 -60t-64 -25q-38 0 -62.5 24t-24.5 64q0 67 65.5 107.5t165.5 40.5q121 0 188 -42.5t67 -117.5q0 -67 -53.5 -111t-179.5 -65v-4q122 -4 186 -49t64 -119q0 -91 -74 -139t-216 -48z" />
    <glyph glyph-name="four" unicode="4" horiz-adv-x="613" 
d="M587 186h-118v-122q0 -26 17.5 -38t61.5 -13v-13h-325v13q84 1 84 51v122h-292v46l342 435h112v-385h118v-96zM303 555l-210 -273h214v273h-4z" />
    <glyph glyph-name="five" unicode="5" horiz-adv-x="559" 
d="M261 -14q-92 0 -156.5 35.5t-64.5 101.5q0 41 26 68.5t67 27.5q39 0 60.5 -24t21.5 -58q0 -67 -65 -92q36 -41 103 -41q69 0 92.5 52.5t23.5 154.5q0 90 -35 126.5t-96 36.5q-75 0 -141 -56l-19 9l9 340h431l-24 -139h-387l-5 -185q33 27 82.5 43.5t100.5 16.5
q129 0 189.5 -53t60.5 -144q0 -98 -71 -159t-203 -61z" />
    <glyph glyph-name="six" unicode="6" horiz-adv-x="596" 
d="M306 -14q-124 0 -197.5 75.5t-73.5 211.5q0 166 109 275q64 64 151.5 96t237.5 40v-12q-83 -19 -139 -44.5t-94 -64.5t-60 -86t-39 -118l4 -2q44 87 163 87q93 0 145.5 -57t52.5 -148q0 -115 -66.5 -184t-193.5 -69zM308 3q95 0 95 212q0 197 -92 197q-51 0 -84 -54
t-33 -143q0 -212 114 -212z" />
    <glyph glyph-name="seven" unicode="7" horiz-adv-x="547" 
d="M108 -10v9l354 529h-294q-34 0 -51 -19.5t-48 -88.5l-13 1l8 246h477v-12l-159 -353l-130 -312h-144z" />
    <glyph glyph-name="eight" unicode="8" horiz-adv-x="582" 
d="M32 153q0 106 143 158q-128 64 -128 174q0 85 71 140.5t168 55.5q108 0 173.5 -43t65.5 -119q0 -44 -36.5 -81t-95.5 -60q72 -31 114.5 -74.5t42.5 -111.5q0 -89 -75.5 -147.5t-180.5 -58.5q-128 0 -195 43.5t-67 123.5zM251 279l-49 19q-39 -46 -39 -138
q0 -62 35.5 -109t100.5 -47q54 0 82.5 32t28.5 93q0 53 -43 88t-116 62zM346 397l15 -6q33 44 33 128q0 58 -28.5 100t-86.5 42q-47 0 -71.5 -30t-24.5 -84q0 -29 13 -52.5t39 -41.5t50.5 -30t60.5 -26z" />
    <glyph glyph-name="nine" unicode="9" horiz-adv-x="596" 
d="M68 -21v12q83 19 139 45t93.5 66t59.5 87.5t40 118.5l-4 2q-44 -87 -154 -87q-94 0 -150.5 57.5t-56.5 147.5q0 114 68 183.5t195 69.5q130 0 199 -76t69 -221q0 -158 -108 -266q-65 -65 -153 -97.5t-237 -41.5zM290 255q51 0 84 54t33 143q0 212 -105 212
q-50 0 -77 -53.5t-27 -158.5q0 -197 92 -197z" />
    <glyph glyph-name="colon" unicode=":" horiz-adv-x="290" 
d="M144 247q-38 0 -63.5 25t-25.5 61t26.5 62t64.5 26t63.5 -25t25.5 -61t-26.5 -62t-64.5 -26zM144 -17q-38 0 -63.5 25t-25.5 61t26.5 62t64.5 26t63.5 -25t25.5 -61t-26.5 -62t-64.5 -26z" />
    <glyph glyph-name="semicolon" unicode=";" horiz-adv-x="290" 
d="M144 247q-38 0 -63.5 25t-25.5 61t26.5 62t64.5 26t63.5 -25t25.5 -61t-26.5 -62t-64.5 -26zM47 -164l-6 12q56 29 87.5 71t35.5 74l-4 2q-15 -6 -31 -6q-29 0 -52 22t-23 59q0 36 23.5 61.5t60.5 25.5q45 0 71.5 -31t26.5 -80q0 -70 -51.5 -128.5t-137.5 -81.5z" />
    <glyph glyph-name="less" unicode="&#x3c;" horiz-adv-x="555" 
d="M84 315v24l388 213v-30l-357 -195l357 -193v-31z" />
    <glyph glyph-name="equal" unicode="=" horiz-adv-x="556" 
d="M59 217v22h438v-22h-438zM59 415v22h438v-22h-438z" />
    <glyph glyph-name="greater" unicode="&#x3e;" horiz-adv-x="555" 
d="M471 316l-388 -213v30l357 195l-357 193v31l388 -212v-24z" />
    <glyph glyph-name="question" unicode="?" horiz-adv-x="530" 
d="M221 211v141q71 28 98 74.5t27 119.5q0 159 -124 159q-36 0 -65.5 -13.5t-42.5 -35.5q37 -10 56 -35t19 -57q0 -36 -23.5 -63t-63.5 -27q-41 0 -67.5 27.5t-26.5 68.5q0 69 67.5 111t169.5 42q125 0 193 -49.5t68 -131.5q0 -155 -258 -205v-126h-27zM233 -17
q-38 0 -63.5 25t-25.5 61t26.5 62t64.5 26t63.5 -25t25.5 -61t-26.5 -62t-64.5 -26z" />
    <glyph glyph-name="at" unicode="@" horiz-adv-x="909" 
d="M469 -146q-179 0 -293.5 112t-114.5 295q0 184 120 303.5t307 119.5q150 0 255 -96.5t105 -241.5q0 -68 -22.5 -124.5t-58.5 -91.5t-78.5 -54t-84.5 -19q-65 0 -88.5 16.5t-34.5 56.5l-4 2q-33 -35 -61 -51t-65 -16q-58 0 -92 41.5t-34 108.5q0 102 73 184.5t163 82.5
q70 0 97 -53h5l11 43l130 8l-53 -145l-40 -139q-36 -114 25 -114q63 0 126.5 75t63.5 188q0 135 -98 227.5t-245 92.5q-175 0 -287.5 -115.5t-112.5 -283.5q0 -171 106.5 -281.5t284.5 -110.5q136 0 249 82l11 -14q-120 -88 -265 -88zM416 120q25 0 56 31l76 253
q-19 44 -55 44q-51 0 -95 -81t-44 -168q0 -79 62 -79z" />
    <glyph glyph-name="A" unicode="A" horiz-adv-x="722" 
d="M456 89l-62 175h-225l-36 -96q-29 -76 -13 -110t85 -44v-14h-238v14q49 13 82 50.5t62 112.5l204 534h88l228 -620q15 -39 34.5 -53.5t73.5 -23.5v-14h-381v14q71 4 91.5 20.5t6.5 54.5zM176 284h211l-101 283h-5z" />
    <glyph glyph-name="B" unicode="B" horiz-adv-x="726" 
d="M29 0v14q59 2 79.5 13t20.5 38v567q0 27 -20.5 38.5t-79.5 13.5v13h352q80 0 137 -14.5t86 -39.5t41.5 -52.5t12.5 -59.5q0 -62 -53 -105.5t-167 -55.5v-4q120 -3 182 -50t62 -122q0 -85 -68 -139.5t-224 -54.5h-361zM297 374h60q76 0 104.5 39t28.5 115
q0 73 -28.5 112.5t-107.5 39.5h-57v-306zM297 18h72q38 0 64.5 9t41.5 23t23 38.5t10.5 48t2.5 58.5q0 162 -153 162h-61v-339z" />
    <glyph glyph-name="C" unicode="C" horiz-adv-x="727" 
d="M386 -17q-164 0 -256 93.5t-92 258.5q0 173 110 276t269 103q102 0 187 -47l47 52h12v-273h-16q-60 130 -113 189.5t-134 59.5q-83 0 -131 -89t-48 -247q0 -160 61.5 -247t160.5 -87q78 0 132 37t92 120l19 -9q-83 -190 -300 -190z" />
    <glyph glyph-name="D" unicode="D" horiz-adv-x="789" 
d="M29 0v14q59 2 79.5 13t20.5 38v567q0 27 -20.5 38.5t-79.5 13.5v13h339q187 0 284 -90.5t97 -244.5q0 -74 -20.5 -137t-62 -114.5t-113.5 -81t-167 -29.5h-357zM297 18h58q118 0 166 72t48 260q0 184 -53 257t-167 73h-52v-662z" />
    <glyph glyph-name="E" unicode="E" horiz-adv-x="729" 
d="M29 0v14q59 2 79.5 13t20.5 38v567q0 27 -20.5 38.5t-79.5 13.5v13h611l3 -247l-16 -2l-36.5 76t-31.5 57t-33.5 46t-36 29t-45 19.5t-55.5 4.5h-92v-310h33q60 0 97 31.5t57 103.5h13v-289h-13q-20 73 -57 105t-97 32h-33v-335h85q56 0 93 11t68.5 43.5t53.5 73
t56 117.5l16 -2l-5 -261h-635z" />
    <glyph glyph-name="F" unicode="F" horiz-adv-x="680" 
d="M29 0v14q59 2 79.5 13t20.5 38v567q0 27 -20.5 38.5t-79.5 13.5v13h610l6 -250l-16 -2q-34 72 -54.5 108.5t-49.5 69.5t-62 45t-80 12h-86v-321h33q60 0 96 31t56 103h13v-288h-13q-20 73 -56 104.5t-96 31.5h-33v-276q0 -29 19 -40t85 -13v-12h-372z" />
    <glyph glyph-name="G" unicode="G" horiz-adv-x="764" 
d="M399 -17q-161 0 -260 97.5t-99 266.5q0 164 106.5 265.5t268.5 101.5q105 0 188 -47l52 52h12v-253h-16q-58 118 -112.5 173.5t-129.5 55.5q-82 0 -134 -88.5t-52 -257.5t53.5 -258t139.5 -89q66 0 105 30v227q0 27 -23 40t-83 15v13h339v-13q-42 -2 -58 -13t-16 -41
v-205q-124 -72 -281 -72z" />
    <glyph glyph-name="H" unicode="H" horiz-adv-x="854" 
d="M29 0v14q60 2 80 13t20 38v567q0 28 -20.5 39t-79.5 13v13h361v-13q-50 -2 -71.5 -13.5t-21.5 -38.5v-260h260v260q0 27 -22 38.5t-71 13.5v13h361v-13q-60 -2 -80 -13t-20 -39v-567q0 -28 20 -38.5t80 -12.5v-14h-361v14q49 2 71 13t22 38v287h-260v-287q0 -27 21.5 -38
t71.5 -13v-14h-361z" />
    <glyph glyph-name="I" unicode="I" horiz-adv-x="447" 
d="M37 0v14q61 2 82 13t21 38v567q0 27 -21 38.5t-82 13.5v13h373v-13q-61 -2 -82 -13.5t-21 -38.5v-567q0 -27 21 -38t82 -13v-14h-373z" />
    <glyph glyph-name="J" unicode="J" horiz-adv-x="599" 
d="M244 -17q-114 0 -171 43.5t-57 112.5q0 46 28 76.5t69 30.5t69 -27t28 -67q0 -44 -29 -72.5t-78 -29.5q35 -43 101 -43q63 0 90.5 50.5t27.5 162.5v412q0 27 -23.5 38.5t-78.5 13.5v13h365v-13q-55 -2 -75 -13.5t-20 -38.5v-394q0 -255 -246 -255z" />
    <glyph glyph-name="K" unicode="K" horiz-adv-x="766" 
d="M287 311l215 237q32 35 43.5 62.5t-3 48t-59.5 25.5v13h271v-13q-64 -14 -125 -56t-136 -123l-48 -52l227 -331q30 -43 42.5 -59t35 -31t51.5 -18v-14h-348v14q52 4 59.5 22.5t-21.5 61.5l-157 235l-47 -51v-217q0 -27 21.5 -38t71.5 -13v-14h-361v14q60 2 80 13t20 38
v567q0 28 -20.5 39t-79.5 13v13h361v-13q-50 -2 -71.5 -13.5t-21.5 -38.5v-321z" />
    <glyph glyph-name="L" unicode="L" horiz-adv-x="678" 
d="M19 0v14q59 2 79.5 13t20.5 38v567q0 27 -20.5 38.5t-79.5 13.5v13h367v-13q-60 -2 -79.5 -13t-19.5 -39v-614h45q76 0 123 24t82 74t84 156l16 -1l-9 -271h-609z" />
    <glyph glyph-name="M" unicode="M" horiz-adv-x="1014" 
d="M28 0v14q69 8 96.5 44t27.5 114v406q0 47 -31 76t-93 30v13h305l198 -494h5l177 494h272v-13q-59 -2 -79.5 -13.5t-20.5 -38.5v-567q0 -27 20.5 -38t79.5 -13v-14h-359v14q49 2 71 13t22 38v562h-5l-226 -627h-46l-259 627h-6v-455q0 -77 29.5 -113t103.5 -45v-14h-282z
" />
    <glyph glyph-name="N" unicode="N" horiz-adv-x="819" 
d="M625 -9l-447 569h-1v-388q0 -77 31.5 -114t107.5 -44v-14h-288v14q69 8 96.5 44t27.5 114v394q0 49 -31 81.5t-93 36.5v13h254l376 -481h1v310q0 75 -33 112.5t-108 45.5v13h290v-13q-69 -10 -96.5 -46t-27.5 -112v-535h-59z" />
    <glyph glyph-name="O" unicode="O" 
d="M391 -17q-158 0 -254.5 98.5t-96.5 265.5q0 166 98 266.5t253 100.5q159 0 255.5 -98t96.5 -265t-98 -267.5t-254 -100.5zM396 2q87 0 125.5 83t38.5 264q0 178 -42.5 262t-130.5 84q-86 0 -125 -83t-39 -263q0 -179 42.5 -263t130.5 -84z" />
    <glyph glyph-name="P" unicode="P" horiz-adv-x="697" 
d="M29 0v14q59 2 79.5 13t20.5 38v567q0 27 -20.5 38.5t-79.5 13.5v13h323q170 0 241 -51.5t71 -147.5q0 -92 -74 -146.5t-240 -54.5h-53v-232q0 -29 19 -40t87 -13v-12h-374zM297 314h42q87 0 120 43t33 141q0 88 -34 135t-115 47h-46v-366z" />
    <glyph glyph-name="Q" unicode="Q" 
d="M396 7q87 0 125.5 81.5t38.5 262.5q0 178 -42.5 261t-130.5 83q-87 0 -125.5 -82t-38.5 -262q0 -179 42.5 -261.5t130.5 -82.5zM442 -9q34 -13 70 -42.5t59.5 -57t51.5 -49t51 -21.5q30 0 30 27q0 12 -16.5 27t-33 34.5t-16.5 40.5q0 29 20 50t51 21q33 0 54 -24.5
t21 -59.5q0 -66 -61.5 -114t-148.5 -48q-46 0 -87.5 23t-66.5 50t-57.5 50t-63.5 23q-38 0 -68.5 -17t-70.5 -57l-11 11q83 107 178 135q-132 19 -209.5 113t-77.5 243q0 165 98 265t253 100q159 0 255.5 -97.5t96.5 -263.5q0 -152 -82.5 -249t-218.5 -113z" />
    <glyph glyph-name="R" unicode="R" horiz-adv-x="750" 
d="M297 362h57q87 0 115.5 32t28.5 123q0 82 -34.5 122.5t-118.5 40.5h-48v-318zM297 346v-281q0 -27 22 -38t72 -13v-14h-362v14q59 2 79.5 13t20.5 38v567q0 27 -20.5 38.5t-79.5 13.5v13h361q147 0 213.5 -47t66.5 -122q0 -68 -49 -111t-163 -59v-3q103 -2 147 -42
t53 -114l7 -93q8 -57 25.5 -73t77.5 -18v-13q-48 -6 -107 -6q-52 0 -84 7t-50 24t-24.5 37.5t-9.5 56.5l-7 84q-7 80 -36.5 110.5t-110.5 30.5h-42z" />
    <glyph glyph-name="S" unicode="S" horiz-adv-x="595" 
d="M49 -17v257h16q55 -111 121 -172.5t134 -61.5q61 0 95.5 34.5t34.5 84.5q0 54 -42.5 89t-133.5 65q-50 16 -82 30.5t-67 38.5t-52 59t-17 81q0 100 67 161t176 61q83 0 156 -42l48 48h12v-230h-16q-56 107 -107 156t-107 49q-48 0 -83.5 -30t-35.5 -81q0 -53 43 -86.5
t137 -62.5q43 -14 73 -27.5t62.5 -37t49.5 -59t17 -81.5q0 -100 -62 -169.5t-183 -69.5q-43 0 -95 13.5t-90 34.5l-57 -52h-12z" />
    <glyph glyph-name="T" unicode="T" horiz-adv-x="745" 
d="M175 0v14q65 1 89.5 12.5t24.5 38.5v615h-15q-55 0 -102 -53.5t-109 -170.5l-16 2l6 239h640l5 -239l-16 -2q-62 117 -109 170.5t-102 53.5h-14v-615q0 -27 24.5 -38.5t89.5 -12.5v-14h-396z" />
    <glyph glyph-name="U" unicode="U" horiz-adv-x="821" 
d="M418 -17q-147 0 -222 60t-75 189v400q0 27 -20.5 38.5t-79.5 13.5v13h360v-13q-48 -2 -70 -13.5t-22 -38.5v-420q0 -194 182 -194q80 0 124 44q57 57 57 169v295q0 76 -32.5 113t-107.5 45v13h292v-13q-69 -10 -97 -46t-28 -112v-295q0 -248 -261 -248z" />
    <glyph glyph-name="V" unicode="V" horiz-adv-x="724" 
d="M338 -10l-237 597q-20 51 -42.5 70.5t-74.5 26.5v13h379v-13q-70 -3 -88.5 -21.5t-2.5 -60.5l171 -438h6l147 391q23 58 5 88t-85 41v13h239v-13q-55 -11 -83.5 -43t-62.5 -120l-205 -531h-66z" />
    <glyph glyph-name="W" unicode="W" horiz-adv-x="1057" 
d="M530 502l-30 85q-18 52 -38.5 73.5t-63.5 23.5v13h348v-13q-59 -3 -76 -21.5t-3 -60.5l137 -414h6l114 367q19 58 2.5 88t-74.5 41v13h229v-13q-57 -11 -85 -43t-57 -120l-167 -531h-64l-167 481l-166 -481h-66l-204 597q-17 51 -38 70.5t-73 26.5v13h349v-13
q-55 -3 -69.5 -21.5t-0.5 -60.5l137 -416h6z" />
    <glyph glyph-name="X" unicode="X" horiz-adv-x="730" 
d="M415 416l104 140q40 52 30.5 86.5t-72.5 41.5v13h253v-13q-57 -9 -101 -44.5t-106 -117.5l-93 -123l198 -303q20 -29 31 -41.5t36 -24t65 -16.5v-14h-375v14q60 3 74.5 20.5t-10.5 59.5l-127 205l-114 -158q-41 -55 -31.5 -88t70.5 -39v-14h-257v14q65 8 107 40.5
t107 120.5l104 141l-184 282q-30 46 -53 61.5t-79 24.5v13h370v-13q-59 -3 -73 -22t11 -59z" />
    <glyph glyph-name="Y" unicode="Y" horiz-adv-x="701" 
d="M421 325l128 231q32 58 21 85t-70 43v13h231v-13q-52 -9 -90 -43t-85 -119l-121 -217v-240q0 -27 21 -38t82 -13v-14h-373v14q61 2 82 13t21 38v219l-174 318q-22 39 -45.5 55.5t-68.5 26.5v13h375v-13q-71 -4 -87.5 -25t9.5 -61z" />
    <glyph glyph-name="Z" unicode="Z" horiz-adv-x="679" 
d="M29 0l-1 14l428 663h-158q-56 0 -107.5 -53.5t-119.5 -175.5l-16 2l12 247h578l1 -14l-428 -663h183q55 0 105 57.5t122 185.5l16 -2l-9 -261h-606z" />
    <glyph glyph-name="bracketleft" unicode="[" horiz-adv-x="374" 
d="M92 -165v929h305v-20h-167v-889h167v-20h-305z" />
    <glyph glyph-name="backslash" unicode="\" horiz-adv-x="457" 
d="M418 -215l-208 480l-212 481h30l208 -481l212 -480h-30z" />
    <glyph glyph-name="bracketright" unicode="]" horiz-adv-x="374" 
d="M-23 -165v20h167v889h-167v20h305v-929h-305z" />
    <glyph glyph-name="asciicircum" unicode="^" horiz-adv-x="361" 
d="M17 504l155 263h17l155 -263h-24l-139 126l-140 -126h-24z" />
    <glyph glyph-name="underscore" unicode="_" horiz-adv-x="440" 
d="M-2 0v31h444v-31h-444z" />
    <glyph glyph-name="grave" unicode="`" horiz-adv-x="238" 
d="M169 524l-76 82q-44 47 -57 65t-13 35q0 24 20 41t47 17q30 0 44 -24t28 -92l26 -124h-19z" />
    <glyph glyph-name="a" unicode="a" horiz-adv-x="527" 
d="M171 -5q-70 0 -107 37t-37 86q0 30 17.5 59.5t47.5 46.5q42 23 130.5 30.5t92.5 8.5v90q0 51 -16 73.5t-53 22.5q-39 0 -67 -18q28 -25 28 -60t-19.5 -54.5t-56.5 -19.5q-32 0 -54 21t-22 52q0 99 217 99q100 0 148 -39.5t48 -125.5v-215q0 -37 16.5 -45.5t55.5 8.5
l6 -11q-63 -45 -114 -45q-50 0 -74.5 18.5t-33.5 57.5h-4q-67 -77 -149 -77zM253 57q40 0 62 36v150q-74 -8 -100 -31t-26 -79q0 -35 17.5 -55.5t46.5 -20.5z" />
    <glyph glyph-name="b" unicode="b" horiz-adv-x="577" 
d="M61 -22l2 98v568q0 25 -14 36.5t-57 12.5v12l225 12v-303q67 58 149 58q87 0 134.5 -64t47.5 -160q0 -114 -61 -185t-164 -71q-101 0 -166 42l-75 -56h-21zM297 12q88 0 88 231q0 82 -25 132.5t-72 50.5q-30 0 -71 -28v-324q32 -62 80 -62z" />
    <glyph glyph-name="c" unicode="c" horiz-adv-x="496" 
d="M272 -8q-115 0 -180.5 61.5t-65.5 171.5q0 115 71 181t184 66q98 0 146.5 -34.5t48.5 -79.5q0 -37 -20.5 -59t-57.5 -22q-40 0 -61.5 22t-21.5 54q0 23 11.5 41.5t27.5 25.5q-18 34 -68 34q-46 0 -71.5 -59.5t-25.5 -159.5q0 -85 34 -143t102 -58q39 0 79 21.5t67 59.5
l11 -7q-75 -116 -210 -116z" />
    <glyph glyph-name="d" unicode="d" horiz-adv-x="579" 
d="M228 -8q-94 0 -148 63t-54 167t62.5 177t173.5 73q48 0 94 -16v188q0 25 -14 36.5t-57 12.5v12l225 12v-659q0 -24 14.5 -37t53.5 -13v-8l-220 -4v60q-52 -64 -130 -64zM296 47q32 0 60 23v336q-26 46 -79 46q-41 0 -65 -59t-24 -155q0 -82 28 -136.5t80 -54.5z" />
    <glyph glyph-name="e" unicode="e" horiz-adv-x="509" 
d="M272 -8q-112 0 -179 60.5t-67 172.5q0 114 69.5 180.5t175.5 66.5t162 -63t51 -168h-296v-14v-2q0 -190 147 -190q78 0 136 80l11 -7q-75 -116 -210 -116zM265 452q-71 0 -77 -191h142q10 88 -7 139.5t-58 51.5z" />
    <glyph glyph-name="f" unicode="f" horiz-adv-x="377" 
d="M30 0v12q41 1 54 8.5t13 26.5v375h-87v19l87 18v40q0 118 52 171t170 53q80 0 120.5 -25.5t40.5 -68.5q0 -35 -19 -55.5t-55 -20.5q-35 0 -56.5 19.5t-21.5 56.5q0 16 8.5 36.5t17.5 30.5q-16 7 -35 7q-26 0 -41 -15q-27 -27 -27 -132v-99h124v-33h-124v-377
q0 -18 18 -25.5t75 -9.5v-12h-314z" />
    <glyph glyph-name="g" unicode="g" horiz-adv-x="487" 
d="M253 -182q65 0 104 25.5t39 71.5q0 29 -24 43.5t-83 14.5h-146q-37 -28 -37 -66q0 -47 36.5 -68t110.5 -21zM251 176q35 0 47.5 31t12.5 107q0 69 -15.5 103t-53.5 34q-36 0 -48 -30.5t-12 -106.5q0 -74 15.5 -106t53.5 -32zM247 469q50 0 94 -14q19 43 49.5 70.5
t68.5 27.5q31 0 47.5 -16.5t16.5 -42.5q0 -22 -14 -37.5t-39 -15.5q-21 0 -38 17t-17 43q-34 -15 -56 -53q98 -40 98 -132q0 -72 -58.5 -115t-151.5 -43q-31 0 -64 5q-54 -15 -54 -44q0 -30 83 -30h117q165 0 165 -120q0 -70 -75 -119.5t-192 -49.5q-95 0 -156 26t-61 69
q0 32 25 51t84 28v2q-42 14 -63 41.5t-21 58.5q0 27 31.5 55t85.5 39q-116 36 -116 142q0 71 59 114t152 43z" />
    <glyph glyph-name="h" unicode="h" horiz-adv-x="606" 
d="M13 0v12q40 1 53.5 8.5t13.5 26.5v597q0 25 -14 36.5t-57 12.5v12l225 12v-346q32 45 78.5 71.5t94.5 26.5q128 0 128 -149v-273q0 -19 13 -26.5t55 -8.5v-12h-272v12q50 1 50 35v272q0 83 -67 83q-39 0 -80 -51v-304q0 -34 50 -35v-12h-271z" />
    <glyph glyph-name="i" unicode="i" horiz-adv-x="325" 
d="M168 534q-40 0 -64.5 22.5t-24.5 63.5t24.5 66t64.5 25q41 0 65 -23.5t24 -63.5q0 -41 -24 -65.5t-65 -24.5zM21 0v12q42 1 57 8.5t15 26.5v346q0 24 -15.5 36t-56.5 13v12l226 12v-419q0 -19 13 -26.5t54 -8.5v-12h-293z" />
    <glyph glyph-name="j" unicode="j" horiz-adv-x="321" 
d="M168 534q-40 0 -64.5 22.5t-24.5 63.5t24.5 66t64.5 25q41 0 65 -23.5t24 -63.5q0 -41 -24 -65.5t-65 -24.5zM32 -200q-74 0 -113.5 26t-39.5 65q0 34 20.5 54.5t53.5 20.5t54.5 -20.5t21.5 -51.5q0 -26 -6 -39.5t-24 -27.5q21 -7 26 -7q70 0 70 117v456q0 26 -17 37
t-64 12v12l233 12v-441q0 -70 -13 -107t-45 -69q-21 -21 -65.5 -35t-91.5 -14z" />
    <glyph glyph-name="k" unicode="k" horiz-adv-x="579" 
d="M234 187v-140q0 -34 50 -35v-12h-271v12q40 1 53.5 8.5t13.5 26.5v597q0 25 -14 36.5t-57 12.5v12l225 12v-506l127 139q34 41 25.5 63.5t-56.5 38.5v12h231v-12q-93 -24 -186 -117l-17 -17l162 -245q25 -38 39.5 -47.5t50.5 -13.5v-12h-279v12q32 2 37.5 11.5
t-11.5 38.5l-95 155z" />
    <glyph glyph-name="l" unicode="l" horiz-adv-x="311" 
d="M13 0v12q40 1 53.5 8.5t13.5 26.5v597q0 25 -14 36.5t-57 12.5v12l225 12v-670q0 -19 13 -26.5t54 -8.5v-12h-288z" />
    <glyph glyph-name="m" unicode="m" horiz-adv-x="897" 
d="M335 0v12q26 1 35.5 8.5t9.5 26.5v272q0 83 -67 83q-14 0 -27 -7.5t-20.5 -15.5t-23.5 -28v-304q0 -19 9 -26.5t35 -8.5v-12h-266v12q41 1 54.5 8.5t13.5 26.5v346q0 25 -14 36.5t-54 12.5v12l220 12v-95q70 98 165 98q108 0 125 -104q31 46 76.5 75t90.5 29
q130 0 130 -149v-273q0 -19 13 -26.5t54 -8.5v-12h-266v12q26 1 35.5 9t9.5 26v272q0 83 -63 83q-34 0 -77 -57q1 -12 1 -25v-273q0 -18 9.5 -26t34.5 -9v-12h-243z" />
    <glyph glyph-name="n" unicode="n" horiz-adv-x="610" 
d="M20 0v12q41 1 54.5 8.5t13.5 26.5v346q0 25 -14 36.5t-54 12.5v12l220 12v-95q32 45 78.5 71.5t94.5 26.5q127 0 127 -149v-273q0 -19 13 -26.5t54 -8.5v-12h-272v12q51 1 51 35v272q0 83 -64 83q-39 0 -80 -51v-304q0 -34 49 -35v-12h-271z" />
    <glyph glyph-name="o" unicode="o" horiz-adv-x="549" 
d="M275 -8q-119 0 -184 63t-65 176q0 112 67 176.5t182 64.5q118 0 183 -62.5t65 -174.5t-67 -177.5t-181 -65.5zM279 12q32 0 50.5 28.5t24.5 74t6 118.5q0 107 -20.5 163t-69.5 56q-47 0 -64 -54t-17 -165q0 -221 90 -221z" />
    <glyph glyph-name="p" unicode="p" horiz-adv-x="582" 
d="M5 -189v12q41 1 54 8.5t13 26.5v535q0 25 -14 36.5t-54 12.5v12l220 12v-59q77 65 146 65q88 0 137 -63.5t49 -172.5q0 -104 -57 -174t-157 -70q-66 0 -116 21v-155q0 -18 18 -25.5t75 -9.5v-12h-314zM311 12q83 0 83 218q0 190 -95 190q-33 0 -73 -27v-323
q29 -58 85 -58z" />
    <glyph glyph-name="q" unicode="q" horiz-adv-x="577" 
d="M267 -189v12q57 2 75 9.5t18 25.5v192q-67 -58 -149 -58q-87 0 -134.5 64t-47.5 160q0 113 61 184.5t164 71.5q101 0 166 -42l75 56h21l-2 -98v-530q0 -19 13 -26.5t54 -8.5v-12h-314zM289 38q30 0 71 28v324q-32 62 -80 62q-88 0 -88 -231q0 -81 25.5 -132t71.5 -51z
" />
    <glyph glyph-name="r" unicode="r" horiz-adv-x="476" 
d="M20 0v12q41 1 54.5 8.5t13.5 26.5v346q0 25 -14 36.5t-54 12.5v12l220 12v-94q23 45 60.5 71t79.5 26q45 0 70.5 -25t25.5 -65q0 -39 -22 -63.5t-57 -24.5q-39 0 -62 23t-23 55q0 19 8 45q-18 -2 -40.5 -19.5t-37.5 -42.5v-305q0 -18 18 -25.5t74 -9.5v-12h-314z" />
    <glyph glyph-name="s" unicode="s" horiz-adv-x="452" 
d="M34 -8v176h15q51 -80 96.5 -118t97.5 -38q35 0 54.5 18t19.5 50q0 33 -26 51.5t-106 42.5q-83 25 -117 55t-34 85q0 73 51.5 115.5t138.5 42.5q80 0 136 -37l30 37h12v-158h-15q-48 74 -83 106t-80 32q-32 0 -51 -19.5t-19 -53.5q0 -29 27 -45t80 -29q88 -21 130 -54.5
t42 -95.5q0 -71 -56.5 -117t-143.5 -46q-28 0 -83 13.5t-74 25.5l-30 -39h-12z" />
    <glyph glyph-name="t" unicode="t" horiz-adv-x="393" 
d="M242 -8q-68 0 -109.5 34t-41.5 111v285h-87v19l89 18v127l152 42v-171h141v-33h-141v-296q0 -43 13 -63t46 -20q46 0 73 64l13 -6q-21 -58 -55 -84.5t-93 -26.5z" />
    <glyph glyph-name="u" unicode="u" horiz-adv-x="601" 
d="M218 -8q-67 0 -104.5 38.5t-37.5 112.5v258q0 25 -14 36.5t-54 12.5v12l222 4v-319q0 -85 66 -85q41 0 76 47v292q0 24 -14.5 35.5t-53.5 12.5v12l222 5v-415q0 -22 13 -29.5t55 -9.5v-12h-220v89q-60 -97 -156 -97z" />
    <glyph glyph-name="v" unicode="v" horiz-adv-x="532" 
d="M217 -6l-154 397q-12 32 -28 43t-52 18v12h291v-12q-33 -4 -45.5 -10t-12.5 -20q0 -8 4 -19l105 -292h4l95 247q9 23 9 38q0 44 -77 56v12h201v-12q-71 -8 -96 -70l-155 -388h-89z" />
    <glyph glyph-name="w" unicode="w" horiz-adv-x="812" 
d="M406 322l-24 69q-11 32 -25.5 43t-47.5 18v12h281v-12q-31 -4 -43.5 -10.5t-12.5 -20.5q0 -7 3 -18l89 -286h4l73 231q10 32 10 50q0 23 -16 35.5t-53 18.5v12h196v-12q-78 -9 -99 -70l-129 -388h-94l-102 298l-112 -298h-92l-149 397q-12 32 -28 43t-52 18v12h286v-12
q-30 -4 -42 -10t-12 -20q0 -7 4 -19l101 -289h4z" />
    <glyph glyph-name="x" unicode="x" horiz-adv-x="526" 
d="M310 285l64 80q33 44 25 61t-61 26v12h193v-12q-38 -7 -64 -24.5t-58 -55.5l-85 -101l133 -190q25 -34 41.5 -47.5t51.5 -21.5v-12h-283v12q41 4 48.5 16t-9.5 36l-85 130l-82 -101q-23 -28 -24 -44t15 -24t53 -13v-12h-198v12q39 7 64 22.5t53 48.5l105 125l-127 179
q-27 38 -42 49.5t-49 15.5v12h283v-12q-36 -5 -45.5 -15.5t4.5 -33.5z" />
    <glyph glyph-name="y" unicode="y" horiz-adv-x="516" 
d="M264 -25l-201 416q-16 33 -31 44t-52 17v12h294v-12q-41 -5 -52 -15t0 -34l114 -258l84 213q18 45 3 65.5t-69 28.5v12h201v-12q-71 -8 -97 -70l-182 -436q-61 -146 -161 -146q-48 0 -74.5 21.5t-26.5 61.5q0 28 19.5 50t52.5 22q29 0 49 -20.5t20 -50.5q0 -37 -27 -62
q40 3 71 35.5t59 103.5z" />
    <glyph glyph-name="z" unicode="z" horiz-adv-x="501" 
d="M25 0l-2 16l297 428h-85q-46 0 -83.5 -33t-90.5 -130l-17 2l11 181h426l2 -16l-298 -428h94q48 0 82 34.5t95 138.5l17 -2l-11 -191h-437z" />
    <glyph glyph-name="braceleft" unicode="{" horiz-adv-x="401" 
d="M434 -159q-274 0 -274 185q0 27 10 80t10 68q0 44 -9.5 67.5t-44 39.5t-103.5 20v16q69 5 103.5 19.5t44 37t9.5 66.5q0 15 -10 66t-10 77q0 92 66.5 134t207.5 47v-13q-19 -1 -35 -4t-28 -8.5l-21.5 -9.5t-16.5 -14t-11.5 -15t-7.5 -19.5t-4.5 -19.5t-2 -24t-0.5 -24.5
v-27.5q0 -13 3.5 -51.5t3.5 -62.5q0 -77 -48 -112t-177 -48v-5q125 -10 175 -48t50 -115q0 -24 -3.5 -65t-3.5 -54v-28t0.5 -24.5t2 -24t4.5 -20.5t7.5 -20t11.5 -15.5t16.5 -14.5l21.5 -9.5t28 -8.5t35 -4v-14z" />
    <glyph glyph-name="bar" unicode="|" horiz-adv-x="306" 
d="M140 -215v961h26v-961h-26z" />
    <glyph glyph-name="braceright" unicode="}" horiz-adv-x="401" 
d="M-33 -159v14q19 1 35 4t28 8.5l21.5 9.5t16.5 14.5t11.5 15.5t7.5 20t4.5 20.5t2 24t0.5 24.5v28q0 13 -3.5 54t-3.5 65q0 77 50 115t175 48v5q-129 13 -177 48t-48 112q0 24 3.5 62.5t3.5 51.5v27.5t-0.5 24.5t-2 24t-4.5 19.5t-7.5 19.5t-11.5 15t-16.5 14l-21.5 9.5
t-28 8.5t-35 4v13q141 -5 207.5 -47t66.5 -134q0 -26 -10 -77t-10 -66q0 -44 9.5 -66.5t44 -37t103.5 -19.5v-16q-69 -4 -103.5 -20t-44 -39.5t-9.5 -67.5q0 -15 10 -68t10 -80q0 -185 -274 -185z" />
    <glyph glyph-name="asciitilde" unicode="~" horiz-adv-x="406" 
d="M36 268q5 80 29 115t71 35q30 0 91 -28.5t77 -28.5q19 0 29.5 12.5t20.5 47.5h16q-5 -80 -29 -115t-71 -35q-30 0 -91 28.5t-77 28.5q-19 0 -29.5 -12.5t-20.5 -47.5h-16z" />
    <glyph glyph-name="uni00A0" unicode="&#xa0;" horiz-adv-x="194" 
 />
    <glyph glyph-name="exclamdown" unicode="&#xa1;" horiz-adv-x="290" 
d="M144 551q-38 0 -63.5 25t-25.5 61t26.5 62t64.5 26t63.5 -25t25.5 -61t-26.5 -62t-64.5 -26zM144 -17q-40 0 -62 27.5t-22 75.5q0 37 33.5 190t42.5 221h16q9 -68 42.5 -221t33.5 -190q0 -48 -21.5 -75.5t-62.5 -27.5z" />
    <glyph glyph-name="cent" unicode="&#xa2;" horiz-adv-x="561" 
d="M303 -87v79q-114 4 -180.5 66.5t-66.5 166.5q0 108 69 174.5t178 71.5v69h26v-68q97 -2 148.5 -41.5t51.5 -83.5q0 -35 -20 -57t-54 -22q-40 0 -60.5 22t-20.5 54q0 23 11.5 41.5t27.5 25.5q-26 42 -84 43v-417q17 -3 36 -3q44 0 85.5 25.5t70.5 65.5l11 -7
q-77 -120 -203 -125v-80h-26zM219 235q0 -152 84 -189v405q-42 -9 -63 -59.5t-21 -156.5z" />
    <glyph glyph-name="sterling" unicode="&#xa3;" horiz-adv-x="618" 
d="M478 354l-1 -21h-137q6 -28 6 -44q0 -95 -107 -151q142 -20 206 -20t92.5 19t40.5 76l17 -1q-3 -228 -162 -228q-99 0 -218 120q-26 -63 -54 -91.5t-70 -28.5q-33 0 -51.5 19t-18.5 48q0 41 40 67.5t99 26.5q15 0 43 -2q6 15 6 35q0 19 -6.5 41.5t-12 35.5t-20.5 41
t-19 37h-102l1 21h90q-26 57 -26 111q0 99 73 157.5t195 58.5q84 0 143 -41.5t59 -106.5q0 -40 -23 -67t-60 -27q-42 0 -67 23.5t-25 66.5q0 64 69 90q-40 43 -103 43q-46 0 -74.5 -30.5t-28.5 -95.5q0 -33 10 -63.5t28 -65.5t24 -53h144z" />
    <glyph glyph-name="yen" unicode="&#xa5;" horiz-adv-x="694" 
d="M52 312v21h183l-130 242q-21 38 -43.5 53.5t-66.5 25.5v13h364v-13q-69 -4 -82.5 -23.5t10.5 -59.5l118 -233l93 172q21 39 27.5 63.5t-4 39.5t-25 22.5t-47.5 17.5v14h224v-13q-48 -9 -81 -41t-72 -107l-90 -173h184v-21h-195l-5 -10v-66h200v-21h-200v-144
q0 -27 18.5 -41.5t80.5 -16.5v-13h-361v13q62 2 80.5 16.5t18.5 41.5v144h-199v21h199v67l-5 9h-194z" />
    <glyph glyph-name="brokenbar" unicode="&#xa6;" horiz-adv-x="306" 
d="M166 337h-26v409h26v-409zM140 194h26v-409h-26v409z" />
    <glyph glyph-name="section" unicode="&#xa7;" horiz-adv-x="562" 
d="M47 233q0 50 36 89t98 55v2q-110 46 -110 131q0 80 62 125.5t158 45.5q82 0 141 -27.5t59 -81.5q0 -32 -19.5 -54t-50.5 -22q-33 0 -52.5 20.5t-19.5 49.5q0 44 35 67q-26 28 -91 28q-47 0 -74.5 -23t-27.5 -62q0 -16 6.5 -29t15.5 -22t30.5 -19.5t38 -17.5t51.5 -20
q102 -37 142 -69.5t40 -90.5q0 -99 -127 -148v-2q58 -29 80.5 -57t22.5 -73q0 -83 -60.5 -129.5t-163.5 -46.5q-97 0 -158 31.5t-61 89.5q0 31 20.5 54.5t56.5 23.5q35 0 54.5 -21t19.5 -51q0 -47 -48 -72q37 -35 123 -35q54 0 80 26t26 65q0 36 -35 60t-124 56
q-45 16 -70.5 27.5t-52.5 29.5t-39 42t-12 55zM365 170q50 26 50 69q0 34 -25 53t-94 45l-90 31q-57 -18 -57 -70q0 -20 12.5 -36t40 -29.5t47.5 -21t58 -20.5q33 -10 58 -21z" />
    <glyph glyph-name="dieresis" unicode="&#xa8;" horiz-adv-x="417" 
d="M317 529q-36 0 -59 23.5t-23 58.5q0 36 23 60t59 24t59 -24t23 -60q0 -35 -23 -58.5t-59 -23.5zM100 529q-36 0 -59 23.5t-23 58.5q0 36 23 60t59 24t59 -24t23 -60q0 -35 -23 -58.5t-59 -23.5z" />
    <glyph glyph-name="copyright" unicode="&#xa9;" horiz-adv-x="834" 
d="M417 -34q-162 0 -272.5 110t-110.5 273q0 161 110.5 271.5t272.5 110.5t272.5 -110.5t110.5 -271.5q0 -163 -110.5 -273t-272.5 -110zM417 -17q154 0 258.5 106.5t104.5 259.5t-104.5 259t-258.5 106t-258.5 -106t-104.5 -259t104.5 -259.5t258.5 -106.5zM419 149
q-94 0 -146 50.5t-52 145.5t62.5 152t151.5 57q62 0 100 -27l24 29h12v-156h-16q-57 139 -129 139q-47 0 -72.5 -47t-25.5 -134t34 -134t85 -47q84 0 123 91l16 -7q-48 -112 -167 -112z" />
    <glyph glyph-name="ordfeminine" unicode="&#xaa;" horiz-adv-x="453" 
d="M142 338q-55 0 -84.5 25t-29.5 66q0 57 49 84q31 17 101 23.5t74 7.5v72q0 35 -11 49.5t-40 14.5q-36 0 -57 -13q21 -18 21 -45q0 -56 -57 -56q-23 0 -40 16.5t-17 39.5q0 76 169 76q77 0 114 -29t37 -94v-162q0 -54 56 -30l5 -10q-49 -34 -90 -34q-70 0 -81 57h-4
q-50 -58 -115 -58zM204 388q32 0 48 25v113q-57 -7 -77.5 -24t-20.5 -59q0 -26 14 -40.5t36 -14.5z" />
    <glyph glyph-name="guillemotleft" unicode="&#xab;" horiz-adv-x="519" 
d="M468 26l-201 168q-25 21 -25 32t25 32l201 168l12 -9l-112 -191l112 -192zM259 26l-201 168q-25 21 -25 32t25 32l201 168l12 -9l-112 -191l112 -192z" />
    <glyph glyph-name="registered" unicode="&#xae;" horiz-adv-x="385" 
d="M191 423q-65 0 -109 44t-44 111t43.5 110t109.5 43q68 0 111.5 -43t43.5 -110t-44 -111t-111 -44zM191 435q62 0 101 40.5t39 102.5q0 61 -39 101t-101 40t-100 -39.5t-38 -101.5t38 -102.5t100 -40.5zM177 587h17q18 0 24 8t6 28q0 18 -7 25t-25 7h-15v-68zM177 579v-58
q0 -13 21 -13v-7h-83v7q23 0 23 13v123q0 11 -23 11v8h80q72 0 72 -39q0 -33 -47 -39v-3q24 -4 32 -10.5t10 -22.5l2 -22q1 -18 23 -18v-7q-12 -3 -29 -3q-34 0 -35 31l-1 18q-1 17 -7.5 24t-21.5 7h-16z" />
    <glyph glyph-name="macron" unicode="&#xaf;" horiz-adv-x="321" 
d="M7 554v51h308v-51h-308z" />
    <glyph glyph-name="degree" unicode="&#xb0;" horiz-adv-x="396" 
d="M199 423q-76 0 -122 40t-46 108q0 67 47 108.5t121 41.5q75 0 120.5 -40t45.5 -107q0 -68 -46.5 -109.5t-119.5 -41.5zM201 445q38 0 53 32t15 96q0 126 -73 126q-39 0 -53.5 -31t-14.5 -95q0 -128 73 -128z" />
    <glyph glyph-name="plusminus" unicode="&#xb1;" horiz-adv-x="530" 
d="M59 314v22h194v193h26v-193h192v-22h-192v-196h-26v196h-194zM59 0v22h412v-22h-412z" />
    <glyph glyph-name="acute" unicode="&#xb4;" horiz-adv-x="238" 
d="M50 524l26 124q14 68 28 92t44 24q27 0 47 -17t20 -41q0 -17 -13 -35t-57 -65l-76 -82h-19z" />
    <glyph glyph-name="paragraph" unicode="&#xb6;" horiz-adv-x="678" 
d="M381 -100v276q-146 3 -236 68t-90 178q0 110 85 177.5t239 67.5h263v-13q-75 -2 -95 -11t-20 -37v-706h-26v747h-93v-747h-27z" />
    <glyph glyph-name="periodcentered" unicode="&#xb7;" horiz-adv-x="270" 
d="M134 231q-38 0 -63.5 25t-25.5 61t26.5 62t64.5 26t63.5 -25t25.5 -61t-26.5 -62t-64.5 -26z" />
    <glyph glyph-name="cedilla" unicode="&#xb8;" horiz-adv-x="282" 
d="M112 -251q-60 0 -103 16l8 17q47 -11 76 -11q54 0 54 45q0 22 -21.5 35.5t-59.5 13.5q-11 0 -33 -4l-6 9l131 127h26l-63 -61l2 -3q60 -3 91 -30t31 -61q0 -42 -35 -67.5t-98 -25.5z" />
    <glyph glyph-name="ordmasculine" unicode="&#xba;" horiz-adv-x="460" 
d="M230 337q-92 0 -142 47.5t-50 131.5t51.5 132.5t140.5 48.5q91 0 141.5 -47t50.5 -131t-51.5 -133t-140.5 -49zM233 355q38 0 50.5 39t12.5 124q0 81 -15 121t-54 40q-38 0 -50.5 -38t-12.5 -123q0 -82 15 -122.5t54 -40.5z" />
    <glyph glyph-name="guillemotright" unicode="&#xbb;" horiz-adv-x="519" 
d="M260 25l-12 9l112 191l-112 192l12 8l201 -168q25 -21 25 -32t-25 -32zM51 25l-12 9l112 191l-112 192l12 8l201 -168q25 -21 25 -32t-25 -32z" />
    <glyph glyph-name="questiondown" unicode="&#xbf;" horiz-adv-x="530" 
d="M295 551q-38 0 -63.5 25t-25.5 61t26.5 62t64.5 26t63.5 -25t25.5 -61t-26.5 -62t-64.5 -26zM285 -15q-125 0 -193 49.5t-68 131.5q0 155 258 205v126h27v-141q-71 -28 -98 -74.5t-27 -119.5q0 -159 124 -159q36 0 65.5 13.5t42.5 35.5q-37 10 -56 35t-19 57
q0 36 23.5 63t63.5 27q41 0 67.5 -27.5t26.5 -68.5q0 -69 -67.5 -111t-169.5 -42z" />
    <glyph glyph-name="Agrave" unicode="&#xc0;" horiz-adv-x="722" 
d="M456 89l-62 175h-225l-36 -96q-29 -76 -13 -110t85 -44v-14h-238v14q49 13 82 50.5t62 112.5l204 534h88l228 -620q15 -39 34.5 -53.5t73.5 -23.5v-14h-381v14q71 4 91.5 20.5t6.5 54.5zM176 284h211l-101 283h-5zM411 764l-76 82q-44 47 -57 65t-13 35q0 24 20 41t47 17
q30 0 44 -24t28 -92l26 -124h-19z" />
    <glyph glyph-name="Aacute" unicode="&#xc1;" horiz-adv-x="722" 
d="M456 89l-62 175h-225l-36 -96q-29 -76 -13 -110t85 -44v-14h-238v14q49 13 82 50.5t62 112.5l204 534h88l228 -620q15 -39 34.5 -53.5t73.5 -23.5v-14h-381v14q71 4 91.5 20.5t6.5 54.5zM176 284h211l-101 283h-5zM322 764l26 124q14 68 28 92t44 24q27 0 47 -17t20 -41
q0 -17 -13 -35t-57 -65l-76 -82h-19z" />
    <glyph glyph-name="Acircumflex" unicode="&#xc2;" horiz-adv-x="722" 
d="M456 89l-62 175h-225l-36 -96q-29 -76 -13 -110t85 -44v-14h-238v14q49 13 82 50.5t62 112.5l204 534h88l228 -620q15 -39 34.5 -53.5t73.5 -23.5v-14h-381v14q71 4 91.5 20.5t6.5 54.5zM176 284h211l-101 283h-5zM201 754l149 213h13l141 -213h-16l-135 86l-136 -86h-16
z" />
    <glyph glyph-name="Atilde" unicode="&#xc3;" horiz-adv-x="722" 
d="M456 89l-62 175h-225l-36 -96q-29 -76 -13 -110t85 -44v-14h-238v14q49 13 82 50.5t62 112.5l204 534h88l228 -620q15 -39 34.5 -53.5t73.5 -23.5v-14h-381v14q71 4 91.5 20.5t6.5 54.5zM176 284h211l-101 283h-5zM194 765q5 80 29 115t71 35q30 0 91 -28.5t77 -28.5
q19 0 29.5 12.5t20.5 47.5h16q-5 -80 -29 -115t-71 -35q-30 0 -91 28.5t-77 28.5q-19 0 -29.5 -12.5t-20.5 -47.5h-16z" />
    <glyph glyph-name="Adieresis" unicode="&#xc4;" horiz-adv-x="722" 
d="M456 89l-62 175h-225l-36 -96q-29 -76 -13 -110t85 -44v-14h-238v14q49 13 82 50.5t62 112.5l204 534h88l228 -620q15 -39 34.5 -53.5t73.5 -23.5v-14h-381v14q71 4 91.5 20.5t6.5 54.5zM176 284h211l-101 283h-5zM464 769q-36 0 -59 23.5t-23 58.5q0 36 23 60t59 24
t59 -24t23 -60q0 -35 -23 -58.5t-59 -23.5zM247 769q-36 0 -59 23.5t-23 58.5q0 36 23 60t59 24t59 -24t23 -60q0 -35 -23 -58.5t-59 -23.5z" />
    <glyph glyph-name="Aring" unicode="&#xc5;" horiz-adv-x="722" 
d="M358 710q46 0 46 93t-50 93q-46 0 -46 -93t50 -93zM169 264l-36 -96q-29 -76 -13 -110t85 -44v-14h-238v14q49 13 82 50.5t62 112.5l200 523q-41 10 -63 37.5t-22 66.5q0 49 35.5 79.5t94.5 30.5q61 0 95.5 -30t34.5 -79q0 -37 -21 -64.5t-59 -38.5l225 -611
q15 -39 34.5 -53.5t73.5 -23.5v-14h-381v14q71 4 91.5 20.5t6.5 54.5l-62 175h-225zM387 284l-101 283h-5l-105 -283h211z" />
    <glyph glyph-name="AE" unicode="&#xc6;" horiz-adv-x="1080" 
d="M239 277l-74 -118q-35 -56 -35 -88q0 -44 71 -57v-14h-236v14q96 26 184 163l273 432q14 22 14 34q0 19 -28 28t-92 13v13h675l3 -247l-16 -2l-36.5 76t-31.5 57t-33.5 46t-36 29t-45 19.5t-55.5 4.5h-92v-310h33q60 0 97 31.5t57 103.5h13v-289h-13q-20 73 -57 105
t-97 32h-33v-335h85q56 0 93 11t68.5 43.5t53.5 73t56 117.5l16 -2l-5 -261h-635v14q59 2 79.5 13t20.5 38v212h-241zM480 297v363h-4l-225 -363h229z" />
    <glyph glyph-name="Ccedilla" unicode="&#xc7;" horiz-adv-x="727" 
d="M386 -17q-164 0 -256 93.5t-92 258.5q0 173 110 276t269 103q102 0 187 -47l47 52h12v-273h-16q-60 130 -113 189.5t-134 59.5q-83 0 -131 -89t-48 -247q0 -160 61.5 -247t160.5 -87q78 0 132 37t92 120l19 -9q-77 -174 -265 -188l-50 -49l2 -3q60 -3 91 -30t31 -61
q0 -42 -35 -67.5t-98 -25.5q-60 0 -103 16l8 17q47 -11 76 -11q54 0 54 45q0 22 -21.5 35.5t-59.5 13.5q-11 0 -33 -4l-6 9l116 113h-7z" />
    <glyph glyph-name="Egrave" unicode="&#xc8;" horiz-adv-x="729" 
d="M29 0v14q59 2 79.5 13t20.5 38v567q0 27 -20.5 38.5t-79.5 13.5v13h611l3 -247l-16 -2l-36.5 76t-31.5 57t-33.5 46t-36 29t-45 19.5t-55.5 4.5h-92v-310h33q60 0 97 31.5t57 103.5h13v-289h-13q-20 73 -57 105t-97 32h-33v-335h85q56 0 93 11t68.5 43.5t53.5 73
t56 117.5l16 -2l-5 -261h-635zM403 764l-76 82q-44 47 -57 65t-13 35q0 24 20 41t47 17q30 0 44 -24t28 -92l26 -124h-19z" />
    <glyph glyph-name="Eacute" unicode="&#xc9;" horiz-adv-x="729" 
d="M29 0v14q59 2 79.5 13t20.5 38v567q0 27 -20.5 38.5t-79.5 13.5v13h611l3 -247l-16 -2l-36.5 76t-31.5 57t-33.5 46t-36 29t-45 19.5t-55.5 4.5h-92v-310h33q60 0 97 31.5t57 103.5h13v-289h-13q-20 73 -57 105t-97 32h-33v-335h85q56 0 93 11t68.5 43.5t53.5 73
t56 117.5l16 -2l-5 -261h-635zM344 764l26 124q14 68 28 92t44 24q27 0 47 -17t20 -41q0 -17 -13 -35t-57 -65l-76 -82h-19z" />
    <glyph glyph-name="Ecircumflex" unicode="&#xca;" horiz-adv-x="729" 
d="M29 0v14q59 2 79.5 13t20.5 38v567q0 27 -20.5 38.5t-79.5 13.5v13h611l3 -247l-16 -2l-36.5 76t-31.5 57t-33.5 46t-36 29t-45 19.5t-55.5 4.5h-92v-310h33q60 0 97 31.5t57 103.5h13v-289h-13q-20 73 -57 105t-97 32h-33v-335h85q56 0 93 11t68.5 43.5t53.5 73
t56 117.5l16 -2l-5 -261h-635zM203 764l149 213h13l141 -213h-16l-135 86l-136 -86h-16z" />
    <glyph glyph-name="Edieresis" unicode="&#xcb;" horiz-adv-x="729" 
d="M29 0v14q59 2 79.5 13t20.5 38v567q0 27 -20.5 38.5t-79.5 13.5v13h611l3 -247l-16 -2l-36.5 76t-31.5 57t-33.5 46t-36 29t-45 19.5t-55.5 4.5h-92v-310h33q60 0 97 31.5t57 103.5h13v-289h-13q-20 73 -57 105t-97 32h-33v-335h85q56 0 93 11t68.5 43.5t53.5 73
t56 117.5l16 -2l-5 -261h-635zM478 769q-36 0 -59 23.5t-23 58.5q0 36 23 60t59 24t59 -24t23 -60q0 -35 -23 -58.5t-59 -23.5zM261 769q-36 0 -59 23.5t-23 58.5q0 36 23 60t59 24t59 -24t23 -60q0 -35 -23 -58.5t-59 -23.5z" />
    <glyph glyph-name="Igrave" unicode="&#xcc;" horiz-adv-x="447" 
d="M37 0v14q61 2 82 13t21 38v567q0 27 -21 38.5t-82 13.5v13h373v-13q-61 -2 -82 -13.5t-21 -38.5v-567q0 -27 21 -38t82 -13v-14h-373zM259 764l-76 82q-44 47 -57 65t-13 35q0 24 20 41t47 17q30 0 44 -24t28 -92l26 -124h-19z" />
    <glyph glyph-name="Iacute" unicode="&#xcd;" horiz-adv-x="447" 
d="M37 0v14q61 2 82 13t21 38v567q0 27 -21 38.5t-82 13.5v13h373v-13q-61 -2 -82 -13.5t-21 -38.5v-567q0 -27 21 -38t82 -13v-14h-373zM194 764l26 124q14 68 28 92t44 24q27 0 47 -17t20 -41q0 -17 -13 -35t-57 -65l-76 -82h-19z" />
    <glyph glyph-name="Icircumflex" unicode="&#xce;" horiz-adv-x="447" 
d="M37 0v14q61 2 82 13t21 38v567q0 27 -21 38.5t-82 13.5v13h373v-13q-61 -2 -82 -13.5t-21 -38.5v-567q0 -27 21 -38t82 -13v-14h-373zM72 764l149 213h13l141 -213h-16l-135 86l-136 -86h-16z" />
    <glyph glyph-name="Idieresis" unicode="&#xcf;" horiz-adv-x="447" 
d="M37 0v14q61 2 82 13t21 38v567q0 27 -21 38.5t-82 13.5v13h373v-13q-61 -2 -82 -13.5t-21 -38.5v-567q0 -27 21 -38t82 -13v-14h-373zM332 769q-36 0 -59 23.5t-23 58.5q0 36 23 60t59 24t59 -24t23 -60q0 -35 -23 -58.5t-59 -23.5zM115 769q-36 0 -59 23.5t-23 58.5
q0 36 23 60t59 24t59 -24t23 -60q0 -35 -23 -58.5t-59 -23.5z" />
    <glyph glyph-name="Eth" unicode="&#xd0;" horiz-adv-x="789" 
d="M29 0v14q59 2 79.5 13t20.5 38v285h-97v26h97v256q0 27 -20.5 38.5t-79.5 13.5v13h339q187 0 284 -90.5t97 -244.5q0 -74 -20.5 -137t-62 -114.5t-113.5 -81t-167 -29.5h-357zM297 18h58q118 0 166 72t48 260q0 184 -53 257t-167 73h-52v-304h137v-26h-137v-332z" />
    <glyph glyph-name="Ntilde" unicode="&#xd1;" horiz-adv-x="819" 
d="M625 -9l-447 569h-1v-388q0 -77 31.5 -114t107.5 -44v-14h-288v14q69 8 96.5 44t27.5 114v394q0 49 -31 81.5t-93 36.5v13h254l376 -481h1v310q0 75 -33 112.5t-108 45.5v13h290v-13q-69 -10 -96.5 -46t-27.5 -112v-535h-59zM272 765q5 80 29 115t71 35q30 0 91 -28.5
t77 -28.5q19 0 29.5 12.5t20.5 47.5h16q-5 -80 -29 -115t-71 -35q-30 0 -91 28.5t-77 28.5q-19 0 -29.5 -12.5t-20.5 -47.5h-16z" />
    <glyph glyph-name="Ograve" unicode="&#xd2;" 
d="M391 -17q-158 0 -254.5 98.5t-96.5 265.5q0 166 98 266.5t253 100.5q159 0 255.5 -98t96.5 -265t-98 -267.5t-254 -100.5zM396 2q87 0 125.5 83t38.5 264q0 178 -42.5 262t-130.5 84q-86 0 -125 -83t-39 -263q0 -179 42.5 -263t130.5 -84zM421 764l-76 82q-44 47 -57 65
t-13 35q0 24 20 41t47 17q30 0 44 -24t28 -92l26 -124h-19z" />
    <glyph glyph-name="Oacute" unicode="&#xd3;" 
d="M391 -17q-158 0 -254.5 98.5t-96.5 265.5q0 166 98 266.5t253 100.5q159 0 255.5 -98t96.5 -265t-98 -267.5t-254 -100.5zM396 2q87 0 125.5 83t38.5 264q0 178 -42.5 262t-130.5 84q-86 0 -125 -83t-39 -263q0 -179 42.5 -263t130.5 -84zM362 764l26 124q14 68 28 92
t44 24q27 0 47 -17t20 -41q0 -17 -13 -35t-57 -65l-76 -82h-19z" />
    <glyph glyph-name="Ocircumflex" unicode="&#xd4;" 
d="M391 -17q-158 0 -254.5 98.5t-96.5 265.5q0 166 98 266.5t253 100.5q159 0 255.5 -98t96.5 -265t-98 -267.5t-254 -100.5zM396 2q87 0 125.5 83t38.5 264q0 178 -42.5 262t-130.5 84q-86 0 -125 -83t-39 -263q0 -179 42.5 -263t130.5 -84zM240 764l149 213h13l141 -213
h-16l-135 86l-136 -86h-16z" />
    <glyph glyph-name="Otilde" unicode="&#xd5;" 
d="M391 -17q-158 0 -254.5 98.5t-96.5 265.5q0 166 98 266.5t253 100.5q159 0 255.5 -98t96.5 -265t-98 -267.5t-254 -100.5zM396 2q87 0 125.5 83t38.5 264q0 178 -42.5 262t-130.5 84q-86 0 -125 -83t-39 -263q0 -179 42.5 -263t130.5 -84zM224 765q5 80 29 115t71 35
q30 0 91 -28.5t77 -28.5q19 0 29.5 12.5t20.5 47.5h16q-5 -80 -29 -115t-71 -35q-30 0 -91 28.5t-77 28.5q-19 0 -29.5 -12.5t-20.5 -47.5h-16z" />
    <glyph glyph-name="Odieresis" unicode="&#xd6;" 
d="M391 -17q-158 0 -254.5 98.5t-96.5 265.5q0 166 98 266.5t253 100.5q159 0 255.5 -98t96.5 -265t-98 -267.5t-254 -100.5zM396 2q87 0 125.5 83t38.5 264q0 178 -42.5 262t-130.5 84q-86 0 -125 -83t-39 -263q0 -179 42.5 -263t130.5 -84zM500 769q-36 0 -59 23.5
t-23 58.5q0 36 23 60t59 24t59 -24t23 -60q0 -35 -23 -58.5t-59 -23.5zM283 769q-36 0 -59 23.5t-23 58.5q0 36 23 60t59 24t59 -24t23 -60q0 -35 -23 -58.5t-59 -23.5z" />
    <glyph glyph-name="multiply" unicode="&#xd7;" horiz-adv-x="556" 
d="M456 519l17 -17l-178 -178l178 -178l-17 -17l-178 178l-178 -178l-17 17l178 178l-178 178l17 17l178 -178z" />
    <glyph glyph-name="Oslash" unicode="&#xd8;" 
d="M391 -17q-135 0 -227 73l-77 -92h-33l91 109q-105 99 -105 274q0 166 98 266.5t253 100.5q135 0 228 -74l77 93h33l-91 -109q105 -100 105 -273q0 -167 -98 -267.5t-254 -100.5zM387 695q-86 0 -125 -83t-39 -263q0 -102 13 -168l304 366q-37 148 -153 148zM396 2
q87 0 125.5 83t38.5 264q0 100 -13 166l-305 -365q38 -148 154 -148z" />
    <glyph glyph-name="Ugrave" unicode="&#xd9;" horiz-adv-x="821" 
d="M418 -17q-147 0 -222 60t-75 189v400q0 27 -20.5 38.5t-79.5 13.5v13h360v-13q-48 -2 -70 -13.5t-22 -38.5v-420q0 -194 182 -194q80 0 124 44q57 57 57 169v295q0 76 -32.5 113t-107.5 45v13h292v-13q-69 -10 -97 -46t-28 -112v-295q0 -248 -261 -248zM453 764l-76 82
q-44 47 -57 65t-13 35q0 24 20 41t47 17q30 0 44 -24t28 -92l26 -124h-19z" />
    <glyph glyph-name="Uacute" unicode="&#xda;" horiz-adv-x="821" 
d="M418 -17q-147 0 -222 60t-75 189v400q0 27 -20.5 38.5t-79.5 13.5v13h360v-13q-48 -2 -70 -13.5t-22 -38.5v-420q0 -194 182 -194q80 0 124 44q57 57 57 169v295q0 76 -32.5 113t-107.5 45v13h292v-13q-69 -10 -97 -46t-28 -112v-295q0 -248 -261 -248zM402 764l26 124
q14 68 28 92t44 24q27 0 47 -17t20 -41q0 -17 -13 -35t-57 -65l-76 -82h-19z" />
    <glyph glyph-name="Ucircumflex" unicode="&#xdb;" horiz-adv-x="821" 
d="M418 -17q-147 0 -222 60t-75 189v400q0 27 -20.5 38.5t-79.5 13.5v13h360v-13q-48 -2 -70 -13.5t-22 -38.5v-420q0 -194 182 -194q80 0 124 44q57 57 57 169v295q0 76 -32.5 113t-107.5 45v13h292v-13q-69 -10 -97 -46t-28 -112v-295q0 -248 -261 -248zM295 764l149 213
h13l141 -213h-16l-135 86l-136 -86h-16z" />
    <glyph glyph-name="Udieresis" unicode="&#xdc;" horiz-adv-x="821" 
d="M418 -17q-147 0 -222 60t-75 189v400q0 27 -20.5 38.5t-79.5 13.5v13h360v-13q-48 -2 -70 -13.5t-22 -38.5v-420q0 -194 182 -194q80 0 124 44q57 57 57 169v295q0 76 -32.5 113t-107.5 45v13h292v-13q-69 -10 -97 -46t-28 -112v-295q0 -248 -261 -248zM539 769
q-36 0 -59 23.5t-23 58.5q0 36 23 60t59 24t59 -24t23 -60q0 -35 -23 -58.5t-59 -23.5zM322 769q-36 0 -59 23.5t-23 58.5q0 36 23 60t59 24t59 -24t23 -60q0 -35 -23 -58.5t-59 -23.5z" />
    <glyph glyph-name="Yacute" unicode="&#xdd;" horiz-adv-x="701" 
d="M421 325l128 231q32 58 21 85t-70 43v13h231v-13q-52 -9 -90 -43t-85 -119l-121 -217v-240q0 -27 21 -38t82 -13v-14h-373v14q61 2 82 13t21 38v219l-174 318q-22 39 -45.5 55.5t-68.5 26.5v13h375v-13q-71 -4 -87.5 -25t9.5 -61zM391 764l26 124q14 68 28 92t44 24
q27 0 47 -17t20 -41q0 -17 -13 -35t-57 -65l-76 -82h-19z" />
    <glyph glyph-name="Thorn" unicode="&#xde;" horiz-adv-x="697" 
d="M29 0v14q59 2 79.5 13t20.5 38v567q0 27 -20.5 38.5t-79.5 13.5v13h374v-11q-68 -2 -87 -13t-19 -40v-76h55q170 0 241 -51.5t71 -147.5q0 -92 -74 -146.5t-240 -54.5h-53v-92q0 -29 19 -40t87 -13v-12h-374zM297 174h42q87 0 120 43t33 141q0 88 -34 135t-115 47h-46
v-366z" />
    <glyph glyph-name="germandbls" unicode="&#xdf;" horiz-adv-x="665" 
d="M460 -8q-64 0 -110 26t-46 73q0 25 17 44t46 19q27 0 42.5 -18t15.5 -43q0 -32 -35 -56q9 -12 30.5 -19.5t43.5 -7.5q40 0 62 21.5t22 55.5q0 35 -24 60t-84 57q-70 37 -98 66.5t-28 66.5q0 31 13.5 52.5t49.5 49.5q37 29 48 59.5t11 89.5q0 115 -97 115q-45 0 -66.5 -31
t-21.5 -121v-551h-221v12q41 1 54 8.5t13 26.5v375h-87v19l87 18v35q0 125 59.5 177t187.5 52q111 0 169.5 -34t58.5 -90q0 -41 -22 -64t-77 -53q-43 -24 -57 -39t-14 -41q0 -20 25.5 -39.5t75.5 -45.5q74 -40 108.5 -74t34.5 -89q0 -70 -49.5 -116t-136.5 -46z" />
    <glyph glyph-name="agrave" unicode="&#xe0;" horiz-adv-x="527" 
d="M171 -5q-70 0 -107 37t-37 86q0 30 17.5 59.5t47.5 46.5q42 23 130.5 30.5t92.5 8.5v90q0 51 -16 73.5t-53 22.5q-39 0 -67 -18q28 -25 28 -60t-19.5 -54.5t-56.5 -19.5q-32 0 -54 21t-22 52q0 99 217 99q100 0 148 -39.5t48 -125.5v-215q0 -37 16.5 -45.5t55.5 8.5
l6 -11q-63 -45 -114 -45q-50 0 -74.5 18.5t-33.5 57.5h-4q-67 -77 -149 -77zM253 57q40 0 62 36v150q-74 -8 -100 -31t-26 -79q0 -35 17.5 -55.5t46.5 -20.5zM273 524l-76 82q-44 47 -57 65t-13 35q0 24 20 41t47 17q30 0 44 -24t28 -92l26 -124h-19z" />
    <glyph glyph-name="aacute" unicode="&#xe1;" horiz-adv-x="527" 
d="M171 -5q-70 0 -107 37t-37 86q0 30 17.5 59.5t47.5 46.5q42 23 130.5 30.5t92.5 8.5v90q0 51 -16 73.5t-53 22.5q-39 0 -67 -18q28 -25 28 -60t-19.5 -54.5t-56.5 -19.5q-32 0 -54 21t-22 52q0 99 217 99q100 0 148 -39.5t48 -125.5v-215q0 -37 16.5 -45.5t55.5 8.5
l6 -11q-63 -45 -114 -45q-50 0 -74.5 18.5t-33.5 57.5h-4q-67 -77 -149 -77zM253 57q40 0 62 36v150q-74 -8 -100 -31t-26 -79q0 -35 17.5 -55.5t46.5 -20.5zM244 524l26 124q14 68 28 92t44 24q27 0 47 -17t20 -41q0 -17 -13 -35t-57 -65l-76 -82h-19z" />
    <glyph glyph-name="acircumflex" unicode="&#xe2;" horiz-adv-x="527" 
d="M171 -5q-70 0 -107 37t-37 86q0 30 17.5 59.5t47.5 46.5q42 23 130.5 30.5t92.5 8.5v90q0 51 -16 73.5t-53 22.5q-39 0 -67 -18q28 -25 28 -60t-19.5 -54.5t-56.5 -19.5q-32 0 -54 21t-22 52q0 99 217 99q100 0 148 -39.5t48 -125.5v-215q0 -37 16.5 -45.5t55.5 8.5
l6 -11q-63 -45 -114 -45q-50 0 -74.5 18.5t-33.5 57.5h-4q-67 -77 -149 -77zM253 57q40 0 62 36v150q-74 -8 -100 -31t-26 -79q0 -35 17.5 -55.5t46.5 -20.5zM122 524l149 213h13l141 -213h-16l-135 86l-136 -86h-16z" />
    <glyph glyph-name="atilde" unicode="&#xe3;" horiz-adv-x="527" 
d="M171 -5q-70 0 -107 37t-37 86q0 30 17.5 59.5t47.5 46.5q42 23 130.5 30.5t92.5 8.5v90q0 51 -16 73.5t-53 22.5q-39 0 -67 -18q28 -25 28 -60t-19.5 -54.5t-56.5 -19.5q-32 0 -54 21t-22 52q0 99 217 99q100 0 148 -39.5t48 -125.5v-215q0 -37 16.5 -45.5t55.5 8.5
l6 -11q-63 -45 -114 -45q-50 0 -74.5 18.5t-33.5 57.5h-4q-67 -77 -149 -77zM253 57q40 0 62 36v150q-74 -8 -100 -31t-26 -79q0 -35 17.5 -55.5t46.5 -20.5zM108 525q5 80 29 115t71 35q30 0 91 -28.5t77 -28.5q19 0 29.5 12.5t20.5 47.5h16q-5 -80 -29 -115t-71 -35
q-30 0 -91 28.5t-77 28.5q-19 0 -29.5 -12.5t-20.5 -47.5h-16z" />
    <glyph glyph-name="adieresis" unicode="&#xe4;" horiz-adv-x="527" 
d="M171 -5q-70 0 -107 37t-37 86q0 30 17.5 59.5t47.5 46.5q42 23 130.5 30.5t92.5 8.5v90q0 51 -16 73.5t-53 22.5q-39 0 -67 -18q28 -25 28 -60t-19.5 -54.5t-56.5 -19.5q-32 0 -54 21t-22 52q0 99 217 99q100 0 148 -39.5t48 -125.5v-215q0 -37 16.5 -45.5t55.5 8.5
l6 -11q-63 -45 -114 -45q-50 0 -74.5 18.5t-33.5 57.5h-4q-67 -77 -149 -77zM253 57q40 0 62 36v150q-74 -8 -100 -31t-26 -79q0 -35 17.5 -55.5t46.5 -20.5zM382 529q-36 0 -59 23.5t-23 58.5q0 36 23 60t59 24t59 -24t23 -60q0 -35 -23 -58.5t-59 -23.5zM165 529
q-36 0 -59 23.5t-23 58.5q0 36 23 60t59 24t59 -24t23 -60q0 -35 -23 -58.5t-59 -23.5z" />
    <glyph glyph-name="aring" unicode="&#xe5;" horiz-adv-x="527" 
d="M171 -5q-70 0 -107 37t-37 86q0 30 17.5 59.5t47.5 46.5q42 23 130.5 30.5t92.5 8.5v90q0 51 -16 73.5t-53 22.5q-39 0 -67 -18q28 -25 28 -60t-19.5 -54.5t-56.5 -19.5q-32 0 -54 21t-22 52q0 99 217 99q100 0 148 -39.5t48 -125.5v-215q0 -37 16.5 -45.5t55.5 8.5
l6 -11q-63 -45 -114 -45q-50 0 -74.5 18.5t-33.5 57.5h-4q-67 -77 -149 -77zM253 57q40 0 62 36v150q-74 -8 -100 -31t-26 -79q0 -35 17.5 -55.5t46.5 -20.5zM267 529q-61 0 -95.5 30t-34.5 80q0 49 35.5 79.5t94.5 30.5q61 0 95.5 -30t34.5 -79t-35 -80t-95 -31zM269 547
q46 0 46 92t-50 92q-46 0 -46 -92t50 -92z" />
    <glyph glyph-name="ae" unicode="&#xe6;" horiz-adv-x="798" 
d="M560 472q106 0 162 -63t51 -168h-296v-14v-2q0 -190 147 -190q78 0 136 80l11 -7q-75 -116 -210 -116q-139 0 -207 96h-4q-70 -93 -184 -93q-67 0 -103 37t-36 86q0 30 17.5 59.5t47.5 46.5q42 23 135.5 30.5t97.5 8.5v90q0 96 -79 96q-39 0 -67 -18q28 -25 28 -60
t-19.5 -54.5t-56.5 -19.5q-32 0 -54 21t-22 52q0 99 217 99q96 0 145 -42q58 45 143 45zM554 452q-71 0 -77 -191h142q10 88 -7 139.5t-58 51.5zM253 57q19 0 41 10.5t31 25.5v150q-76 -8 -106 -31.5t-30 -78.5q0 -35 17.5 -55.5t46.5 -20.5z" />
    <glyph glyph-name="ccedilla" unicode="&#xe7;" horiz-adv-x="496" 
d="M244 -251q-60 0 -103 16l8 17q47 -11 76 -11q54 0 54 45q0 22 -21.5 35.5t-59.5 13.5q-11 0 -33 -4l-6 9l126 122h-13q-115 0 -180.5 61.5t-65.5 171.5q0 115 71 181t184 66q98 0 146.5 -34.5t48.5 -79.5q0 -37 -20.5 -59t-57.5 -22q-40 0 -61.5 22t-21.5 54
q0 23 11.5 41.5t27.5 25.5q-18 34 -68 34q-46 0 -71.5 -59.5t-25.5 -159.5q0 -85 34 -143t102 -58q39 0 79 21.5t67 59.5l11 -7q-64 -99 -168 -113l-61 -59l2 -3q60 -3 91 -30t31 -61q0 -42 -35 -67.5t-98 -25.5z" />
    <glyph glyph-name="egrave" unicode="&#xe8;" horiz-adv-x="509" 
d="M272 -8q-112 0 -179 60.5t-67 172.5q0 114 69.5 180.5t175.5 66.5t162 -63t51 -168h-296v-14v-2q0 -190 147 -190q78 0 136 80l11 -7q-75 -116 -210 -116zM265 452q-71 0 -77 -191h142q10 88 -7 139.5t-58 51.5zM284 524l-76 82q-44 47 -57 65t-13 35q0 24 20 41t47 17
q30 0 44 -24t28 -92l26 -124h-19z" />
    <glyph glyph-name="eacute" unicode="&#xe9;" horiz-adv-x="509" 
d="M272 -8q-112 0 -179 60.5t-67 172.5q0 114 69.5 180.5t175.5 66.5t162 -63t51 -168h-296v-14v-2q0 -190 147 -190q78 0 136 80l11 -7q-75 -116 -210 -116zM265 452q-71 0 -77 -191h142q10 88 -7 139.5t-58 51.5zM235 524l26 124q14 68 28 92t44 24q27 0 47 -17t20 -41
q0 -17 -13 -35t-57 -65l-76 -82h-19z" />
    <glyph glyph-name="ecircumflex" unicode="&#xea;" horiz-adv-x="509" 
d="M272 -8q-112 0 -179 60.5t-67 172.5q0 114 69.5 180.5t175.5 66.5t162 -63t51 -168h-296v-14v-2q0 -190 147 -190q78 0 136 80l11 -7q-75 -116 -210 -116zM265 452q-71 0 -77 -191h142q10 88 -7 139.5t-58 51.5zM118 524l149 213h13l141 -213h-16l-135 86l-136 -86h-16z
" />
    <glyph glyph-name="edieresis" unicode="&#xeb;" horiz-adv-x="509" 
d="M272 -8q-112 0 -179 60.5t-67 172.5q0 114 69.5 180.5t175.5 66.5t162 -63t51 -168h-296v-14v-2q0 -190 147 -190q78 0 136 80l11 -7q-75 -116 -210 -116zM265 452q-71 0 -77 -191h142q10 88 -7 139.5t-58 51.5zM379 529q-36 0 -59 23.5t-23 58.5q0 36 23 60t59 24
t59 -24t23 -60q0 -35 -23 -58.5t-59 -23.5zM162 529q-36 0 -59 23.5t-23 58.5q0 36 23 60t59 24t59 -24t23 -60q0 -35 -23 -58.5t-59 -23.5z" />
    <glyph glyph-name="igrave" unicode="&#xec;" horiz-adv-x="325" 
d="M16 0v12q42 1 57 8.5t15 26.5v346q0 24 -15.5 36t-56.5 13v12l226 12v-419q0 -19 13 -26.5t54 -8.5v-12h-293zM162 524l-76 82q-44 47 -57 65t-13 35q0 24 20 41t47 17q30 0 44 -24t28 -92l26 -124h-19z" />
    <glyph glyph-name="iacute" unicode="&#xed;" horiz-adv-x="325" 
d="M16 0v12q42 1 57 8.5t15 26.5v346q0 24 -15.5 36t-56.5 13v12l226 12v-419q0 -19 13 -26.5t54 -8.5v-12h-293zM113 524l26 124q14 68 28 92t44 24q27 0 47 -17t20 -41q0 -17 -13 -35t-57 -65l-76 -82h-19z" />
    <glyph glyph-name="icircumflex" unicode="&#xee;" horiz-adv-x="325" 
d="M16 0v12q42 1 57 8.5t15 26.5v346q0 24 -15.5 36t-56.5 13v12l226 12v-419q0 -19 13 -26.5t54 -8.5v-12h-293zM-4 524l149 213h13l141 -213h-16l-135 86l-136 -86h-16z" />
    <glyph glyph-name="idieresis" unicode="&#xef;" horiz-adv-x="325" 
d="M16 0v12q42 1 57 8.5t15 26.5v346q0 24 -15.5 36t-56.5 13v12l226 12v-419q0 -19 13 -26.5t54 -8.5v-12h-293zM259 529q-36 0 -59 23.5t-23 58.5q0 36 23 60t59 24t59 -24t23 -60q0 -35 -23 -58.5t-59 -23.5zM42 529q-36 0 -59 23.5t-23 58.5q0 36 23 60t59 24t59 -24
t23 -60q0 -35 -23 -58.5t-59 -23.5z" />
    <glyph glyph-name="eth" unicode="&#xf0;" horiz-adv-x="548" 
d="M463 666l-88 -43q148 -111 148 -315q0 -157 -59.5 -236.5t-200.5 -79.5q-108 0 -172.5 64t-64.5 175q0 106 67 173t166 67q66 0 93 -49l4 2q-13 96 -62 160l-125 -60l-8 18l121 58q-55 63 -155 104l5 15q137 -23 224 -83l99 48zM279 12q47 0 64 58t17 183q0 199 -85 199
q-47 0 -66.5 -56.5t-19.5 -162.5q0 -221 90 -221z" />
    <glyph glyph-name="ntilde" unicode="&#xf1;" horiz-adv-x="610" 
d="M20 0v12q41 1 54.5 8.5t13.5 26.5v346q0 25 -14 36.5t-54 12.5v12l220 12v-95q32 45 78.5 71.5t94.5 26.5q127 0 127 -149v-273q0 -19 13 -26.5t54 -8.5v-12h-272v12q51 1 51 35v272q0 83 -64 83q-39 0 -80 -51v-304q0 -34 49 -35v-12h-271zM138 525q5 80 29 115t71 35
q30 0 91 -28.5t77 -28.5q19 0 29.5 12.5t20.5 47.5h16q-5 -80 -29 -115t-71 -35q-30 0 -91 28.5t-77 28.5q-19 0 -29.5 -12.5t-20.5 -47.5h-16z" />
    <glyph glyph-name="ograve" unicode="&#xf2;" horiz-adv-x="549" 
d="M275 -8q-119 0 -184 63t-65 176q0 112 67 176.5t182 64.5q118 0 183 -62.5t65 -174.5t-67 -177.5t-181 -65.5zM279 12q32 0 50.5 28.5t24.5 74t6 118.5q0 107 -20.5 163t-69.5 56q-47 0 -64 -54t-17 -165q0 -221 90 -221zM284 524l-76 82q-44 47 -57 65t-13 35
q0 24 20 41t47 17q30 0 44 -24t28 -92l26 -124h-19z" />
    <glyph glyph-name="oacute" unicode="&#xf3;" horiz-adv-x="549" 
d="M275 -8q-119 0 -184 63t-65 176q0 112 67 176.5t182 64.5q118 0 183 -62.5t65 -174.5t-67 -177.5t-181 -65.5zM279 12q32 0 50.5 28.5t24.5 74t6 118.5q0 107 -20.5 163t-69.5 56q-47 0 -64 -54t-17 -165q0 -221 90 -221zM245 524l26 124q14 68 28 92t44 24q27 0 47 -17
t20 -41q0 -17 -13 -35t-57 -65l-76 -82h-19z" />
    <glyph glyph-name="ocircumflex" unicode="&#xf4;" horiz-adv-x="549" 
d="M275 -8q-119 0 -184 63t-65 176q0 112 67 176.5t182 64.5q118 0 183 -62.5t65 -174.5t-67 -177.5t-181 -65.5zM279 12q32 0 50.5 28.5t24.5 74t6 118.5q0 107 -20.5 163t-69.5 56q-47 0 -64 -54t-17 -165q0 -221 90 -221zM123 524l149 213h13l141 -213h-16l-135 86
l-136 -86h-16z" />
    <glyph glyph-name="otilde" unicode="&#xf5;" horiz-adv-x="549" 
d="M275 -8q-119 0 -184 63t-65 176q0 112 67 176.5t182 64.5q118 0 183 -62.5t65 -174.5t-67 -177.5t-181 -65.5zM279 12q32 0 50.5 28.5t24.5 74t6 118.5q0 107 -20.5 163t-69.5 56q-47 0 -64 -54t-17 -165q0 -221 90 -221zM107 525q5 80 29 115t71 35q30 0 91 -28.5
t77 -28.5q19 0 29.5 12.5t20.5 47.5h16q-5 -80 -29 -115t-71 -35q-30 0 -91 28.5t-77 28.5q-19 0 -29.5 -12.5t-20.5 -47.5h-16z" />
    <glyph glyph-name="odieresis" unicode="&#xf6;" horiz-adv-x="549" 
d="M275 -8q-119 0 -184 63t-65 176q0 112 67 176.5t182 64.5q118 0 183 -62.5t65 -174.5t-67 -177.5t-181 -65.5zM279 12q32 0 50.5 28.5t24.5 74t6 118.5q0 107 -20.5 163t-69.5 56q-47 0 -64 -54t-17 -165q0 -221 90 -221zM383 529q-36 0 -59 23.5t-23 58.5q0 36 23 60
t59 24t59 -24t23 -60q0 -35 -23 -58.5t-59 -23.5zM166 529q-36 0 -59 23.5t-23 58.5q0 36 23 60t59 24t59 -24t23 -60q0 -35 -23 -58.5t-59 -23.5z" />
    <glyph glyph-name="divide" unicode="&#xf7;" horiz-adv-x="575" 
d="M54 317v22h467v-22h-467zM288 415q-25 0 -42 17t-17 41t17 41t42 17q24 0 41 -17t17 -41t-17 -41t-41 -17zM288 125q-25 0 -42 17t-17 41t17 41t42 17q24 0 41 -17t17 -41t-17 -41t-41 -17z" />
    <glyph glyph-name="oslash" unicode="&#xf8;" horiz-adv-x="549" 
d="M70 -24h-27l59 69q-76 62 -76 186q0 112 67 176.5t182 64.5q92 0 155 -41l49 57h27l-59 -69q76 -64 76 -184q0 -112 -67 -177.5t-181 -65.5q-96 0 -157 41zM189 233q0 -45 3 -82l161 189q-17 112 -83 112q-47 0 -64 -54t-17 -165zM279 12q32 0 50.5 28.5t24.5 74t6 118.5
q0 44 -3 80l-161 -189q17 -112 83 -112z" />
    <glyph glyph-name="ugrave" unicode="&#xf9;" horiz-adv-x="601" 
d="M218 -8q-67 0 -104.5 38.5t-37.5 112.5v258q0 25 -14 36.5t-54 12.5v12l222 4v-319q0 -85 66 -85q41 0 76 47v292q0 24 -14.5 35.5t-53.5 12.5v12l222 5v-415q0 -22 13 -29.5t55 -9.5v-12h-220v89q-60 -97 -156 -97zM310 524l-76 82q-44 47 -57 65t-13 35q0 24 20 41
t47 17q30 0 44 -24t28 -92l26 -124h-19z" />
    <glyph glyph-name="uacute" unicode="&#xfa;" horiz-adv-x="601" 
d="M218 -8q-67 0 -104.5 38.5t-37.5 112.5v258q0 25 -14 36.5t-54 12.5v12l222 4v-319q0 -85 66 -85q41 0 76 47v292q0 24 -14.5 35.5t-53.5 12.5v12l222 5v-415q0 -22 13 -29.5t55 -9.5v-12h-220v89q-60 -97 -156 -97zM241 524l26 124q14 68 28 92t44 24q27 0 47 -17
t20 -41q0 -17 -13 -35t-57 -65l-76 -82h-19z" />
    <glyph glyph-name="ucircumflex" unicode="&#xfb;" horiz-adv-x="601" 
d="M218 -8q-67 0 -104.5 38.5t-37.5 112.5v258q0 25 -14 36.5t-54 12.5v12l222 4v-319q0 -85 66 -85q41 0 76 47v292q0 24 -14.5 35.5t-53.5 12.5v12l222 5v-415q0 -22 13 -29.5t55 -9.5v-12h-220v89q-60 -97 -156 -97zM135 524l149 213h13l141 -213h-16l-135 86l-136 -86
h-16z" />
    <glyph glyph-name="udieresis" unicode="&#xfc;" horiz-adv-x="601" 
d="M218 -8q-67 0 -104.5 38.5t-37.5 112.5v258q0 25 -14 36.5t-54 12.5v12l222 4v-319q0 -85 66 -85q41 0 76 47v292q0 24 -14.5 35.5t-53.5 12.5v12l222 5v-415q0 -22 13 -29.5t55 -9.5v-12h-220v89q-60 -97 -156 -97zM394 529q-36 0 -59 23.5t-23 58.5q0 36 23 60t59 24
t59 -24t23 -60q0 -35 -23 -58.5t-59 -23.5zM177 529q-36 0 -59 23.5t-23 58.5q0 36 23 60t59 24t59 -24t23 -60q0 -35 -23 -58.5t-59 -23.5z" />
    <glyph glyph-name="yacute" unicode="&#xfd;" horiz-adv-x="516" 
d="M264 -25l-201 416q-16 33 -31 44t-52 17v12h294v-12q-41 -5 -52 -15t0 -34l114 -258l84 213q18 45 3 65.5t-69 28.5v12h201v-12q-71 -8 -97 -70l-182 -436q-61 -146 -161 -146q-48 0 -74.5 21.5t-26.5 61.5q0 28 19.5 50t52.5 22q29 0 49 -20.5t20 -50.5q0 -37 -27 -62
q40 3 71 35.5t59 103.5zM294 524l26 124q14 68 28 92t44 24q27 0 47 -17t20 -41q0 -17 -13 -35t-57 -65l-76 -82h-19z" />
    <glyph glyph-name="thorn" unicode="&#xfe;" horiz-adv-x="577" 
d="M217 717v-308q75 63 144 63q88 0 137 -63.5t49 -172.5q0 -104 -57 -174t-157 -70q-67 0 -116 21v-155q0 -18 18 -25.5t75 -9.5v-12h-314v12q41 1 54 8.5t13 26.5v786q0 25 -14 36.5t-57 12.5v12zM302 12q83 0 83 218q0 190 -95 190q-33 0 -73 -27v-323q29 -58 85 -58z
" />
    <glyph glyph-name="ydieresis" unicode="&#xff;" horiz-adv-x="516" 
d="M264 -25l-201 416q-16 33 -31 44t-52 17v12h294v-12q-41 -5 -52 -15t0 -34l114 -258l84 213q18 45 3 65.5t-69 28.5v12h201v-12q-71 -8 -97 -70l-182 -436q-61 -146 -161 -146q-48 0 -74.5 21.5t-26.5 61.5q0 28 19.5 50t52.5 22q29 0 49 -20.5t20 -50.5q0 -37 -27 -62
q40 3 71 35.5t59 103.5zM405 529q-36 0 -59 23.5t-23 58.5q0 36 23 60t59 24t59 -24t23 -60q0 -35 -23 -58.5t-59 -23.5zM188 529q-36 0 -59 23.5t-23 58.5q0 36 23 60t59 24t59 -24t23 -60q0 -35 -23 -58.5t-59 -23.5z" />
    <glyph glyph-name="Amacron" unicode="&#x100;" horiz-adv-x="722" 
d="M456 89l-62 175h-225l-36 -96q-29 -76 -13 -110t85 -44v-14h-238v14q49 13 82 50.5t62 112.5l204 534h88l228 -620q15 -39 34.5 -53.5t73.5 -23.5v-14h-381v14q71 4 91.5 20.5t6.5 54.5zM176 284h211l-101 283h-5zM206 794v51h308v-51h-308z" />
    <glyph glyph-name="amacron" unicode="&#x101;" horiz-adv-x="527" 
d="M171 -5q-70 0 -107 37t-37 86q0 30 17.5 59.5t47.5 46.5q42 23 130.5 30.5t92.5 8.5v90q0 51 -16 73.5t-53 22.5q-39 0 -67 -18q28 -25 28 -60t-19.5 -54.5t-56.5 -19.5q-32 0 -54 21t-22 52q0 99 217 99q100 0 148 -39.5t48 -125.5v-215q0 -37 16.5 -45.5t55.5 8.5
l6 -11q-63 -45 -114 -45q-50 0 -74.5 18.5t-33.5 57.5h-4q-67 -77 -149 -77zM253 57q40 0 62 36v150q-74 -8 -100 -31t-26 -79q0 -35 17.5 -55.5t46.5 -20.5zM113 554v51h308v-51h-308z" />
    <glyph glyph-name="Abreve" unicode="&#x102;" horiz-adv-x="722" 
d="M456 89l-62 175h-225l-36 -96q-29 -76 -13 -110t85 -44v-14h-238v14q49 13 82 50.5t62 112.5l204 534h88l228 -620q15 -39 34.5 -53.5t73.5 -23.5v-14h-381v14q71 4 91.5 20.5t6.5 54.5zM176 284h211l-101 283h-5zM359 769q-59 0 -98.5 44.5t-45.5 127.5h15
q14 -41 49 -62.5t78 -21.5q45 0 80.5 22t48.5 62h15q-5 -84 -44 -128t-98 -44z" />
    <glyph glyph-name="abreve" unicode="&#x103;" horiz-adv-x="527" 
d="M171 -5q-70 0 -107 37t-37 86q0 30 17.5 59.5t47.5 46.5q42 23 130.5 30.5t92.5 8.5v90q0 51 -16 73.5t-53 22.5q-39 0 -67 -18q28 -25 28 -60t-19.5 -54.5t-56.5 -19.5q-32 0 -54 21t-22 52q0 99 217 99q100 0 148 -39.5t48 -125.5v-215q0 -37 16.5 -45.5t55.5 8.5
l6 -11q-63 -45 -114 -45q-50 0 -74.5 18.5t-33.5 57.5h-4q-67 -77 -149 -77zM253 57q40 0 62 36v150q-74 -8 -100 -31t-26 -79q0 -35 17.5 -55.5t46.5 -20.5zM264 529q-59 0 -98.5 44.5t-45.5 127.5h15q14 -41 49 -62.5t78 -21.5q45 0 80.5 22t48.5 62h15q-5 -84 -44 -128
t-98 -44z" />
    <glyph glyph-name="Aogonek" unicode="&#x104;" horiz-adv-x="722" 
d="M536 -247q-45 0 -71 22t-26 62q0 42 28.5 73t80.5 64l41 26h-231v14q71 4 91.5 20.5t6.5 54.5l-62 175h-225l-36 -96q-29 -76 -13 -110t85 -44v-14h-238v14q49 13 82 50.5t62 112.5l204 534h88l228 -620q15 -39 34.5 -53.5t73.5 -23.5v-14h-122l-19 -22q-54 -60 -54 -123
q0 -65 55 -65q34 0 68 19l6 -12q-22 -19 -62 -31.5t-75 -12.5zM176 284h211l-101 283h-5z" />
    <glyph glyph-name="aogonek" unicode="&#x105;" horiz-adv-x="527" 
d="M546 41q-33 -23 -68 -61q-56 -59 -56 -125q0 -65 55 -65q34 0 68 19l6 -12q-22 -19 -62 -31.5t-75 -12.5q-45 0 -71 22t-26 62q0 43 31 76.5t97 71.5l29 17q-20 -6 -42 -6q-50 0 -74.5 18.5t-33.5 57.5h-4q-67 -77 -149 -77q-70 0 -107 37t-37 86q0 30 17.5 59.5
t47.5 46.5q42 23 130.5 30.5t92.5 8.5v90q0 51 -16 73.5t-53 22.5q-39 0 -67 -18q28 -25 28 -60t-19.5 -54.5t-56.5 -19.5q-32 0 -54 21t-22 52q0 99 217 99q100 0 148 -39.5t48 -125.5v-215q0 -37 16.5 -45.5t55.5 8.5zM253 57q40 0 62 36v150q-74 -8 -100 -31t-26 -79
q0 -35 17.5 -55.5t46.5 -20.5z" />
    <glyph glyph-name="Cacute" unicode="&#x106;" horiz-adv-x="727" 
d="M386 -17q-164 0 -256 93.5t-92 258.5q0 173 110 276t269 103q102 0 187 -47l47 52h12v-273h-16q-60 130 -113 189.5t-134 59.5q-83 0 -131 -89t-48 -247q0 -160 61.5 -247t160.5 -87q78 0 132 37t92 120l19 -9q-83 -190 -300 -190zM331 764l26 124q14 68 28 92t44 24
q27 0 47 -17t20 -41q0 -17 -13 -35t-57 -65l-76 -82h-19z" />
    <glyph glyph-name="cacute" unicode="&#x107;" horiz-adv-x="496" 
d="M272 -8q-115 0 -180.5 61.5t-65.5 171.5q0 115 71 181t184 66q98 0 146.5 -34.5t48.5 -79.5q0 -37 -20.5 -59t-57.5 -22q-40 0 -61.5 22t-21.5 54q0 23 11.5 41.5t27.5 25.5q-18 34 -68 34q-46 0 -71.5 -59.5t-25.5 -159.5q0 -85 34 -143t102 -58q39 0 79 21.5t67 59.5
l11 -7q-75 -116 -210 -116zM199 524l26 124q14 68 28 92t44 24q27 0 47 -17t20 -41q0 -17 -13 -35t-57 -65l-76 -82h-19z" />
    <glyph glyph-name="Cdotaccent" unicode="&#x10a;" horiz-adv-x="727" 
d="M386 -17q-164 0 -256 93.5t-92 258.5q0 173 110 276t269 103q102 0 187 -47l47 52h12v-273h-16q-60 130 -113 189.5t-134 59.5q-83 0 -131 -89t-48 -247q0 -160 61.5 -247t160.5 -87q78 0 132 37t92 120l19 -9q-83 -190 -300 -190zM386 769q-40 0 -64.5 22.5t-24.5 63.5
t24.5 66t64.5 25q41 0 65 -23.5t24 -63.5q0 -41 -24 -65.5t-65 -24.5z" />
    <glyph glyph-name="cdotaccent" unicode="&#x10b;" horiz-adv-x="496" 
d="M272 -8q-115 0 -180.5 61.5t-65.5 171.5q0 115 71 181t184 66q98 0 146.5 -34.5t48.5 -79.5q0 -37 -20.5 -59t-57.5 -22q-40 0 -61.5 22t-21.5 54q0 23 11.5 41.5t27.5 25.5q-18 34 -68 34q-46 0 -71.5 -59.5t-25.5 -159.5q0 -85 34 -143t102 -58q39 0 79 21.5t67 59.5
l11 -7q-75 -116 -210 -116zM267 529q-40 0 -64.5 22.5t-24.5 63.5t24.5 66t64.5 25q41 0 65 -23.5t24 -63.5q0 -41 -24 -65.5t-65 -24.5z" />
    <glyph glyph-name="Ccaron" unicode="&#x10c;" horiz-adv-x="727" 
d="M386 -17q-164 0 -256 93.5t-92 258.5q0 173 110 276t269 103q102 0 187 -47l47 52h12v-273h-16q-60 130 -113 189.5t-134 59.5q-83 0 -131 -89t-48 -247q0 -160 61.5 -247t160.5 -87q78 0 132 37t92 120l19 -9q-83 -190 -300 -190zM381 764l-141 213h16l135 -86l136 86
h16l-149 -213h-13z" />
    <glyph glyph-name="ccaron" unicode="&#x10d;" horiz-adv-x="496" 
d="M272 -8q-115 0 -180.5 61.5t-65.5 171.5q0 115 71 181t184 66q98 0 146.5 -34.5t48.5 -79.5q0 -37 -20.5 -59t-57.5 -22q-40 0 -61.5 22t-21.5 54q0 23 11.5 41.5t27.5 25.5q-18 34 -68 34q-46 0 -71.5 -59.5t-25.5 -159.5q0 -85 34 -143t102 -58q39 0 79 21.5t67 59.5
l11 -7q-75 -116 -210 -116zM260 524l-141 213h16l135 -86l136 86h16l-149 -213h-13z" />
    <glyph glyph-name="Dcaron" unicode="&#x10e;" horiz-adv-x="789" 
d="M29 0v14q59 2 79.5 13t20.5 38v567q0 27 -20.5 38.5t-79.5 13.5v13h339q187 0 284 -90.5t97 -244.5q0 -74 -20.5 -137t-62 -114.5t-113.5 -81t-167 -29.5h-357zM297 18h58q118 0 166 72t48 260q0 184 -53 257t-167 73h-52v-662zM384 764l-141 213h16l135 -86l136 86h16
l-149 -213h-13z" />
    <glyph glyph-name="dcaron" unicode="&#x10f;" horiz-adv-x="579" 
d="M228 -8q-94 0 -148 63t-54 167t62.5 177t173.5 73q48 0 94 -16v188q0 25 -14 36.5t-57 12.5v12l225 12v-659q0 -24 14.5 -37t53.5 -13v-8l-220 -4v60q-52 -64 -130 -64zM296 47q32 0 60 23v336q-26 46 -79 46q-41 0 -65 -59t-24 -155q0 -82 28 -136.5t80 -54.5zM599 528
l-16 143q-3 30 -3 45q0 30 16 43t39 13t38 -12t15 -32t-18 -66l-55 -134h-16z" />
    <glyph glyph-name="Dcroat" unicode="&#x110;" horiz-adv-x="789" 
d="M29 0v14q59 2 79.5 13t20.5 38v285h-97v26h97v256q0 27 -20.5 38.5t-79.5 13.5v13h339q187 0 284 -90.5t97 -244.5q0 -74 -20.5 -137t-62 -114.5t-113.5 -81t-167 -29.5h-357zM297 18h58q118 0 166 72t48 260q0 184 -53 257t-167 73h-52v-304h137v-26h-137v-332z" />
    <glyph glyph-name="dcroat" unicode="&#x111;" horiz-adv-x="579" 
d="M228 -8q-94 0 -148 63t-54 167t62.5 177t173.5 73q48 0 94 -16v116h-128v22h128v50q0 25 -14 36.5t-57 12.5v12l225 12v-123h65v-22h-65v-514q0 -24 14.5 -37t53.5 -13v-8l-220 -4v60q-52 -64 -130 -64zM296 47q32 0 60 23v336q-26 46 -79 46q-41 0 -65 -59t-24 -155
q0 -82 28 -136.5t80 -54.5z" />
    <glyph glyph-name="Emacron" unicode="&#x112;" horiz-adv-x="729" 
d="M29 0v14q59 2 79.5 13t20.5 38v567q0 27 -20.5 38.5t-79.5 13.5v13h611l3 -247l-16 -2l-36.5 76t-31.5 57t-33.5 46t-36 29t-45 19.5t-55.5 4.5h-92v-310h33q60 0 97 31.5t57 103.5h13v-289h-13q-20 73 -57 105t-97 32h-33v-335h85q56 0 93 11t68.5 43.5t53.5 73
t56 117.5l16 -2l-5 -261h-635zM219 794v51h308v-51h-308z" />
    <glyph glyph-name="emacron" unicode="&#x113;" horiz-adv-x="509" 
d="M272 -8q-112 0 -179 60.5t-67 172.5q0 114 69.5 180.5t175.5 66.5t162 -63t51 -168h-296v-14v-2q0 -190 147 -190q78 0 136 80l11 -7q-75 -116 -210 -116zM265 452q-71 0 -77 -191h142q10 88 -7 139.5t-58 51.5zM119 554v51h308v-51h-308z" />
    <glyph glyph-name="Ebreve" unicode="&#x114;" horiz-adv-x="729" 
d="M29 0v14q59 2 79.5 13t20.5 38v567q0 27 -20.5 38.5t-79.5 13.5v13h611l3 -247l-16 -2l-36.5 76t-31.5 57t-33.5 46t-36 29t-45 19.5t-55.5 4.5h-92v-310h33q60 0 97 31.5t57 103.5h13v-289h-13q-20 73 -57 105t-97 32h-33v-335h85q56 0 93 11t68.5 43.5t53.5 73
t56 117.5l16 -2l-5 -261h-635zM369 769q-59 0 -98.5 44.5t-45.5 127.5h15q14 -41 49 -62.5t78 -21.5q45 0 80.5 22t48.5 62h15q-5 -84 -44 -128t-98 -44z" />
    <glyph glyph-name="ebreve" unicode="&#x115;" horiz-adv-x="509" 
d="M272 -8q-112 0 -179 60.5t-67 172.5q0 114 69.5 180.5t175.5 66.5t162 -63t51 -168h-296v-14v-2q0 -190 147 -190q78 0 136 80l11 -7q-75 -116 -210 -116zM265 452q-71 0 -77 -191h142q10 88 -7 139.5t-58 51.5zM265 529q-59 0 -98.5 44.5t-45.5 127.5h15
q14 -41 49 -62.5t78 -21.5q45 0 80.5 22t48.5 62h15q-5 -84 -44 -128t-98 -44z" />
    <glyph glyph-name="Edotaccent" unicode="&#x116;" horiz-adv-x="729" 
d="M29 0v14q59 2 79.5 13t20.5 38v567q0 27 -20.5 38.5t-79.5 13.5v13h611l3 -247l-16 -2l-36.5 76t-31.5 57t-33.5 46t-36 29t-45 19.5t-55.5 4.5h-92v-310h33q60 0 97 31.5t57 103.5h13v-289h-13q-20 73 -57 105t-97 32h-33v-335h85q56 0 93 11t68.5 43.5t53.5 73
t56 117.5l16 -2l-5 -261h-635zM368 769q-40 0 -64.5 22.5t-24.5 63.5t24.5 66t64.5 25q41 0 65 -23.5t24 -63.5q0 -41 -24 -65.5t-65 -24.5z" />
    <glyph glyph-name="edotaccent" unicode="&#x117;" horiz-adv-x="509" 
d="M272 -8q-112 0 -179 60.5t-67 172.5q0 114 69.5 180.5t175.5 66.5t162 -63t51 -168h-296v-14v-2q0 -190 147 -190q78 0 136 80l11 -7q-75 -116 -210 -116zM265 529q-40 0 -64.5 22.5t-24.5 63.5t24.5 66t64.5 25q41 0 65 -23.5t24 -63.5q0 -41 -24 -65.5t-65 -24.5z
M265 452q-71 0 -77 -191h142q10 88 -7 139.5t-58 51.5z" />
    <glyph glyph-name="Eogonek" unicode="&#x118;" horiz-adv-x="729" 
d="M29 0v14q59 2 79.5 13t20.5 38v567q0 27 -20.5 38.5t-79.5 13.5v13h611l3 -247l-16 -2l-36.5 76t-31.5 57t-33.5 46t-36 29t-45 19.5t-55.5 4.5h-92v-310h33q60 0 97 31.5t57 103.5h13v-289h-13q-20 73 -57 105t-97 32h-33v-335h85q56 0 93 11t68.5 43.5t53.5 73
t56 117.5l16 -2l-5 -261h-74l-19 -22q-54 -60 -54 -123q0 -65 55 -65q34 0 68 19l6 -12q-22 -19 -62 -31.5t-75 -12.5q-45 0 -71 22t-26 62q0 42 28.5 73t80.5 64l41 26h-533z" />
    <glyph glyph-name="eogonek" unicode="&#x119;" horiz-adv-x="509" 
d="M471 115l11 -7q-24 -37 -55 -64q-55 -47 -72 -66q-54 -58 -54 -123t55 -65q34 0 68 19l6 -12q-22 -19 -62 -31.5t-75 -12.5q-45 0 -71 22t-26 62q0 42 28.5 73t80.5 64l46 29q-37 -11 -79 -11q-112 0 -179 60.5t-67 172.5q0 114 69.5 180.5t175.5 66.5t162 -63t51 -168
h-296v-14v-2q0 -190 147 -190q78 0 136 80zM265 452q-71 0 -77 -191h142q10 88 -7 139.5t-58 51.5z" />
    <glyph glyph-name="Ecaron" unicode="&#x11a;" horiz-adv-x="729" 
d="M29 0v14q59 2 79.5 13t20.5 38v567q0 27 -20.5 38.5t-79.5 13.5v13h611l3 -247l-16 -2l-36.5 76t-31.5 57t-33.5 46t-36 29t-45 19.5t-55.5 4.5h-92v-310h33q60 0 97 31.5t57 103.5h13v-289h-13q-20 73 -57 105t-97 32h-33v-335h85q56 0 93 11t68.5 43.5t53.5 73
t56 117.5l16 -2l-5 -261h-635zM360 764l-141 213h16l135 -86l136 86h16l-149 -213h-13z" />
    <glyph glyph-name="ecaron" unicode="&#x11b;" horiz-adv-x="509" 
d="M272 -8q-112 0 -179 60.5t-67 172.5q0 114 69.5 180.5t175.5 66.5t162 -63t51 -168h-296v-14v-2q0 -190 147 -190q78 0 136 80l11 -7q-75 -116 -210 -116zM265 452q-71 0 -77 -191h142q10 88 -7 139.5t-58 51.5zM259 524l-141 213h16l135 -86l136 86h16l-149 -213h-13z
" />
    <glyph glyph-name="Gbreve" unicode="&#x11e;" horiz-adv-x="764" 
d="M399 -17q-161 0 -260 97.5t-99 266.5q0 164 106.5 265.5t268.5 101.5q105 0 188 -47l52 52h12v-253h-16q-58 118 -112.5 173.5t-129.5 55.5q-82 0 -134 -88.5t-52 -257.5t53.5 -258t139.5 -89q66 0 105 30v227q0 27 -23 40t-83 15v13h339v-13q-42 -2 -58 -13t-16 -41
v-205q-124 -72 -281 -72zM394 769q-59 0 -98.5 44.5t-45.5 127.5h15q14 -41 49 -62.5t78 -21.5q45 0 80.5 22t48.5 62h15q-5 -84 -44 -128t-98 -44z" />
    <glyph glyph-name="gbreve" unicode="&#x11f;" horiz-adv-x="487" 
d="M253 -182q65 0 104 25.5t39 71.5q0 29 -24 43.5t-83 14.5h-146q-37 -28 -37 -66q0 -47 36.5 -68t110.5 -21zM251 176q35 0 47.5 31t12.5 107q0 69 -15.5 103t-53.5 34q-36 0 -48 -30.5t-12 -106.5q0 -74 15.5 -106t53.5 -32zM247 469q50 0 94 -14q19 43 49.5 70.5
t68.5 27.5q31 0 47.5 -16.5t16.5 -42.5q0 -22 -14 -37.5t-39 -15.5q-21 0 -38 17t-17 43q-34 -15 -56 -53q98 -40 98 -132q0 -72 -58.5 -115t-151.5 -43q-31 0 -64 5q-54 -15 -54 -44q0 -30 83 -30h117q165 0 165 -120q0 -70 -75 -119.5t-192 -49.5q-95 0 -156 26t-61 69
q0 32 25 51t84 28v2q-42 14 -63 41.5t-21 58.5q0 27 31.5 55t85.5 39q-116 36 -116 142q0 71 59 114t152 43zM255 529q-59 0 -98.5 44.5t-45.5 127.5h15q14 -41 49 -62.5t78 -21.5q45 0 80.5 22t48.5 62h15q-5 -84 -44 -128t-98 -44z" />
    <glyph glyph-name="Gdotaccent" unicode="&#x120;" horiz-adv-x="764" 
d="M399 -17q-161 0 -260 97.5t-99 266.5q0 164 106.5 265.5t268.5 101.5q105 0 188 -47l52 52h12v-253h-16q-58 118 -112.5 173.5t-129.5 55.5q-82 0 -134 -88.5t-52 -257.5t53.5 -258t139.5 -89q66 0 105 30v227q0 27 -23 40t-83 15v13h339v-13q-42 -2 -58 -13t-16 -41
v-205q-124 -72 -281 -72zM397 769q-40 0 -64.5 22.5t-24.5 63.5t24.5 66t64.5 25q41 0 65 -23.5t24 -63.5q0 -41 -24 -65.5t-65 -24.5z" />
    <glyph glyph-name="gdotaccent" unicode="&#x121;" horiz-adv-x="487" 
d="M253 -182q65 0 104 25.5t39 71.5q0 29 -24 43.5t-83 14.5h-146q-37 -28 -37 -66q0 -47 36.5 -68t110.5 -21zM251 176q35 0 47.5 31t12.5 107q0 69 -15.5 103t-53.5 34q-36 0 -48 -30.5t-12 -106.5q0 -74 15.5 -106t53.5 -32zM247 469q50 0 94 -14q19 43 49.5 70.5
t68.5 27.5q31 0 47.5 -16.5t16.5 -42.5q0 -22 -14 -37.5t-39 -15.5q-21 0 -38 17t-17 43q-34 -15 -56 -53q98 -40 98 -132q0 -72 -58.5 -115t-151.5 -43q-31 0 -64 5q-54 -15 -54 -44q0 -30 83 -30h117q165 0 165 -120q0 -70 -75 -119.5t-192 -49.5q-95 0 -156 26t-61 69
q0 32 25 51t84 28v2q-42 14 -63 41.5t-21 58.5q0 27 31.5 55t85.5 39q-116 36 -116 142q0 71 59 114t152 43zM254 529q-40 0 -64.5 22.5t-24.5 63.5t24.5 66t64.5 25q41 0 65 -23.5t24 -63.5q0 -41 -24 -65.5t-65 -24.5z" />
    <glyph glyph-name="Gcommaaccent" unicode="&#x122;" horiz-adv-x="764" 
d="M399 -17q-161 0 -260 97.5t-99 266.5q0 164 106.5 265.5t268.5 101.5q105 0 188 -47l52 52h12v-253h-16q-58 118 -112.5 173.5t-129.5 55.5q-82 0 -134 -88.5t-52 -257.5t53.5 -258t139.5 -89q66 0 105 30v227q0 27 -23 40t-83 15v13h339v-13q-42 -2 -58 -13t-16 -41
v-205q-124 -72 -281 -72zM314 -342l-8 12q88 54 93 123l-4 2q-14 -6 -28 -6q-26 0 -46.5 20t-20.5 53q0 32 21 55t54 23q40 0 64 -27.5t24 -71.5q0 -57 -38.5 -105t-110.5 -78z" />
    <glyph glyph-name="gcommaaccent" unicode="&#x123;" horiz-adv-x="487" 
d="M253 -182q65 0 104 25.5t39 71.5q0 29 -24 43.5t-83 14.5h-146q-37 -28 -37 -66q0 -47 36.5 -68t110.5 -21zM251 176q35 0 47.5 31t12.5 107q0 69 -15.5 103t-53.5 34q-36 0 -48 -30.5t-12 -106.5q0 -74 15.5 -106t53.5 -32zM247 469q50 0 94 -14q19 43 49.5 70.5
t68.5 27.5q31 0 47.5 -16.5t16.5 -42.5q0 -22 -14 -37.5t-39 -15.5q-21 0 -38 17t-17 43q-34 -15 -56 -53q98 -40 98 -132q0 -72 -58.5 -115t-151.5 -43q-31 0 -64 5q-54 -15 -54 -44q0 -30 83 -30h117q165 0 165 -120q0 -70 -75 -119.5t-192 -49.5q-95 0 -156 26t-61 69
q0 32 25 51t84 28v2q-42 14 -63 41.5t-21 58.5q0 27 31.5 55t85.5 39q-116 36 -116 142q0 71 59 114t152 43zM320 816l8 -12q-88 -54 -93 -123l4 -2q14 6 28 6q26 0 46.5 -20t20.5 -53q0 -32 -21 -55t-54 -23q-40 0 -64 27.5t-24 71.5q0 57 38.5 105t110.5 78z" />
    <glyph glyph-name="Hbar" unicode="&#x126;" horiz-adv-x="854" 
d="M29 0v14q60 2 80 13t20 38v446h-93v24h93v97q0 28 -20.5 39t-79.5 13v13h361v-13q-50 -2 -71.5 -13.5t-21.5 -38.5v-97h260v97q0 27 -22 38.5t-71 13.5v13h361v-13q-60 -2 -80 -13t-20 -39v-97h93v-24h-93v-446q0 -28 20 -38.5t80 -12.5v-14h-361v14q49 2 71 13t22 38
v287h-260v-287q0 -27 21.5 -38t71.5 -13v-14h-361zM297 372h260v139h-260v-139z" />
    <glyph glyph-name="hbar" unicode="&#x127;" horiz-adv-x="606" 
d="M13 0v12q40 1 53.5 8.5t13.5 26.5v525h-65v22h65v50q0 25 -14 36.5t-57 12.5v12l225 12v-123h128v-22h-128v-201q32 45 78.5 71.5t94.5 26.5q128 0 128 -149v-273q0 -19 13 -26.5t55 -8.5v-12h-272v12q50 1 50 35v272q0 83 -67 83q-39 0 -80 -51v-304q0 -34 50 -35v-12
h-271z" />
    <glyph glyph-name="Imacron" unicode="&#x12a;" horiz-adv-x="447" 
d="M37 0v14q61 2 82 13t21 38v567q0 27 -21 38.5t-82 13.5v13h373v-13q-61 -2 -82 -13.5t-21 -38.5v-567q0 -27 21 -38t82 -13v-14h-373zM70 794v51h308v-51h-308z" />
    <glyph glyph-name="imacron" unicode="&#x12b;" horiz-adv-x="325" 
d="M31 558v51h262v-51h-262zM16 0v12q42 1 57 8.5t15 26.5v346q0 24 -15.5 36t-56.5 13v12l226 12v-419q0 -19 13 -26.5t54 -8.5v-12h-293z" />
    <glyph glyph-name="Ibreve" unicode="&#x12c;" horiz-adv-x="447" 
d="M37 0v14q61 2 82 13t21 38v567q0 27 -21 38.5t-82 13.5v13h373v-13q-61 -2 -82 -13.5t-21 -38.5v-567q0 -27 21 -38t82 -13v-14h-373zM224 769q-59 0 -98.5 44.5t-45.5 127.5h15q14 -41 49 -62.5t78 -21.5q45 0 80.5 22t48.5 62h15q-5 -84 -44 -128t-98 -44z" />
    <glyph glyph-name="ibreve" unicode="&#x12d;" horiz-adv-x="325" 
d="M16 0v12q42 1 57 8.5t15 26.5v346q0 24 -15.5 36t-56.5 13v12l226 12v-419q0 -19 13 -26.5t54 -8.5v-12h-293zM163 529q-59 0 -98.5 44.5t-45.5 127.5h15q14 -41 49 -62.5t78 -21.5q45 0 80.5 22t48.5 62h15q-5 -84 -44 -128t-98 -44z" />
    <glyph glyph-name="Iogonek" unicode="&#x12e;" horiz-adv-x="447" 
d="M37 0v14q61 2 82 13t21 38v567q0 27 -21 38.5t-82 13.5v13h373v-13q-61 -2 -82 -13.5t-21 -38.5v-567q0 -27 21 -38t82 -13v-14h-146l-19 -22q-54 -60 -54 -123q0 -65 55 -65q34 0 68 19l6 -12q-22 -19 -62 -31.5t-75 -12.5q-45 0 -71 22t-26 62q0 42 28.5 73t80.5 64
l41 26h-199z" />
    <glyph glyph-name="iogonek" unicode="&#x12f;" horiz-adv-x="325" 
d="M21 0v12q42 1 57 8.5t15 26.5v346q0 24 -15.5 36t-56.5 13v12l226 12v-419q0 -19 13 -26.5t54 -8.5v-12h-87l-19 -22q-54 -60 -54 -123q0 -65 55 -65q34 0 68 19l6 -12q-22 -19 -62 -31.5t-75 -12.5q-45 0 -71 22t-26 62q0 42 28.5 73t80.5 64l41 26h-178zM168 534
q-40 0 -64.5 22.5t-24.5 63.5t24.5 66t64.5 25q41 0 65 -23.5t24 -63.5q0 -41 -24 -65.5t-65 -24.5z" />
    <glyph glyph-name="Idotaccent" unicode="&#x130;" horiz-adv-x="447" 
d="M37 0v14q61 2 82 13t21 38v567q0 27 -21 38.5t-82 13.5v13h373v-13q-61 -2 -82 -13.5t-21 -38.5v-567q0 -27 21 -38t82 -13v-14h-373zM223 769q-40 0 -64.5 22.5t-24.5 63.5t24.5 66t64.5 25q41 0 65 -23.5t24 -63.5q0 -41 -24 -65.5t-65 -24.5z" />
    <glyph glyph-name="dotlessi" unicode="&#x131;" horiz-adv-x="325" 
d="M16 0v12q42 1 57 8.5t15 26.5v346q0 24 -15.5 36t-56.5 13v12l226 12v-419q0 -19 13 -26.5t54 -8.5v-12h-293z" />
    <glyph glyph-name="Kcommaaccent" unicode="&#x136;" horiz-adv-x="766" 
d="M287 311l215 237q32 35 43.5 62.5t-3 48t-59.5 25.5v13h271v-13q-64 -14 -125 -56t-136 -123l-48 -52l227 -331q30 -43 42.5 -59t35 -31t51.5 -18v-14h-348v14q52 4 59.5 22.5t-21.5 61.5l-157 235l-47 -51v-217q0 -27 21.5 -38t71.5 -13v-14h-361v14q60 2 80 13t20 38
v567q0 28 -20.5 39t-79.5 13v13h361v-13q-50 -2 -71.5 -13.5t-21.5 -38.5v-321zM327 -342l-8 12q88 54 93 123l-4 2q-14 -6 -28 -6q-26 0 -46.5 20t-20.5 53q0 32 21 55t54 23q40 0 64 -27.5t24 -71.5q0 -57 -38.5 -105t-110.5 -78z" />
    <glyph glyph-name="kcommaaccent" unicode="&#x137;" horiz-adv-x="579" 
d="M234 187v-140q0 -34 50 -35v-12h-271v12q40 1 53.5 8.5t13.5 26.5v597q0 25 -14 36.5t-57 12.5v12l225 12v-506l127 139q34 41 25.5 63.5t-56.5 38.5v12h231v-12q-93 -24 -186 -117l-17 -17l162 -245q25 -38 39.5 -47.5t50.5 -13.5v-12h-279v12q32 2 37.5 11.5
t-11.5 38.5l-95 155zM221 -342l-8 12q88 54 93 123l-4 2q-14 -6 -28 -6q-26 0 -46.5 20t-20.5 53q0 32 21 55t54 23q40 0 64 -27.5t24 -71.5q0 -57 -38.5 -105t-110.5 -78z" />
    <glyph glyph-name="Lacute" unicode="&#x139;" horiz-adv-x="678" 
d="M19 0v14q59 2 79.5 13t20.5 38v567q0 27 -20.5 38.5t-79.5 13.5v13h367v-13q-60 -2 -79.5 -13t-19.5 -39v-614h45q76 0 123 24t82 74t84 156l16 -1l-9 -271h-609zM200 764l26 124q14 68 28 92t44 24q27 0 47 -17t20 -41q0 -17 -13 -35t-57 -65l-76 -82h-19z" />
    <glyph glyph-name="lacute" unicode="&#x13a;" horiz-adv-x="311" 
d="M13 0v12q40 1 53.5 8.5t13.5 26.5v597q0 25 -14 36.5t-57 12.5v12l225 12v-670q0 -19 13 -26.5t54 -8.5v-12h-288zM110 757l26 124q14 68 28 92t44 24q27 0 47 -17t20 -41q0 -17 -13 -35t-57 -65l-76 -82h-19z" />
    <glyph glyph-name="Lcommaaccent" unicode="&#x13b;" horiz-adv-x="678" 
d="M19 0v14q59 2 79.5 13t20.5 38v567q0 27 -20.5 38.5t-79.5 13.5v13h367v-13q-60 -2 -79.5 -13t-19.5 -39v-614h45q76 0 123 24t82 74t84 156l16 -1l-9 -271h-609zM271 -342l-8 12q88 54 93 123l-4 2q-13 -6 -28 -6q-26 0 -46.5 20t-20.5 53q0 32 21 55t54 23
q40 0 64 -27.5t24 -71.5q0 -57 -38.5 -105t-110.5 -78z" />
    <glyph glyph-name="lcommaaccent" unicode="&#x13c;" horiz-adv-x="311" 
d="M13 0v12q40 1 53.5 8.5t13.5 26.5v597q0 25 -14 36.5t-57 12.5v12l225 12v-670q0 -19 13 -26.5t54 -8.5v-12h-288zM87 -342l-8 12q88 54 93 123l-4 2q-14 -6 -28 -6q-26 0 -46.5 20t-20.5 53q0 32 21 55t54 23q40 0 64 -27.5t24 -71.5q0 -57 -38.5 -105t-110.5 -78z" />
    <glyph glyph-name="Lcaron" unicode="&#x13d;" horiz-adv-x="678" 
d="M19 0v14q59 2 79.5 13t20.5 38v567q0 27 -20.5 38.5t-79.5 13.5v13h367v-13q-60 -2 -79.5 -13t-19.5 -39v-614h45q76 0 123 24t82 74t84 156l16 -1l-9 -271h-609zM460 508l-16 143q-3 30 -3 45q0 30 16 43t39 13t38 -12t15 -32t-18 -66l-55 -134h-16z" />
    <glyph glyph-name="lcaron" unicode="&#x13e;" horiz-adv-x="311" 
d="M13 0v12q40 1 53.5 8.5t13.5 26.5v597q0 25 -14 36.5t-57 12.5v12l225 12v-670q0 -19 13 -26.5t54 -8.5v-12h-288zM323 528l-16 143q-3 30 -3 45q0 30 16 43t39 13t38 -12t15 -32t-18 -66l-55 -134h-16z" />
    <glyph glyph-name="Ldot" unicode="&#x13f;" horiz-adv-x="678" 
d="M19 0v14q59 2 79.5 13t20.5 38v567q0 27 -20.5 38.5t-79.5 13.5v13h367v-13q-60 -2 -79.5 -13t-19.5 -39v-614h45q76 0 123 22t82 68t84 144l16 -1l-9 -251h-609zM525 309q-40 0 -64.5 22.5t-24.5 63.5t24.5 66t64.5 25q41 0 65 -23.5t24 -63.5q0 -41 -24 -65.5
t-65 -24.5z" />
    <glyph glyph-name="ldot" unicode="&#x140;" horiz-adv-x="460" 
d="M387 234q-39 0 -62 22t-23 60q0 40 23.5 64t61.5 24q39 0 62 -23t23 -61q0 -40 -23 -63t-62 -23zM13 0v12q40 1 53.5 8.5t13.5 26.5v597q0 25 -14 36.5t-57 12.5v12l225 12v-670q0 -19 13 -26.5t54 -8.5v-12h-288z" />
    <glyph glyph-name="Lslash" unicode="&#x141;" horiz-adv-x="678" 
d="M19 0v14q59 2 79.5 13t20.5 38v244l-90 -24l-7 26l97 25v296q0 27 -20.5 38.5t-79.5 13.5v13h367v-13q-60 -2 -79.5 -13t-19.5 -39v-252l141 37l6 -24l-147 -39v-336h45q76 0 123 24t82 74t84 156l16 -1l-9 -271h-609z" />
    <glyph glyph-name="lslash" unicode="&#x142;" horiz-adv-x="351" 
d="M33 0v12q40 1 53.5 8.5t13.5 26.5v272l-74 -20l-6 22l80 21v302q0 25 -14 36.5t-57 12.5v12l225 12v-333l78 21l6 -22l-84 -23v-313q0 -19 13 -26.5t54 -8.5v-12h-288z" />
    <glyph glyph-name="Nacute" unicode="&#x143;" horiz-adv-x="819" 
d="M625 -9l-447 569h-1v-388q0 -77 31.5 -114t107.5 -44v-14h-288v14q69 8 96.5 44t27.5 114v394q0 49 -31 81.5t-93 36.5v13h254l376 -481h1v310q0 75 -33 112.5t-108 45.5v13h290v-13q-69 -10 -96.5 -46t-27.5 -112v-535h-59zM407 754l26 124q14 68 28 92t44 24
q27 0 47 -17t20 -41q0 -17 -13 -35t-57 -65l-76 -82h-19z" />
    <glyph glyph-name="nacute" unicode="&#x144;" horiz-adv-x="610" 
d="M20 0v12q41 1 54.5 8.5t13.5 26.5v346q0 25 -14 36.5t-54 12.5v12l220 12v-95q32 45 78.5 71.5t94.5 26.5q127 0 127 -149v-273q0 -19 13 -26.5t54 -8.5v-12h-272v12q51 1 51 35v272q0 83 -64 83q-39 0 -80 -51v-304q0 -34 49 -35v-12h-271zM279 524l26 124q14 68 28 92
t44 24q27 0 47 -17t20 -41q0 -17 -13 -35t-57 -65l-76 -82h-19z" />
    <glyph glyph-name="Ncommaaccent" unicode="&#x145;" horiz-adv-x="819" 
d="M625 -9l-447 569h-1v-388q0 -77 31.5 -114t107.5 -44v-14h-288v14q69 8 96.5 44t27.5 114v394q0 49 -31 81.5t-93 36.5v13h254l376 -481h1v310q0 75 -33 112.5t-108 45.5v13h290v-13q-69 -10 -96.5 -46t-27.5 -112v-535h-59zM350 -342l-8 12q88 54 93 123l-4 2
q-14 -6 -28 -6q-26 0 -46.5 20t-20.5 53q0 32 21 55t54 23q40 0 64 -27.5t24 -71.5q0 -57 -38.5 -105t-110.5 -78z" />
    <glyph glyph-name="ncommaaccent" unicode="&#x146;" horiz-adv-x="610" 
d="M20 0v12q41 1 54.5 8.5t13.5 26.5v346q0 25 -14 36.5t-54 12.5v12l220 12v-95q32 45 78.5 71.5t94.5 26.5q127 0 127 -149v-273q0 -19 13 -26.5t54 -8.5v-12h-272v12q51 1 51 35v272q0 83 -64 83q-39 0 -80 -51v-304q0 -34 49 -35v-12h-271zM241 -342l-8 12q88 54 93 123
l-4 2q-14 -6 -28 -6q-26 0 -46.5 20t-20.5 53q0 32 21 55t54 23q40 0 64 -27.5t24 -71.5q0 -57 -38.5 -105t-110.5 -78z" />
    <glyph glyph-name="Ncaron" unicode="&#x147;" horiz-adv-x="819" 
d="M625 -9l-447 569h-1v-388q0 -77 31.5 -114t107.5 -44v-14h-288v14q69 8 96.5 44t27.5 114v394q0 49 -31 81.5t-93 36.5v13h254l376 -481h1v310q0 75 -33 112.5t-108 45.5v13h290v-13q-69 -10 -96.5 -46t-27.5 -112v-535h-59zM417 754l-141 213h16l135 -86l136 86h16
l-149 -213h-13z" />
    <glyph glyph-name="ncaron" unicode="&#x148;" horiz-adv-x="610" 
d="M20 0v12q41 1 54.5 8.5t13.5 26.5v346q0 25 -14 36.5t-54 12.5v12l220 12v-95q32 45 78.5 71.5t94.5 26.5q127 0 127 -149v-273q0 -19 13 -26.5t54 -8.5v-12h-272v12q51 1 51 35v272q0 83 -64 83q-39 0 -80 -51v-304q0 -34 49 -35v-12h-271zM307 524l-141 213h16l135 -86
l136 86h16l-149 -213h-13z" />
    <glyph glyph-name="Omacron" unicode="&#x14c;" 
d="M391 -17q-158 0 -254.5 98.5t-96.5 265.5q0 166 98 266.5t253 100.5q159 0 255.5 -98t96.5 -265t-98 -267.5t-254 -100.5zM396 2q87 0 125.5 83t38.5 264q0 178 -42.5 262t-130.5 84q-86 0 -125 -83t-39 -263q0 -179 42.5 -263t130.5 -84zM238 794v51h308v-51h-308z" />
    <glyph glyph-name="omacron" unicode="&#x14d;" horiz-adv-x="549" 
d="M275 -8q-119 0 -184 63t-65 176q0 112 67 176.5t182 64.5q118 0 183 -62.5t65 -174.5t-67 -177.5t-181 -65.5zM279 12q32 0 50.5 28.5t24.5 74t6 118.5q0 107 -20.5 163t-69.5 56q-47 0 -64 -54t-17 -165q0 -221 90 -221zM121 554v51h308v-51h-308z" />
    <glyph glyph-name="Obreve" unicode="&#x14e;" 
d="M391 -17q-158 0 -254.5 98.5t-96.5 265.5q0 166 98 266.5t253 100.5q159 0 255.5 -98t96.5 -265t-98 -267.5t-254 -100.5zM396 2q87 0 125.5 83t38.5 264q0 178 -42.5 262t-130.5 84q-86 0 -125 -83t-39 -263q0 -179 42.5 -263t130.5 -84zM392 769q-59 0 -98.5 44.5
t-45.5 127.5h15q14 -41 49 -62.5t78 -21.5q45 0 80.5 22t48.5 62h15q-5 -84 -44 -128t-98 -44z" />
    <glyph glyph-name="obreve" unicode="&#x14f;" horiz-adv-x="549" 
d="M275 -8q-119 0 -184 63t-65 176q0 112 67 176.5t182 64.5q118 0 183 -62.5t65 -174.5t-67 -177.5t-181 -65.5zM279 12q32 0 50.5 28.5t24.5 74t6 118.5q0 107 -20.5 163t-69.5 56q-47 0 -64 -54t-17 -165q0 -221 90 -221zM275 529q-59 0 -98.5 44.5t-45.5 127.5h15
q14 -41 49 -62.5t78 -21.5q45 0 80.5 22t48.5 62h15q-5 -84 -44 -128t-98 -44z" />
    <glyph glyph-name="Ohungarumlaut" unicode="&#x150;" 
d="M391 -17q-158 0 -254.5 98.5t-96.5 265.5q0 166 98 266.5t253 100.5q159 0 255.5 -98t96.5 -265t-98 -267.5t-254 -100.5zM396 2q87 0 125.5 83t38.5 264q0 178 -42.5 262t-130.5 84q-86 0 -125 -83t-39 -263q0 -179 42.5 -263t130.5 -84zM462 764l46 126
q24 67 40.5 89.5t44.5 22.5q23 0 37.5 -14t14.5 -36q0 -19 -14.5 -39t-65.5 -66l-92 -83h-11zM295 764l46 126q24 67 40.5 89.5t44.5 22.5q23 0 37.5 -14t14.5 -36q0 -19 -14.5 -39t-65.5 -66l-92 -83h-11z" />
    <glyph glyph-name="ohungarumlaut" unicode="&#x151;" horiz-adv-x="549" 
d="M275 -8q-119 0 -184 63t-65 176q0 112 67 176.5t182 64.5q118 0 183 -62.5t65 -174.5t-67 -177.5t-181 -65.5zM279 12q32 0 50.5 28.5t24.5 74t6 118.5q0 107 -20.5 163t-69.5 56q-47 0 -64 -54t-17 -165q0 -221 90 -221zM332 524l46 126q24 67 40.5 89.5t44.5 22.5
q23 0 37.5 -14t14.5 -36q0 -19 -14.5 -39t-65.5 -66l-92 -83h-11zM165 524l46 126q24 67 40.5 89.5t44.5 22.5q23 0 37.5 -14t14.5 -36q0 -19 -14.5 -39t-65.5 -66l-92 -83h-11z" />
    <glyph glyph-name="OE" unicode="&#x152;" horiz-adv-x="1092" 
d="M421 0q-187 0 -284 90.5t-97 244.5q0 74 20.5 137t62 114.5t113.5 81t167 29.5h600l3 -247l-16 -2l-36.5 76t-31.5 57t-33.5 46t-36 29t-45 19.5t-55.5 4.5h-92v-310h33q60 0 97 31.5t57 103.5h13v-289h-13q-20 73 -57 105t-97 32h-33v-335h85q56 0 93 11t68.5 43.5
t53.5 73t56 117.5l16 -2l-5 -261h-606zM425 18q67 0 67 47v567q0 46 -63 46q-114 0 -161.5 -72t-47.5 -259q0 -96 15 -162.5t44.5 -102t64 -50t81.5 -14.5z" />
    <glyph glyph-name="oe" unicode="&#x153;" horiz-adv-x="839" 
d="M602 -8q-96 0 -161 57q-63 -57 -166 -57q-119 0 -184 63t-65 176q0 112 67 176.5t182 64.5q101 0 165 -59q64 59 161 59q106 0 162 -63t51 -168h-296v-14v-2q0 -190 147 -190q78 0 136 80l11 -7q-75 -116 -210 -116zM360 233q0 107 -20.5 163t-69.5 56q-47 0 -64 -54
t-17 -165q0 -221 90 -221q32 0 50.5 28.5t24.5 74t6 118.5zM595 452q-71 0 -77 -191h142q10 88 -7 139.5t-58 51.5z" />
    <glyph glyph-name="Racute" unicode="&#x154;" horiz-adv-x="750" 
d="M297 362h57q87 0 115.5 32t28.5 123q0 82 -34.5 122.5t-118.5 40.5h-48v-318zM297 346v-281q0 -27 22 -38t72 -13v-14h-362v14q59 2 79.5 13t20.5 38v567q0 27 -20.5 38.5t-79.5 13.5v13h361q147 0 213.5 -47t66.5 -122q0 -68 -49 -111t-163 -59v-3q103 -2 147 -42
t53 -114l7 -93q8 -57 25.5 -73t77.5 -18v-13q-48 -6 -107 -6q-52 0 -84 7t-50 24t-24.5 37.5t-9.5 56.5l-7 84q-7 80 -36.5 110.5t-110.5 30.5h-42zM331 764l26 124q14 68 28 92t44 24q27 0 47 -17t20 -41q0 -17 -13 -35t-57 -65l-76 -82h-19z" />
    <glyph glyph-name="racute" unicode="&#x155;" horiz-adv-x="476" 
d="M20 0v12q41 1 54.5 8.5t13.5 26.5v346q0 25 -14 36.5t-54 12.5v12l220 12v-94q23 45 60.5 71t79.5 26q45 0 70.5 -25t25.5 -65q0 -39 -22 -63.5t-57 -24.5q-39 0 -62 23t-23 55q0 19 8 45q-18 -2 -40.5 -19.5t-37.5 -42.5v-305q0 -18 18 -25.5t74 -9.5v-12h-314zM175 524
l26 124q14 68 28 92t44 24q27 0 47 -17t20 -41q0 -17 -13 -35t-57 -65l-76 -82h-19z" />
    <glyph glyph-name="Rcommaaccent" unicode="&#x156;" horiz-adv-x="750" 
d="M297 362h57q87 0 115.5 32t28.5 123q0 82 -34.5 122.5t-118.5 40.5h-48v-318zM297 346v-281q0 -27 22 -38t72 -13v-14h-362v14q59 2 79.5 13t20.5 38v567q0 27 -20.5 38.5t-79.5 13.5v13h361q147 0 213.5 -47t66.5 -122q0 -68 -49 -111t-163 -59v-3q103 -2 147 -42
t53 -114l7 -93q8 -57 25.5 -73t77.5 -18v-13q-48 -6 -107 -6q-52 0 -84 7t-50 24t-24.5 37.5t-9.5 56.5l-7 84q-7 80 -36.5 110.5t-110.5 30.5h-42zM323 -342l-8 12q88 54 93 123l-4 2q-14 -6 -28 -6q-26 0 -46.5 20t-20.5 53q0 32 21 55t54 23q40 0 64 -27.5t24 -71.5
q0 -57 -38.5 -105t-110.5 -78z" />
    <glyph glyph-name="rcommaaccent" unicode="&#x157;" horiz-adv-x="476" 
d="M20 0v12q41 1 54.5 8.5t13.5 26.5v346q0 25 -14 36.5t-54 12.5v12l220 12v-94q23 45 60.5 71t79.5 26q45 0 70.5 -25t25.5 -65q0 -39 -22 -63.5t-57 -24.5q-39 0 -62 23t-23 55q0 19 8 45q-18 -2 -40.5 -19.5t-37.5 -42.5v-305q0 -18 18 -25.5t74 -9.5v-12h-314zM99 -342
l-8 12q88 54 93 123l-4 2q-14 -6 -28 -6q-26 0 -46.5 20t-20.5 53q0 32 21 55t54 23q40 0 64 -27.5t24 -71.5q0 -57 -38.5 -105t-110.5 -78z" />
    <glyph glyph-name="Rcaron" unicode="&#x158;" horiz-adv-x="750" 
d="M297 362h57q87 0 115.5 32t28.5 123q0 82 -34.5 122.5t-118.5 40.5h-48v-318zM297 346v-281q0 -27 22 -38t72 -13v-14h-362v14q59 2 79.5 13t20.5 38v567q0 27 -20.5 38.5t-79.5 13.5v13h361q147 0 213.5 -47t66.5 -122q0 -68 -49 -111t-163 -59v-3q103 -2 147 -42
t53 -114l7 -93q8 -57 25.5 -73t77.5 -18v-13q-48 -6 -107 -6q-52 0 -84 7t-50 24t-24.5 37.5t-9.5 56.5l-7 84q-7 80 -36.5 110.5t-110.5 30.5h-42zM370 764l-141 213h16l135 -86l136 86h16l-149 -213h-13z" />
    <glyph glyph-name="rcaron" unicode="&#x159;" horiz-adv-x="476" 
d="M20 0v12q41 1 54.5 8.5t13.5 26.5v346q0 25 -14 36.5t-54 12.5v12l220 12v-94q23 45 60.5 71t79.5 26q45 0 70.5 -25t25.5 -65q0 -39 -22 -63.5t-57 -24.5q-39 0 -62 23t-23 55q0 19 8 45q-18 -2 -40.5 -19.5t-37.5 -42.5v-305q0 -18 18 -25.5t74 -9.5v-12h-314zM254 524
l-141 213h16l135 -86l136 86h16l-149 -213h-13z" />
    <glyph glyph-name="Sacute" unicode="&#x15a;" horiz-adv-x="595" 
d="M49 -17v257h16q55 -111 121 -172.5t134 -61.5q61 0 95.5 34.5t34.5 84.5q0 54 -42.5 89t-133.5 65q-50 16 -82 30.5t-67 38.5t-52 59t-17 81q0 100 67 161t176 61q83 0 156 -42l48 48h12v-230h-16q-56 107 -107 156t-107 49q-48 0 -83.5 -30t-35.5 -81q0 -53 43 -86.5
t137 -62.5q43 -14 73 -27.5t62.5 -37t49.5 -59t17 -81.5q0 -100 -62 -169.5t-183 -69.5q-43 0 -95 13.5t-90 34.5l-57 -52h-12zM256 764l26 124q14 68 28 92t44 24q27 0 47 -17t20 -41q0 -17 -13 -35t-57 -65l-76 -82h-19z" />
    <glyph glyph-name="sacute" unicode="&#x15b;" horiz-adv-x="452" 
d="M34 -8v176h15q51 -80 96.5 -118t97.5 -38q35 0 54.5 18t19.5 50q0 33 -26 51.5t-106 42.5q-83 25 -117 55t-34 85q0 73 51.5 115.5t138.5 42.5q80 0 136 -37l30 37h12v-158h-15q-48 74 -83 106t-80 32q-32 0 -51 -19.5t-19 -53.5q0 -29 27 -45t80 -29q88 -21 130 -54.5
t42 -95.5q0 -71 -56.5 -117t-143.5 -46q-28 0 -83 13.5t-74 25.5l-30 -39h-12zM184 524l26 124q14 68 28 92t44 24q27 0 47 -17t20 -41q0 -17 -13 -35t-57 -65l-76 -82h-19z" />
    <glyph glyph-name="Scedilla" unicode="&#x15e;" horiz-adv-x="595" 
d="M268 -251q-60 0 -103 16l8 17q47 -11 76 -11q54 0 54 45q0 22 -21.5 35.5t-59.5 13.5q-11 0 -33 -4l-6 9l120 117q-43 0 -95 13.5t-90 34.5l-57 -52h-12v257h16q55 -111 121 -172.5t134 -61.5q61 0 95.5 34.5t34.5 84.5q0 54 -42.5 89t-133.5 65q-50 16 -82 30.5
t-67 38.5t-52 59t-17 81q0 100 67 161t176 61q83 0 156 -42l48 48h12v-230h-16q-56 107 -107 156t-107 49q-48 0 -83.5 -30t-35.5 -81q0 -53 43 -86.5t137 -62.5q43 -14 73 -27.5t62.5 -37t49.5 -59t17 -81.5q0 -60 -22 -110.5t-72.5 -86t-122.5 -41.5l-54 -52l2 -3
q60 -3 91 -30t31 -61q0 -42 -35 -67.5t-98 -25.5z" />
    <glyph glyph-name="scedilla" unicode="&#x15f;" horiz-adv-x="452" 
d="M201 -251q-60 0 -103 16l8 17q47 -11 76 -11q54 0 54 45q0 22 -21.5 35.5t-59.5 13.5q-11 0 -33 -4l-6 9l126 122h-9q-28 0 -83 13.5t-74 25.5l-30 -39h-12v176h15q51 -80 96.5 -118t97.5 -38q35 0 54.5 18t19.5 50q0 33 -26 51.5t-106 42.5q-83 25 -117 55t-34 85
q0 73 51.5 115.5t138.5 42.5q80 0 136 -37l30 37h12v-158h-15q-48 74 -83 106t-80 32q-32 0 -51 -19.5t-19 -53.5q0 -29 27 -45t80 -29q88 -21 130 -54.5t42 -95.5q0 -63 -45 -107t-118 -53l-60 -59l2 -3q60 -3 91 -30t31 -61q0 -42 -35 -67.5t-98 -25.5z" />
    <glyph glyph-name="Scaron" unicode="&#x160;" horiz-adv-x="595" 
d="M49 -17v257h16q55 -111 121 -172.5t134 -61.5q61 0 95.5 34.5t34.5 84.5q0 54 -42.5 89t-133.5 65q-50 16 -82 30.5t-67 38.5t-52 59t-17 81q0 100 67 161t176 61q83 0 156 -42l48 48h12v-230h-16q-56 107 -107 156t-107 49q-48 0 -83.5 -30t-35.5 -81q0 -53 43 -86.5
t137 -62.5q43 -14 73 -27.5t62.5 -37t49.5 -59t17 -81.5q0 -100 -62 -169.5t-183 -69.5q-43 0 -95 13.5t-90 34.5l-57 -52h-12zM297 764l-141 213h16l135 -86l136 86h16l-149 -213h-13z" />
    <glyph glyph-name="scaron" unicode="&#x161;" horiz-adv-x="452" 
d="M34 -8v176h15q51 -80 96.5 -118t97.5 -38q35 0 54.5 18t19.5 50q0 33 -26 51.5t-106 42.5q-83 25 -117 55t-34 85q0 73 51.5 115.5t138.5 42.5q80 0 136 -37l30 37h12v-158h-15q-48 74 -83 106t-80 32q-32 0 -51 -19.5t-19 -53.5q0 -29 27 -45t80 -29q88 -21 130 -54.5
t42 -95.5q0 -71 -56.5 -117t-143.5 -46q-28 0 -83 13.5t-74 25.5l-30 -39h-12zM230 524l-141 213h16l135 -86l136 86h16l-149 -213h-13z" />
    <glyph glyph-name="Tcommaaccent" unicode="&#x162;" horiz-adv-x="745" 
d="M175 0v14q65 1 89.5 12.5t24.5 38.5v615h-15q-55 0 -102 -53.5t-109 -170.5l-16 2l6 239h640l5 -239l-16 -2q-62 117 -109 170.5t-102 53.5h-14v-615q0 -27 24.5 -38.5t89.5 -12.5v-14h-396zM306 -342l-8 12q88 54 93 123l-4 2q-13 -6 -28 -6q-26 0 -46.5 20t-20.5 53
q0 32 21 55t54 23q40 0 64 -27.5t24 -71.5q0 -57 -38.5 -105t-110.5 -78z" />
    <glyph glyph-name="tcommaaccent" unicode="&#x163;" horiz-adv-x="393" 
d="M242 -8q-68 0 -109.5 34t-41.5 111v285h-87v19l89 18v127l152 42v-171h141v-33h-141v-296q0 -43 13 -63t46 -20q46 0 73 64l13 -6q-21 -58 -55 -84.5t-93 -26.5zM133 -342l-8 12q88 54 93 123l-4 2q-14 -6 -28 -6q-26 0 -46.5 20t-20.5 53q0 32 21 55t54 23
q40 0 64 -27.5t24 -71.5q0 -57 -38.5 -105t-110.5 -78z" />
    <glyph glyph-name="Tcaron" unicode="&#x164;" horiz-adv-x="745" 
d="M175 0v14q65 1 89.5 12.5t24.5 38.5v615h-15q-55 0 -102 -53.5t-109 -170.5l-16 2l6 239h640l5 -239l-16 -2q-62 117 -109 170.5t-102 53.5h-14v-615q0 -27 24.5 -38.5t89.5 -12.5v-14h-396zM362 764l-141 213h16l135 -86l136 86h16l-149 -213h-13z" />
    <glyph glyph-name="tcaron" unicode="&#x165;" horiz-adv-x="393" 
d="M242 -8q-68 0 -109.5 34t-41.5 111v285h-87v19l89 18v127l152 42v-171h141v-33h-141v-296q0 -43 13 -63t46 -20q46 0 73 64l13 -6q-21 -58 -55 -84.5t-93 -26.5zM324 528l-16 143q-3 30 -3 45q0 30 16 43t39 13t38 -12t15 -32t-18 -66l-55 -134h-16z" />
    <glyph glyph-name="Umacron" unicode="&#x16a;" horiz-adv-x="821" 
d="M418 -17q-147 0 -222 60t-75 189v400q0 27 -20.5 38.5t-79.5 13.5v13h360v-13q-48 -2 -70 -13.5t-22 -38.5v-420q0 -194 182 -194q80 0 124 44q57 57 57 169v295q0 76 -32.5 113t-107.5 45v13h292v-13q-69 -10 -97 -46t-28 -112v-295q0 -248 -261 -248zM265 794v51h308
v-51h-308z" />
    <glyph glyph-name="umacron" unicode="&#x16b;" horiz-adv-x="601" 
d="M218 -8q-67 0 -104.5 38.5t-37.5 112.5v258q0 25 -14 36.5t-54 12.5v12l222 4v-319q0 -85 66 -85q41 0 76 47v292q0 24 -14.5 35.5t-53.5 12.5v12l222 5v-415q0 -22 13 -29.5t55 -9.5v-12h-220v89q-60 -97 -156 -97zM153 554v51h308v-51h-308z" />
    <glyph glyph-name="Ubreve" unicode="&#x16c;" horiz-adv-x="821" 
d="M418 -17q-147 0 -222 60t-75 189v400q0 27 -20.5 38.5t-79.5 13.5v13h360v-13q-48 -2 -70 -13.5t-22 -38.5v-420q0 -194 182 -194q80 0 124 44q57 57 57 169v295q0 76 -32.5 113t-107.5 45v13h292v-13q-69 -10 -97 -46t-28 -112v-295q0 -248 -261 -248zM431 769
q-59 0 -98.5 44.5t-45.5 127.5h15q14 -41 49 -62.5t78 -21.5q45 0 80.5 22t48.5 62h15q-5 -84 -44 -128t-98 -44z" />
    <glyph glyph-name="ubreve" unicode="&#x16d;" horiz-adv-x="601" 
d="M218 -8q-67 0 -104.5 38.5t-37.5 112.5v258q0 25 -14 36.5t-54 12.5v12l222 4v-319q0 -85 66 -85q41 0 76 47v292q0 24 -14.5 35.5t-53.5 12.5v12l222 5v-415q0 -22 13 -29.5t55 -9.5v-12h-220v89q-60 -97 -156 -97zM301 529q-59 0 -98.5 44.5t-45.5 127.5h15
q14 -41 49 -62.5t78 -21.5q45 0 80.5 22t48.5 62h15q-5 -84 -44 -128t-98 -44z" />
    <glyph glyph-name="Uring" unicode="&#x16e;" horiz-adv-x="821" 
d="M418 -17q-147 0 -222 60t-75 189v400q0 27 -20.5 38.5t-79.5 13.5v13h360v-13q-48 -2 -70 -13.5t-22 -38.5v-420q0 -194 182 -194q80 0 124 44q57 57 57 169v295q0 76 -32.5 113t-107.5 45v13h292v-13q-69 -10 -97 -46t-28 -112v-295q0 -248 -261 -248zM434 769
q-61 0 -95.5 30t-34.5 80q0 49 35.5 79.5t94.5 30.5q61 0 95.5 -30t34.5 -79t-35 -80t-95 -31zM436 787q46 0 46 92t-50 92q-46 0 -46 -92t50 -92z" />
    <glyph glyph-name="uring" unicode="&#x16f;" horiz-adv-x="601" 
d="M218 -8q-67 0 -104.5 38.5t-37.5 112.5v258q0 25 -14 36.5t-54 12.5v12l222 4v-319q0 -85 66 -85q41 0 76 47v292q0 24 -14.5 35.5t-53.5 12.5v12l222 5v-415q0 -22 13 -29.5t55 -9.5v-12h-220v89q-60 -97 -156 -97zM301 529q-61 0 -95.5 30t-34.5 80q0 49 35.5 79.5
t94.5 30.5q61 0 95.5 -30t34.5 -79t-35 -80t-95 -31zM303 547q46 0 46 92t-50 92q-46 0 -46 -92t50 -92z" />
    <glyph glyph-name="Uhungarumlaut" unicode="&#x170;" horiz-adv-x="821" 
d="M418 -17q-147 0 -222 60t-75 189v400q0 27 -20.5 38.5t-79.5 13.5v13h360v-13q-48 -2 -70 -13.5t-22 -38.5v-420q0 -194 182 -194q80 0 124 44q57 57 57 169v295q0 76 -32.5 113t-107.5 45v13h292v-13q-69 -10 -97 -46t-28 -112v-295q0 -248 -261 -248zM479 764l46 126
q24 67 40.5 89.5t44.5 22.5q23 0 37.5 -14t14.5 -36q0 -19 -14.5 -39t-65.5 -66l-92 -83h-11zM312 764l46 126q24 67 40.5 89.5t44.5 22.5q23 0 37.5 -14t14.5 -36q0 -19 -14.5 -39t-65.5 -66l-92 -83h-11z" />
    <glyph glyph-name="uhungarumlaut" unicode="&#x171;" horiz-adv-x="601" 
d="M218 -8q-67 0 -104.5 38.5t-37.5 112.5v258q0 25 -14 36.5t-54 12.5v12l222 4v-319q0 -85 66 -85q41 0 76 47v292q0 24 -14.5 35.5t-53.5 12.5v12l222 5v-415q0 -22 13 -29.5t55 -9.5v-12h-220v89q-60 -97 -156 -97zM354 524l46 126q24 67 40.5 89.5t44.5 22.5
q23 0 37.5 -14t14.5 -36q0 -19 -14.5 -39t-65.5 -66l-92 -83h-11zM187 524l46 126q24 67 40.5 89.5t44.5 22.5q23 0 37.5 -14t14.5 -36q0 -19 -14.5 -39t-65.5 -66l-92 -83h-11z" />
    <glyph glyph-name="Uogonek" unicode="&#x172;" horiz-adv-x="821" 
d="M418 -17q-147 0 -222 60t-75 189v400q0 27 -20.5 38.5t-79.5 13.5v13h360v-13q-48 -2 -70 -13.5t-22 -38.5v-420q0 -194 182 -194q80 0 124 44q57 57 57 169v295q0 76 -32.5 113t-107.5 45v13h292v-13q-69 -10 -97 -46t-28 -112v-295q0 -221 -207 -245l-7 -8
q-54 -60 -54 -123q0 -65 55 -65q34 0 68 19l6 -12q-22 -19 -62 -31.5t-75 -12.5q-45 0 -71 22t-26 62q0 42 28.5 73t80.5 64l14 9h-11z" />
    <glyph glyph-name="uogonek" unicode="&#x173;" horiz-adv-x="601" 
d="M218 -8q-67 0 -104.5 38.5t-37.5 112.5v258q0 25 -14 36.5t-54 12.5v12l222 4v-319q0 -85 66 -85q41 0 76 47v292q0 24 -14.5 35.5t-53.5 12.5v12l222 5v-415q0 -22 13 -29.5t55 -9.5v-12h-62l-19 -22q-54 -60 -54 -123q0 -65 55 -65q34 0 68 19l6 -12q-22 -19 -62 -31.5
t-75 -12.5q-45 0 -71 22t-26 62q0 42 28.5 73t80.5 64l41 26h-130v89q-60 -97 -156 -97z" />
    <glyph glyph-name="Wcircumflex" unicode="&#x174;" horiz-adv-x="1057" 
d="M530 502l-30 85q-18 52 -38.5 73.5t-63.5 23.5v13h348v-13q-59 -3 -76 -21.5t-3 -60.5l137 -414h6l114 367q19 58 2.5 88t-74.5 41v13h229v-13q-57 -11 -85 -43t-57 -120l-167 -531h-64l-167 481l-166 -481h-66l-204 597q-17 51 -38 70.5t-73 26.5v13h349v-13
q-55 -3 -69.5 -21.5t-0.5 -60.5l137 -416h6zM420 764l149 213h13l141 -213h-16l-135 86l-136 -86h-16z" />
    <glyph glyph-name="wcircumflex" unicode="&#x175;" horiz-adv-x="812" 
d="M406 322l-24 69q-11 32 -25.5 43t-47.5 18v12h281v-12q-31 -4 -43.5 -10.5t-12.5 -20.5q0 -7 3 -18l89 -286h4l73 231q10 32 10 50q0 23 -16 35.5t-53 18.5v12h196v-12q-78 -9 -99 -70l-129 -388h-94l-102 298l-112 -298h-92l-149 397q-12 32 -28 43t-52 18v12h286v-12
q-30 -4 -42 -10t-12 -20q0 -7 4 -19l101 -289h4zM298 524l149 213h13l141 -213h-16l-135 86l-136 -86h-16z" />
    <glyph glyph-name="Ycircumflex" unicode="&#x176;" horiz-adv-x="701" 
d="M421 325l128 231q32 58 21 85t-70 43v13h231v-13q-52 -9 -90 -43t-85 -119l-121 -217v-240q0 -27 21 -38t82 -13v-14h-373v14q61 2 82 13t21 38v219l-174 318q-22 39 -45.5 55.5t-68.5 26.5v13h375v-13q-71 -4 -87.5 -25t9.5 -61zM207 764l149 213h13l141 -213h-16
l-135 86l-136 -86h-16z" />
    <glyph glyph-name="ycircumflex" unicode="&#x177;" horiz-adv-x="516" 
d="M264 -25l-201 416q-16 33 -31 44t-52 17v12h294v-12q-41 -5 -52 -15t0 -34l114 -258l84 213q18 45 3 65.5t-69 28.5v12h201v-12q-71 -8 -97 -70l-182 -436q-61 -146 -161 -146q-48 0 -74.5 21.5t-26.5 61.5q0 28 19.5 50t52.5 22q29 0 49 -20.5t20 -50.5q0 -37 -27 -62
q40 3 71 35.5t59 103.5zM126 524l149 213h13l141 -213h-16l-135 86l-136 -86h-16z" />
    <glyph glyph-name="Ydieresis" unicode="&#x178;" horiz-adv-x="701" 
d="M421 325l128 231q32 58 21 85t-70 43v13h231v-13q-52 -9 -90 -43t-85 -119l-121 -217v-240q0 -27 21 -38t82 -13v-14h-373v14q61 2 82 13t21 38v219l-174 318q-22 39 -45.5 55.5t-68.5 26.5v13h375v-13q-71 -4 -87.5 -25t9.5 -61zM527 769q-36 0 -59 23.5t-23 58.5
q0 36 23 60t59 24t59 -24t23 -60q0 -35 -23 -58.5t-59 -23.5zM310 769q-36 0 -59 23.5t-23 58.5q0 36 23 60t59 24t59 -24t23 -60q0 -35 -23 -58.5t-59 -23.5z" />
    <glyph glyph-name="Zacute" unicode="&#x179;" horiz-adv-x="679" 
d="M29 0l-1 14l428 663h-158q-56 0 -107.5 -53.5t-119.5 -175.5l-16 2l12 247h578l1 -14l-428 -663h183q55 0 105 57.5t122 185.5l16 -2l-9 -261h-606zM280 764l26 124q14 68 28 92t44 24q27 0 47 -17t20 -41q0 -17 -13 -35t-57 -65l-76 -82h-19z" />
    <glyph glyph-name="zacute" unicode="&#x17a;" horiz-adv-x="501" 
d="M25 0l-2 16l297 428h-85q-46 0 -83.5 -33t-90.5 -130l-17 2l11 181h426l2 -16l-298 -428h94q48 0 82 34.5t95 138.5l17 -2l-11 -191h-437zM194 524l26 124q14 68 28 92t44 24q27 0 47 -17t20 -41q0 -17 -13 -35t-57 -65l-76 -82h-19z" />
    <glyph glyph-name="Zdotaccent" unicode="&#x17b;" horiz-adv-x="679" 
d="M29 0l-1 14l428 663h-158q-56 0 -107.5 -53.5t-119.5 -175.5l-16 2l12 247h578l1 -14l-428 -663h183q55 0 105 57.5t122 185.5l16 -2l-9 -261h-606zM338 769q-40 0 -64.5 22.5t-24.5 63.5t24.5 66t64.5 25q41 0 65 -23.5t24 -63.5q0 -41 -24 -65.5t-65 -24.5z" />
    <glyph glyph-name="zdotaccent" unicode="&#x17c;" horiz-adv-x="501" 
d="M25 0l-2 16l297 428h-85q-46 0 -83.5 -33t-90.5 -130l-17 2l11 181h426l2 -16l-298 -428h94q48 0 82 34.5t95 138.5l17 -2l-11 -191h-437zM256 529q-40 0 -64.5 22.5t-24.5 63.5t24.5 66t64.5 25q41 0 65 -23.5t24 -63.5q0 -41 -24 -65.5t-65 -24.5z" />
    <glyph glyph-name="Zcaron" unicode="&#x17d;" horiz-adv-x="679" 
d="M29 0l-1 14l428 663h-158q-56 0 -107.5 -53.5t-119.5 -175.5l-16 2l12 247h578l1 -14l-428 -663h183q55 0 105 57.5t122 185.5l16 -2l-9 -261h-606zM341 764l-141 213h16l135 -86l136 86h16l-149 -213h-13z" />
    <glyph glyph-name="zcaron" unicode="&#x17e;" horiz-adv-x="501" 
d="M25 0l-2 16l297 428h-85q-46 0 -83.5 -33t-90.5 -130l-17 2l11 181h426l2 -16l-298 -428h94q48 0 82 34.5t95 138.5l17 -2l-11 -191h-437zM251 524l-141 213h16l135 -86l136 86h16l-149 -213h-13z" />
    <glyph glyph-name="Aringacute" unicode="&#x1fa;" horiz-adv-x="722" 
d="M299 936l26 124q14 68 28 92t44 24q27 0 47 -17t20 -41q0 -17 -13 -35t-57 -65l-76 -82h-19zM358 710q46 0 46 93t-50 93q-46 0 -46 -93t50 -93zM169 264l-36 -96q-29 -76 -13 -110t85 -44v-14h-238v14q49 13 82 50.5t62 112.5l200 523q-41 10 -63 37.5t-22 66.5
q0 49 35.5 79.5t94.5 30.5q61 0 95.5 -30t34.5 -79q0 -37 -21 -64.5t-59 -38.5l225 -611q15 -39 34.5 -53.5t73.5 -23.5v-14h-381v14q71 4 91.5 20.5t6.5 54.5l-62 175h-225zM387 284l-101 283h-5l-105 -283h211z" />
    <glyph glyph-name="aringacute" unicode="&#x1fb;" horiz-adv-x="527" 
d="M171 -5q-70 0 -107 37t-37 86q0 30 17.5 59.5t47.5 46.5q42 23 130.5 30.5t92.5 8.5v90q0 51 -16 73.5t-53 22.5q-39 0 -67 -18q28 -25 28 -60t-19.5 -54.5t-56.5 -19.5q-32 0 -54 21t-22 52q0 99 217 99q100 0 148 -39.5t48 -125.5v-215q0 -37 16.5 -45.5t55.5 8.5
l6 -11q-63 -45 -114 -45q-50 0 -74.5 18.5t-33.5 57.5h-4q-67 -77 -149 -77zM253 57q40 0 62 36v150q-74 -8 -100 -31t-26 -79q0 -35 17.5 -55.5t46.5 -20.5zM267 529q-61 0 -95.5 30t-34.5 80q0 49 35.5 79.5t94.5 30.5q61 0 95.5 -30t34.5 -79t-35 -80t-95 -31zM269 547
q46 0 46 92t-50 92q-46 0 -46 -92t50 -92zM224 780l26 124q14 68 28 92t44 24q27 0 47 -17t20 -41q0 -17 -13 -35t-57 -65l-76 -82h-19z" />
    <glyph glyph-name="AEacute" unicode="&#x1fc;" horiz-adv-x="1080" 
d="M562 764l26 124q14 68 28 92t44 24q27 0 47 -17t20 -41q0 -17 -13 -35t-57 -65l-76 -82h-19zM239 277l-74 -118q-35 -56 -35 -88q0 -44 71 -57v-14h-236v14q96 26 184 163l273 432q14 22 14 34q0 19 -28 28t-92 13v13h675l3 -247l-16 -2l-36.5 76t-31.5 57t-33.5 46
t-36 29t-45 19.5t-55.5 4.5h-92v-310h33q60 0 97 31.5t57 103.5h13v-289h-13q-20 73 -57 105t-97 32h-33v-335h85q56 0 93 11t68.5 43.5t53.5 73t56 117.5l16 -2l-5 -261h-635v14q59 2 79.5 13t20.5 38v212h-241zM480 297v363h-4l-225 -363h229z" />
    <glyph glyph-name="aeacute" unicode="&#x1fd;" horiz-adv-x="798" 
d="M560 472q106 0 162 -63t51 -168h-296v-14v-2q0 -190 147 -190q78 0 136 80l11 -7q-75 -116 -210 -116q-139 0 -207 96h-4q-70 -93 -184 -93q-67 0 -103 37t-36 86q0 30 17.5 59.5t47.5 46.5q42 23 135.5 30.5t97.5 8.5v90q0 96 -79 96q-39 0 -67 -18q28 -25 28 -60
t-19.5 -54.5t-56.5 -19.5q-32 0 -54 21t-22 52q0 99 217 99q96 0 145 -42q58 45 143 45zM554 452q-71 0 -77 -191h142q10 88 -7 139.5t-58 51.5zM253 57q19 0 41 10.5t31 25.5v150q-76 -8 -106 -31.5t-30 -78.5q0 -35 17.5 -55.5t46.5 -20.5zM386 524l26 124q14 68 28 92
t44 24q27 0 47 -17t20 -41q0 -17 -13 -35t-57 -65l-76 -82h-19z" />
    <glyph glyph-name="Oslashacute" unicode="&#x1fe;" 
d="M391 -17q156 0 254 100.5t98 267.5q0 173 -105 273l91 109h-33l-77 -93q-93 74 -228 74q-155 0 -253 -100.5t-98 -266.5q0 -175 105 -274l-91 -109h33l77 92q92 -73 227 -73zM387 695q116 0 153 -148l-304 -366q-13 66 -13 168q0 180 39 263t125 83zM396 2
q-116 0 -154 148l305 365q13 -66 13 -166q0 -181 -38.5 -264t-125.5 -83zM362 764l26 124q14 68 28 92t44 24q27 0 47 -17t20 -41q0 -17 -13 -35t-57 -65l-76 -82h-19z" />
    <glyph glyph-name="oslashacute" unicode="&#x1ff;" horiz-adv-x="549" 
d="M70 -24h-27l59 69q-76 62 -76 186q0 112 67 176.5t182 64.5q92 0 155 -41l49 57h27l-59 -69q76 -64 76 -184q0 -112 -67 -177.5t-181 -65.5q-96 0 -157 41zM189 233q0 -45 3 -82l161 189q-17 112 -83 112q-47 0 -64 -54t-17 -165zM279 12q32 0 50.5 28.5t24.5 74t6 118.5
q0 44 -3 80l-161 -189q17 -112 83 -112zM245 524l26 124q14 68 28 92t44 24q27 0 47 -17t20 -41q0 -17 -13 -35t-57 -65l-76 -82h-19z" />
    <glyph glyph-name="Scommaaccent" unicode="&#x218;" horiz-adv-x="595" 
d="M49 -17v257h16q55 -111 121 -172.5t134 -61.5q61 0 95.5 34.5t34.5 84.5q0 54 -42.5 89t-133.5 65q-50 16 -82 30.5t-67 38.5t-52 59t-17 81q0 100 67 161t176 61q83 0 156 -42l48 48h12v-230h-16q-56 107 -107 156t-107 49q-48 0 -83.5 -30t-35.5 -81q0 -53 43 -86.5
t137 -62.5q43 -14 73 -27.5t62.5 -37t49.5 -59t17 -81.5q0 -100 -62 -169.5t-183 -69.5q-43 0 -95 13.5t-90 34.5l-57 -52h-12zM232 -342l-8 12q88 54 93 123l-4 2q-13 -6 -28 -6q-26 0 -46.5 20t-20.5 53q0 32 21 55t54 23q40 0 64 -27.5t24 -71.5q0 -57 -38.5 -105
t-110.5 -78z" />
    <glyph glyph-name="scommaaccent" unicode="&#x219;" horiz-adv-x="452" 
d="M34 -8v176h15q51 -80 96.5 -118t97.5 -38q35 0 54.5 18t19.5 50q0 33 -26 51.5t-106 42.5q-83 25 -117 55t-34 85q0 73 51.5 115.5t138.5 42.5q80 0 136 -37l30 37h12v-158h-15q-48 74 -83 106t-80 32q-32 0 -51 -19.5t-19 -53.5q0 -29 27 -45t80 -29q88 -21 130 -54.5
t42 -95.5q0 -71 -56.5 -117t-143.5 -46q-28 0 -83 13.5t-74 25.5l-30 -39h-12zM156 -342l-8 12q88 54 93 123l-4 2q-13 -6 -28 -6q-26 0 -46.5 20t-20.5 53q0 32 21 55t54 23q40 0 64 -27.5t24 -71.5q0 -57 -38.5 -105t-110.5 -78z" />
    <glyph glyph-name="schwa" unicode="&#x259;" horiz-adv-x="509" 
d="M237 472q112 0 179 -60.5t67 -172.5q0 -114 -69.5 -180.5t-175.5 -66.5t-162 63t-51 168h296v14v2q0 190 -147 190q-78 0 -136 -80l-11 7q75 116 210 116zM244 12q71 0 76 191h-141q-10 -88 7 -139.5t58 -51.5z" />
    <glyph glyph-name="circumflex" unicode="&#x2c6;" horiz-adv-x="329" 
d="M13 524l149 213h13l141 -213h-16l-135 86l-136 -86h-16z" />
    <glyph glyph-name="caron" unicode="&#x2c7;" horiz-adv-x="329" 
d="M154 524l-141 213h16l135 -86l136 86h16l-149 -213h-13z" />
    <glyph glyph-name="breve" unicode="&#x2d8;" horiz-adv-x="336" 
d="M169 529q-59 0 -98.5 44.5t-45.5 127.5h15q14 -41 49 -62.5t78 -21.5q45 0 80.5 22t48.5 62h15q-5 -84 -44 -128t-98 -44z" />
    <glyph glyph-name="dotaccent" unicode="&#x2d9;" horiz-adv-x="250" 
d="M125 529q-40 0 -64.5 22.5t-24.5 63.5t24.5 66t64.5 25q41 0 65 -23.5t24 -63.5q0 -41 -24 -65.5t-65 -24.5z" />
    <glyph glyph-name="ring" unicode="&#x2da;" horiz-adv-x="282" 
d="M141 529q-61 0 -95.5 30t-34.5 80q0 49 35.5 79.5t94.5 30.5q61 0 95.5 -30t34.5 -79t-35 -80t-95 -31zM143 547q46 0 46 92t-50 92q-46 0 -46 -92t50 -92z" />
    <glyph glyph-name="ogonek" unicode="&#x2db;" horiz-adv-x="269" 
d="M103 -247q-45 0 -71 22t-26 62q0 42 28.5 73t80.5 64l69 43h16l-35 -39q-54 -60 -54 -123q0 -65 55 -65q34 0 68 19l6 -12q-22 -19 -62 -31.5t-75 -12.5z" />
    <glyph glyph-name="tilde" unicode="&#x2dc;" horiz-adv-x="366" 
d="M16 525q5 80 29 115t71 35q30 0 91 -28.5t77 -28.5q19 0 29.5 12.5t20.5 47.5h16q-5 -80 -29 -115t-71 -35q-30 0 -91 28.5t-77 28.5q-19 0 -29.5 -12.5t-20.5 -47.5h-16z" />
    <glyph glyph-name="hungarumlaut" unicode="&#x2dd;" horiz-adv-x="329" 
d="M154 524l46 126q24 67 40.5 89.5t44.5 22.5q23 0 37.5 -14t14.5 -36q0 -19 -14.5 -39t-65.5 -66l-92 -83h-11zM-13 524l46 126q24 67 40.5 89.5t44.5 22.5q23 0 37.5 -14t14.5 -36q0 -19 -14.5 -39t-65.5 -66l-92 -83h-11z" />
    <glyph glyph-name="commaaccent" unicode="&#x326;" horiz-adv-x="270" 
d="M67 -342l-8 12q88 54 93 123l-4 2q-14 -6 -28 -6q-26 0 -46.5 20t-20.5 53q0 32 21 55t54 23q40 0 64 -27.5t24 -71.5q0 -57 -38.5 -105t-110.5 -78z" />
    <glyph glyph-name="Wgrave" unicode="&#x1e80;" horiz-adv-x="1057" 
d="M530 502l-30 85q-18 52 -38.5 73.5t-63.5 23.5v13h348v-13q-59 -3 -76 -21.5t-3 -60.5l137 -414h6l114 367q19 58 2.5 88t-74.5 41v13h229v-13q-57 -11 -85 -43t-57 -120l-167 -531h-64l-167 481l-166 -481h-66l-204 597q-17 51 -38 70.5t-73 26.5v13h349v-13
q-55 -3 -69.5 -21.5t-0.5 -60.5l137 -416h6zM576 764l-76 82q-44 47 -57 65t-13 35q0 24 20 41t47 17q30 0 44 -24t28 -92l26 -124h-19z" />
    <glyph glyph-name="wgrave" unicode="&#x1e81;" horiz-adv-x="812" 
d="M406 322l-24 69q-11 32 -25.5 43t-47.5 18v12h281v-12q-31 -4 -43.5 -10.5t-12.5 -20.5q0 -7 3 -18l89 -286h4l73 231q10 32 10 50q0 23 -16 35.5t-53 18.5v12h196v-12q-78 -9 -99 -70l-129 -388h-94l-102 298l-112 -298h-92l-149 397q-12 32 -28 43t-52 18v12h286v-12
q-30 -4 -42 -10t-12 -20q0 -7 4 -19l101 -289h4zM436 524l-76 82q-44 47 -57 65t-13 35q0 24 20 41t47 17q30 0 44 -24t28 -92l26 -124h-19z" />
    <glyph glyph-name="Wacute" unicode="&#x1e82;" horiz-adv-x="1057" 
d="M530 502l-30 85q-18 52 -38.5 73.5t-63.5 23.5v13h348v-13q-59 -3 -76 -21.5t-3 -60.5l137 -414h6l114 367q19 58 2.5 88t-74.5 41v13h229v-13q-57 -11 -85 -43t-57 -120l-167 -531h-64l-167 481l-166 -481h-66l-204 597q-17 51 -38 70.5t-73 26.5v13h349v-13
q-55 -3 -69.5 -21.5t-0.5 -60.5l137 -416h6zM527 764l26 124q14 68 28 92t44 24q27 0 47 -17t20 -41q0 -17 -13 -35t-57 -65l-76 -82h-19z" />
    <glyph glyph-name="wacute" unicode="&#x1e83;" horiz-adv-x="812" 
d="M406 322l-24 69q-11 32 -25.5 43t-47.5 18v12h281v-12q-31 -4 -43.5 -10.5t-12.5 -20.5q0 -7 3 -18l89 -286h4l73 231q10 32 10 50q0 23 -16 35.5t-53 18.5v12h196v-12q-78 -9 -99 -70l-129 -388h-94l-102 298l-112 -298h-92l-149 397q-12 32 -28 43t-52 18v12h286v-12
q-30 -4 -42 -10t-12 -20q0 -7 4 -19l101 -289h4zM419 524l26 124q14 68 28 92t44 24q27 0 47 -17t20 -41q0 -17 -13 -35t-57 -65l-76 -82h-19z" />
    <glyph glyph-name="Wdieresis" unicode="&#x1e84;" horiz-adv-x="1057" 
d="M530 502l-30 85q-18 52 -38.5 73.5t-63.5 23.5v13h348v-13q-59 -3 -76 -21.5t-3 -60.5l137 -414h6l114 367q19 58 2.5 88t-74.5 41v13h229v-13q-57 -11 -85 -43t-57 -120l-167 -531h-64l-167 481l-166 -481h-66l-204 597q-17 51 -38 70.5t-73 26.5v13h349v-13
q-55 -3 -69.5 -21.5t-0.5 -60.5l137 -416h6zM677 769q-36 0 -59 23.5t-23 58.5q0 36 23 60t59 24t59 -24t23 -60q0 -35 -23 -58.5t-59 -23.5zM460 769q-36 0 -59 23.5t-23 58.5q0 36 23 60t59 24t59 -24t23 -60q0 -35 -23 -58.5t-59 -23.5z" />
    <glyph glyph-name="wdieresis" unicode="&#x1e85;" horiz-adv-x="812" 
d="M406 322l-24 69q-11 32 -25.5 43t-47.5 18v12h281v-12q-31 -4 -43.5 -10.5t-12.5 -20.5q0 -7 3 -18l89 -286h4l73 231q10 32 10 50q0 23 -16 35.5t-53 18.5v12h196v-12q-78 -9 -99 -70l-129 -388h-94l-102 298l-112 -298h-92l-149 397q-12 32 -28 43t-52 18v12h286v-12
q-30 -4 -42 -10t-12 -20q0 -7 4 -19l101 -289h4zM556 529q-36 0 -59 23.5t-23 58.5q0 36 23 60t59 24t59 -24t23 -60q0 -35 -23 -58.5t-59 -23.5zM339 529q-36 0 -59 23.5t-23 58.5q0 36 23 60t59 24t59 -24t23 -60q0 -35 -23 -58.5t-59 -23.5z" />
    <glyph glyph-name="Ygrave" unicode="&#x1ef2;" horiz-adv-x="701" 
d="M421 325l128 231q32 58 21 85t-70 43v13h231v-13q-52 -9 -90 -43t-85 -119l-121 -217v-240q0 -27 21 -38t82 -13v-14h-373v14q61 2 82 13t21 38v219l-174 318q-22 39 -45.5 55.5t-68.5 26.5v13h375v-13q-71 -4 -87.5 -25t9.5 -61zM389 764l-76 82q-44 47 -57 65t-13 35
q0 24 20 41t47 17q30 0 44 -24t28 -92l26 -124h-19z" />
    <glyph glyph-name="ygrave" unicode="&#x1ef3;" horiz-adv-x="516" 
d="M264 -25l-201 416q-16 33 -31 44t-52 17v12h294v-12q-41 -5 -52 -15t0 -34l114 -258l84 213q18 45 3 65.5t-69 28.5v12h201v-12q-71 -8 -97 -70l-182 -436q-61 -146 -161 -146q-48 0 -74.5 21.5t-26.5 61.5q0 28 19.5 50t52.5 22q29 0 49 -20.5t20 -50.5q0 -37 -27 -62
q40 3 71 35.5t59 103.5zM300 524l-76 82q-44 47 -57 65t-13 35q0 24 20 41t47 17q30 0 44 -24t28 -92l26 -124h-19z" />
    <glyph glyph-name="enspace" unicode="&#x2002;" horiz-adv-x="500" 
 />
    <glyph glyph-name="emspace" unicode="&#x2003;" horiz-adv-x="1000" 
 />
    <glyph glyph-name="threeperemspace" unicode="&#x2004;" horiz-adv-x="333" 
 />
    <glyph glyph-name="fourperemspace" unicode="&#x2005;" horiz-adv-x="250" 
 />
    <glyph glyph-name="thinspace" unicode="&#x2009;" horiz-adv-x="133" 
 />
    <glyph glyph-name="hairspace" unicode="&#x200a;" horiz-adv-x="75" 
 />
    <glyph glyph-name="endash" unicode="&#x2013;" horiz-adv-x="540" 
d="M55 253v22h430v-22h-430z" />
    <glyph glyph-name="emdash" unicode="&#x2014;" horiz-adv-x="790" 
d="M55 253v22h680v-22h-680z" />
    <glyph glyph-name="quoteleft" unicode="&#x2018;" horiz-adv-x="270" 
d="M142 396q-45 0 -71.5 31t-26.5 80q0 70 51.5 128.5t137.5 81.5l6 -12q-56 -29 -87.5 -71t-35.5 -74l4 -2q15 6 31 6q29 0 52 -22t23 -59q0 -36 -23.5 -61.5t-60.5 -25.5z" />
    <glyph glyph-name="quoteright" unicode="&#x2019;" horiz-adv-x="270" 
d="M37 392l-6 12q56 29 87.5 71t35.5 74l-4 2q-15 -6 -31 -6q-29 0 -52 22t-23 59q0 36 23.5 61.5t60.5 25.5q45 0 71.5 -31t26.5 -80q0 -70 -51.5 -128.5t-137.5 -81.5z" />
    <glyph glyph-name="quotesinglbase" unicode="&#x201a;" horiz-adv-x="270" 
d="M37 -164l-6 12q56 29 87.5 71t35.5 74l-4 2q-15 -6 -31 -6q-29 0 -52 22t-23 59q0 36 23.5 61.5t60.5 25.5q45 0 71.5 -31t26.5 -80q0 -70 -51.5 -128.5t-137.5 -81.5z" />
    <glyph glyph-name="quotedblleft" unicode="&#x201c;" horiz-adv-x="493" 
d="M365 396q-45 0 -71.5 31t-26.5 80q0 70 51.5 128.5t137.5 81.5l6 -12q-56 -29 -87.5 -71t-35.5 -74l4 -2q15 6 31 6q29 0 52 -22t23 -59q0 -36 -23.5 -61.5t-60.5 -25.5zM142 396q-45 0 -71.5 31t-26.5 80q0 70 51.5 128.5t137.5 81.5l6 -12q-56 -29 -87.5 -71t-35.5 -74
l4 -2q15 6 31 6q29 0 52 -22t23 -59q0 -36 -23.5 -61.5t-60.5 -25.5z" />
    <glyph glyph-name="quotedblright" unicode="&#x201d;" horiz-adv-x="493" 
d="M260 392l-6 12q56 29 87.5 71t35.5 74l-4 2q-15 -6 -31 -6q-29 0 -52 22t-23 59q0 36 23.5 61.5t60.5 25.5q45 0 71.5 -31t26.5 -80q0 -70 -51.5 -128.5t-137.5 -81.5zM37 392l-6 12q56 29 87.5 71t35.5 74l-4 2q-15 -6 -31 -6q-29 0 -52 22t-23 59q0 36 23.5 61.5
t60.5 25.5q45 0 71.5 -31t26.5 -80q0 -70 -51.5 -128.5t-137.5 -81.5z" />
    <glyph glyph-name="quotedblbase" unicode="&#x201e;" horiz-adv-x="493" 
d="M260 -164l-6 12q56 29 87.5 71t35.5 74l-4 2q-15 -6 -31 -6q-29 0 -52 22t-23 59q0 36 23.5 61.5t60.5 25.5q45 0 71.5 -31t26.5 -80q0 -70 -51.5 -128.5t-137.5 -81.5zM37 -164l-6 12q56 29 87.5 71t35.5 74l-4 2q-15 -6 -31 -6q-29 0 -52 22t-23 59q0 36 23.5 61.5
t60.5 25.5q45 0 71.5 -31t26.5 -80q0 -70 -51.5 -128.5t-137.5 -81.5z" />
    <glyph glyph-name="dagger" unicode="&#x2020;" horiz-adv-x="585" 
d="M286 -108q-10 122 -32 247.5t-39 174.5l51 63q17 22 17 42q0 19 -13.5 32t-35.5 13q-32 0 -80 -25t-64 -25q-27 0 -46.5 14t-19.5 41q0 26 25 45.5t60 19.5q63 0 174 -70l3 3l-32 103q-23 72 -23 114q0 33 16.5 53t45.5 20t45.5 -20t16.5 -53q0 -42 -23 -114l-32 -103
l3 -3q111 70 174 70q35 0 60 -19.5t25 -45.5q0 -27 -19.5 -41t-46.5 -14q-16 0 -64 25t-80 25q-22 0 -35.5 -13t-13.5 -32q0 -20 17 -42l51 -63q-17 -49 -39 -174.5t-32 -247.5h-14z" />
    <glyph glyph-name="daggerdbl" unicode="&#x2021;" horiz-adv-x="605" 
d="M303 -110q-29 0 -45.5 19t-16.5 50q0 36 23 108l32 99l-3 3q-111 -70 -174 -70q-35 0 -60 19.5t-25 45.5q0 27 19.5 41t46.5 14q16 0 64 -25t80 -25q48 0 48 39q0 24 -19 53l-41 63l41 62q19 29 19 51q0 41 -48 41q-32 0 -80 -25t-64 -25q-27 0 -46.5 14t-19.5 41
q0 26 25 45.5t60 19.5q63 0 174 -70l3 3l-32 99q-23 72 -23 108q0 31 16.5 50t45.5 19t45.5 -19t16.5 -50q0 -36 -23 -108l-32 -99l3 -3q111 70 174 70q35 0 60 -19.5t25 -45.5q0 -27 -19.5 -41t-46.5 -14q-16 0 -64 25t-80 25q-48 0 -48 -39q0 -24 19 -53l41 -62l-41 -63
q-19 -29 -19 -51q0 -41 48 -41q32 0 80 25t64 25q27 0 46.5 -14t19.5 -41q0 -26 -25 -45.5t-60 -19.5q-63 0 -174 70l-3 -3l32 -99q23 -72 23 -108q0 -31 -16.5 -50t-45.5 -19z" />
    <glyph glyph-name="bullet" unicode="&#x2022;" horiz-adv-x="480" 
d="M240 191q-61 0 -101 40.5t-40 99.5t40 99.5t101 40.5t101 -40.5t40 -99.5t-40 -99.5t-101 -40.5z" />
    <glyph glyph-name="ellipsis" unicode="&#x2026;" horiz-adv-x="786" 
d="M650 -17q-38 0 -63.5 25t-25.5 61t26.5 62t64.5 26t63.5 -25t25.5 -61t-26.5 -62t-64.5 -26zM392 -17q-38 0 -63.5 25t-25.5 61t26.5 62t64.5 26t63.5 -25t25.5 -61t-26.5 -62t-64.5 -26zM134 -17q-38 0 -63.5 25t-25.5 61t26.5 62t64.5 26t63.5 -25t25.5 -61t-26.5 -62
t-64.5 -26z" />
    <glyph glyph-name="guilsinglleft" unicode="&#x2039;" horiz-adv-x="310" 
d="M259 26l-201 168q-25 21 -25 32t25 32l201 168l12 -9l-112 -191l112 -192z" />
    <glyph glyph-name="guilsinglright" unicode="&#x203a;" horiz-adv-x="310" 
d="M51 25l-12 9l112 191l-112 192l12 8l201 -168q25 -21 25 -32t-25 -32z" />
    <glyph glyph-name="fraction" unicode="&#x2044;" horiz-adv-x="611" 
d="M43 -31l248 357l244 358h33l-247 -358l-245 -357h-33z" />
    <glyph glyph-name="Euro" unicode="&#x20ac;" horiz-adv-x="714" 
d="M471 273h-198q18 -96 72.5 -154.5t133.5 -58.5q53 0 101.5 29t83.5 80l17 -10q-84 -176 -263 -176q-136 0 -216.5 80.5t-94.5 209.5h-83v21h82q-1 9 -1 29q0 32 4 57h-85v21h88q24 123 116.5 203t229.5 80q91 0 151 -43.5t60 -102.5q0 -39 -25 -63.5t-62 -24.5
q-40 0 -65 23t-25 65q0 61 62 87q-38 40 -100 40q-81 0 -130 -69t-57 -195h204v-21h-205v-27q0 -34 4 -59h201v-21z" />
    <glyph glyph-name="published" unicode="&#x2117;" horiz-adv-x="834" 
d="M417 -34q-162 0 -272.5 110t-110.5 273q0 161 110.5 271.5t272.5 110.5t272.5 -110.5t110.5 -271.5q0 -163 -110.5 -273t-272.5 -110zM417 -17q154 0 258.5 106.5t104.5 259.5t-104.5 259t-258.5 106t-258.5 -106t-104.5 -259t104.5 -259.5t258.5 -106.5zM247 157v13
q33 1 43.5 7t10.5 21v310q0 15 -10.5 21t-43.5 7v12h182q176 0 176 -113q0 -51 -42.5 -82.5t-134.5 -31.5h-28v-123q0 -17 9.5 -22.5t47.5 -6.5v-12h-210zM400 336h22q49 0 66.5 22.5t17.5 76.5q0 49 -18.5 74t-63.5 25h-24v-198z" />
    <glyph glyph-name="servicemark" unicode="&#x2120;" horiz-adv-x="631" 
d="M54 552h11q44 -72 91 -72q20 0 31.5 10.5t11.5 23.5q0 29 -61 46q-39 11 -60.5 27t-21.5 48q0 33 25.5 53t65.5 20q30 0 56 -13l16 15h8v-76h-12q-37 62 -75 62q-17 0 -28 -8.5t-11 -22.5q0 -15 13 -23.5t50 -20.5q24 -8 37 -14t25.5 -22t12.5 -38q0 -33 -23.5 -56
t-67.5 -23q-38 0 -67 16l-19 -17h-8v85zM262 472v9q22 2 28.5 11.5t6.5 33.5v138q0 29 -35 30v10h112l57 -156h4l53 156h109v-10q-21 -2 -28.5 -5t-7.5 -11v-180q0 -14 36 -15v-11h-135v11q18 1 24 4t6 11v163h-4l-63 -189h-36l-72 190h-4v-136q0 -24 6.5 -33t29.5 -12v-9
h-87z" />
    <glyph glyph-name="trademark" unicode="&#x2122;" horiz-adv-x="668" 
d="M299 472v9q22 2 28.5 11.5t6.5 33.5v138q0 29 -35 30v10h112l57 -156h4l53 156h109v-10q-21 -2 -28.5 -5t-7.5 -11v-180q0 -14 36 -15v-11h-135v11q18 1 24 4t6 11v163h-4l-63 -189h-36l-72 190h-4v-136q0 -24 6.5 -33t29.5 -12v-9h-87zM82 472v11q38 0 38 15v194h-5
q-29 0 -67 -79h-12l4 91h230l3 -91h-11q-35 79 -68 79h-4v-194q0 -15 38 -15v-11h-146z" />
    <glyph glyph-name="minus" unicode="&#x2212;" horiz-adv-x="536" 
d="M54 317v22h428v-22h-428z" />
    <glyph glyph-name="registered.alt" horiz-adv-x="834" 
d="M417 -34q-162 0 -272.5 110t-110.5 273q0 161 110.5 271.5t272.5 110.5t272.5 -110.5t110.5 -271.5q0 -163 -110.5 -273t-272.5 -110zM417 -17q154 0 258.5 106.5t104.5 259.5t-104.5 259t-258.5 106t-258.5 -106t-104.5 -259t104.5 -259.5t258.5 -106.5zM380 361h31
q48 0 63 16.5t15 66.5q0 46 -18.5 68t-64.5 22h-26v-173zM380 347v-150q0 -15 11.5 -21t39.5 -7v-13h-203v13q33 1 43.5 7t10.5 21v311q0 15 -10.5 21t-43.5 7v12h203q82 0 120.5 -28t38.5 -69q0 -76 -121 -94v-2q58 -1 83.5 -22.5t30.5 -61.5l4 -52q4 -31 13.5 -40
t42.5 -10v-12q-22 -3 -60 -3q-55 0 -74.5 17.5t-22.5 56.5l-4 46q-4 43 -19 58t-60 15h-23z" />
    <glyph glyph-name="percent.alt" horiz-adv-x="869" 
d="M401 505q0 -82 -49 -130.5t-132 -48.5q-86 0 -134 47t-48 129t49 130t133 48q85 0 133 -46.5t48 -128.5zM147 -9l282 353l261 331h36l-281 -350l-262 -334h-36zM216 661q-69 0 -69 -157q0 -75 19.5 -117t56.5 -42q69 0 69 159q0 74 -19.5 115.5t-56.5 41.5zM472 162
q0 82 49 130t133 48q85 0 133 -46.5t48 -128.5t-49 -130.5t-132 -48.5q-86 0 -134 47t-48 129zM657 5q69 0 69 159q0 74 -19.5 115.5t-56.5 41.5q-69 0 -69 -157q0 -75 19.5 -117t56.5 -42z" />
    <glyph glyph-name="NUL" horiz-adv-x="0" 
 />
    <glyph glyph-name="hcoslug" horiz-adv-x="694" 
d="M273 18h-26q0 -12 10 -12q8 0 9 7h7q-3 -14 -18 -14q-21 0 -21 20q0 9 6 15t14 6q21 0 19 -22zM254 35q-7 0 -7 -12h14q0 12 -7 12zM195 78q8 0 8 16q0 15 -8 15t-8 -15q0 -16 8 -16zM210 4q8 0 8 16q0 15 -8 15t-8 -15q0 -16 8 -16zM210 -1q-21 0 -21 21q0 20 21 20
t21 -20q0 -9 -6 -15t-15 -6zM546 4q8 0 8 16q0 15 -8 15t-8 -15q0 -16 8 -16zM546 -1q-21 0 -21 21q0 20 21 20t21 -20q0 -9 -6 -15t-15 -6zM125 74v7h7v41h-7v7h51v-20h-8q-2 13 -11 13h-12v-18h4q5 0 6 8h7v-23h-7q-1 8 -6 8h-4v-16h10v-7h-30zM195 73q-21 0 -21 21
q0 20 21 20t21 -20q0 -9 -6 -15t-15 -6zM644 -100v800h-594v-800h594zM498 -1q-29 0 -29 28q0 13 8 21.5t19 8.5q9 0 16 -7l1 6h8v-22h-8q-5 16 -15 16q-14 0 -14 -22t16 -22q12 0 14 16h8q-2 -23 -24 -23zM372 80q7 0 7 13t-7 13q-8 0 -8 -13t8 -13zM276 0v7h6v25h-7v7h7v1
q0 19 19 19q5 0 9 -2l10 2v-52h6v-7h-23v7h5v25h-14v-25h5v-7h-23zM368 0v7h6v25h-6v7h18v-10q4 11 12 11t8 -8q0 -7 -7 -7q-6 0 -6 6v1q-3 0 -7 -9v-16h8v-7h-26zM352 73v52h-6v7h18v-27q3 9 13 9q15 0 15 -20q0 -21 -16 -21q-9 0 -14 8l-4 -8h-6zM400 75q5 0 6.5 -4
t-1.5 -6q6 0 8 8l-16 33h-5v7h25v-7h-6l9 -20l8 20h-5v7h17v-7h-5l-13 -31q-6 -16 -18 -16q-11 0 -11 9q0 7 7 7zM247 428q0 13 7.5 21t19.5 8q13 0 21 -10.5t8 -27.5q0 -22 -18 -50q-15 14 -21 20.5t-11.5 17t-5.5 21.5zM302 74v14h7q6 -9 12 -9q5 0 5 4q0 3 -12 6.5
t-12 12.5q0 12 14 12q8 0 11 -5l2 5h6v-13h-7q-5 7 -10 7t-5 -4q0 -3 12 -6t12 -12q0 -13 -14 -13q-5 0 -13 5l-1 -4h-7zM261 219q-22 0 -37 15.5t-15 38.5q0 24 16 40q34 -32 74 -82q-15 -12 -38 -12zM274 122l12 2v-11h13v-7h-13v-20q0 -5 4 -5t5 7l5 -2q-3 -13 -14 -13
q-12 0 -12 13v20h-7v7h7v9zM428 306q-26 -16 -46 -42q35 -41 62 -41q26 0 43 29l7 -2q-1 -43 -24 -68.5t-56 -25.5q-41 0 -85 45q-41 -45 -104 -45q-45 0 -77 27t-32 66q0 63 82 91q-31 32 -31 69q0 34 30.5 59.5t78.5 25.5q44 0 69.5 -22.5t25.5 -51.5q0 -19 -9 -34
q46 2 49 -37q25 38 60 38q21 0 35.5 -14.5t14.5 -37.5t-14.5 -38.5t-35.5 -15.5q-28 0 -43 25zM219 74v7h6v25h-6v7h17v-10q5 11 14 11q12 0 12 -14v-19h6v-7h-22v7h4v18q0 7 -6 7q-7 0 -7 -10v-15h4v-7h-22zM446 33h18v-7h-5q-3 -6 -9 -14q3 -5 6 -5t4 5l5 -1
q-3 -12 -13 -12q-7 0 -12 6q-6 -6 -15 -6q-18 0 -18 14q0 11 13 15q-6 6 -6 12q0 14 17 14q14 0 14 -12q0 -7 -11 -12q3 -3 6.5 -7t5.5 -6q4 5 6 9h-6v7zM429 6q3 0 8 3q-10 12 -14 16q-4 -4 -4 -9q0 -10 10 -10zM294 42v-3h14v5q-6 0 -6 6l1 3q-1 1 -3 1q-6 0 -6 -12z
M425 43q0 -4 6 -10q5 3 5 9t-6 6q-5 0 -5 -5zM312 342q30 20 42 34q29 -29 -1 -80q-33 38 -41 46zM366 18h-26q0 -12 10 -12q8 0 9 7h7q-4 -14 -18 -14q-21 0 -21 20q0 9 6 15t14 6q21 0 19 -22zM347 35q-7 0 -7 -12h14q0 12 -7 12zM124 0v7h8v41h-8v7h29v-7h-8v-16h22v16
h-8v7h29v-7h-8v-41h8v-7h-29v7h8v18h-22v-18h8v-7h-29zM576 13q7 0 7 -7t-7 -7t-7 7t7 7z" />
    <glyph glyph-name="i.dot" horiz-adv-x="325" 
d="M168 534q-40 0 -64.5 22.5t-24.5 63.5t24.5 66t64.5 25q41 0 65 -23.5t24 -63.5q0 -41 -24 -65.5t-65 -24.5zM21 0v12q42 1 57 8.5t15 26.5v346q0 24 -15.5 36t-56.5 13v12l226 12v-419q0 -19 13 -26.5t54 -8.5v-12h-293z" />
    <glyph glyph-name="caron.alt" horiz-adv-x="146" 
d="M43 528l-16 143q-3 30 -3 45q0 30 16 43t39 13t38 -12t15 -32t-18 -66l-55 -134h-16z" />
    </font>
</defs>
</svg>
